<svg width="20" height="20" viewBox="0 0 20 20" fill="none" xmlns="http://www.w3.org/2000/svg">
<path fill-rule="evenodd" clip-rule="evenodd" d="M2.22666 10.3475L2.17134 9.7255C1.8694 6.04274 4.71558 2.16667 9.99987 2.16667C15.2842 2.16667 18.1306 6.0428 17.8287 9.7255L17.7738 10.3428C17.3191 10.0789 16.8013 9.90825 16.244 9.85911C14.1978 9.67863 12.3939 11.2046 12.2149 13.2675L11.9844 15.9234C11.8054 17.9864 13.319 19.805 15.3653 19.9855C17.4115 20.1659 19.2155 18.64 19.3945 16.5771L19.625 13.9211C19.6335 13.8241 19.6381 13.7276 19.6392 13.6319L19.9696 9.91535L19.9702 9.90841C20.3824 4.91288 16.4939 0 9.99987 0C3.50569 0 -0.382335 4.91294 0.0298161 9.90841L0.0304103 9.91535L0.361151 13.6347L0.369319 13.634C0.370418 13.729 0.375087 13.8248 0.383443 13.9211L0.613937 16.5771C0.792961 18.64 2.59691 20.1659 4.64316 19.9855C6.68941 19.805 8.2031 17.9864 8.02407 15.9234L7.79358 13.2675C7.61455 11.2046 5.81061 9.67863 3.76436 9.85911C3.20388 9.90854 2.68337 10.0809 2.22666 10.3475Z" fill="black"/>
</svg>
