<svg width="21" height="20" viewBox="0 0 21 20" fill="none" xmlns="http://www.w3.org/2000/svg">
<path d="M6.06133 0.606738C4.94777 -0.31214 3.28912 -0.187546 2.44499 0.982077C2.16933 1.36209 1.87342 1.79661 1.28627 2.53171C0.451712 3.58444 -0.00166702 4.88881 2.86102e-05 6.23222C0.00172615 7.57562 0.458399 8.87884 1.29562 9.92946C2.56959 11.5102 3.90586 13.1035 5.40098 14.5986C6.89455 16.0922 8.48935 17.4284 10.0686 18.704C11.1191 19.5415 12.4223 19.9983 13.7658 20C15.1093 20.0017 16.4137 19.5481 17.4663 18.7133C18.2419 18.0935 18.678 17.8022 19.0705 17.5172C20.198 16.698 20.3522 15.1032 19.4754 14.0177C18.6531 12.9976 17.7171 12.0304 16.8231 11.0866C16.5312 10.7843 16.1348 10.605 15.715 10.5853C15.2952 10.5656 14.8838 10.7071 14.5648 10.9807C14.1521 11.3327 13.8266 11.5975 13.0853 12.2936C10.6277 10.8343 9.13879 9.32674 7.70441 6.91429C8.40525 6.16829 8.67001 5.84279 9.0251 5.4254C9.29846 5.10793 9.43955 4.69765 9.41927 4.27919C9.39898 3.86074 9.21887 3.46603 8.91608 3.17648C7.98941 2.31056 7.04562 1.41816 6.06133 0.606738Z" fill="black"/>
</svg>
