<svg width="142" height="40" viewBox="0 0 142 40" fill="none" xmlns="http://www.w3.org/2000/svg">
<path d="M51.8581 35.8697C49.731 35.8697 47.933 34.1401 47.933 32.0917V27.5305C47.933 22.7523 46.4262 19.596 43.3267 17.881C40.1281 16.1121 37.0446 16.2883 33.9028 18.424C30.7669 20.5467 29.2426 24.1587 29.2426 29.4639V32.0539C29.2426 34.1591 27.5188 35.8712 25.4005 35.8712H25.2593C23.1658 35.8712 21.4639 34.1591 21.4639 32.0539L21.442 15.0217H19.481V16.84H8.11647C4.84368 16.84 3.53776 17.7529 1.67862 19.9338C0 21.9094 0 24.7978 0 28.7942V39.9389L21.4639 39.9985V37.5862H29.2411V40H47.9316V37.5862H55.7088V40H61.5687V0H55.6928V32.0917C55.6928 34.1751 53.9982 35.8697 51.9163 35.8697H51.8566H51.8581ZM17.0846 31.3259H3.58144V30.5572C3.58144 29.4289 4.50009 28.5103 5.62839 28.5103H17.0846V31.3259ZM45.3154 31.3259H31.8107V30.5572C31.8107 29.4289 32.7294 28.5103 33.8577 28.5103H43.267C44.3953 28.5103 45.3139 29.4289 45.3139 30.5572V31.3259H45.3154Z" fill="black"/>
<path d="M113.995 24.4702C113.562 23.0115 112.913 21.7856 112.066 20.8277C111.882 20.6195 111.671 20.4127 111.438 20.2133C109.992 18.9802 107.878 18.3541 105.155 18.3541H79.1294L103.383 4.37925V0.0203822L85.5964 10.3498L83.3631 11.58C81.8198 12.4564 80.7381 13.1232 80.0597 13.6138C79.4002 14.0841 78.8906 14.6664 78.5412 15.3449C78.1947 16.0277 78.0171 16.9361 78.0171 18.044V28.6894H109.218C109.458 28.6894 109.65 28.6981 109.822 28.7185C110.263 28.7709 110.604 28.8728 110.866 29.0271C111.274 29.2673 111.527 29.6939 111.621 30.2937L111.803 31.3419H78.0156V32.0582C78.0156 34.1591 76.3065 35.8697 74.2042 35.8697H74.063C71.9578 35.8697 70.2457 34.1576 70.2457 32.0524V0H64.9609V40H70.2457V37.5862H78.0142V40H114.766V37.5862H122.865V40H141.541L141.557 31.0391V27.5305C141.557 22.8732 139.957 19.6266 136.802 17.881C133.598 16.1121 130.514 16.2883 127.378 18.4226C124.34 20.4783 122.864 23.9811 122.864 29.1334V31.7205C122.864 33.5228 121.412 35.2524 119.488 35.743C118.324 36.0386 117.129 35.7984 116.207 35.0835C115.287 34.3687 114.759 33.2899 114.759 32.1252V29.8104C114.765 28.008 114.507 26.2217 113.996 24.5023L113.986 24.4688L113.995 24.4702ZM125.465 30.5572C125.465 29.4289 126.384 28.5103 127.512 28.5103H136.922C138.05 28.5103 138.969 29.4289 138.969 30.5572V31.3259H125.464V30.5572H125.465Z" fill="black"/>
<path d="M6.55141 11.0195C8.03931 11.0195 9.38453 10.1954 10.0644 8.86915L10.3338 8.34358L10.6031 8.86915C11.2815 10.1954 12.6282 11.0195 14.1161 11.0195C16.2912 11.0195 18.0615 9.24914 18.0615 7.07407C18.0615 4.899 16.2926 3.12866 14.1161 3.12866C12.6282 3.12866 11.283 3.95268 10.6031 5.27898L10.3338 5.80455L10.0644 5.27898C9.38453 3.95268 8.03931 3.12866 6.55141 3.12866C4.37634 3.12866 2.60601 4.899 2.60601 7.07407C2.60601 9.24914 4.37634 11.0195 6.55141 11.0195Z" fill="black"/>
<path d="M138.701 8.46005C138.701 5.99818 138.11 4.29481 136.916 3.34122C135.728 2.3818 134.567 2.43567 133.433 3.48244C132.306 4.53503 131.836 6.35341 132.031 8.9303H137.532V10.2726H125.886V12.6136H138.699V8.46151L138.701 8.46005ZM133.087 6.58926C133.282 5.69099 133.963 5.04167 134.717 5.04167C135.639 5.04167 135.924 5.09409 136.568 5.73758C136.809 5.97925 136.99 6.2748 137.144 6.58926H133.085H133.087Z" fill="black"/>
</svg>
