<svg width="31" height="40" viewBox="0 0 31 40" fill="none" xmlns="http://www.w3.org/2000/svg">
<path fill-rule="evenodd" clip-rule="evenodd" d="M15.5 40C14.1331 40 12.7292 39.9263 11.3992 39.7788C6.19016 39.2627 1.60913 34.5438 1.23969 29.3088C1.01803 26.2488 0.833313 23.1521 0.833313 19.9816C0.833313 16.7742 1.01803 13.7143 1.23969 10.6175C1.83079 2.21198 10.2909 0.40553 11.3992 0.221198C12.5075 0.0368663 14.0961 0 15.5 0C16.9038 0 18.4924 0 19.6007 0.221198C20.709 0.442396 29.1692 2.21198 29.7603 10.6175C29.9819 13.7143 30.1666 16.7742 30.1666 19.9447C30.1666 23.1521 29.9819 26.2488 29.7603 29.3088C29.3908 34.5438 24.8098 39.2627 19.6007 39.7788C18.2708 39.9263 16.8669 40 15.5 40Z" fill="black"/>
</svg>
