<svg width="151" height="50" viewBox="0 0 151 50" fill="none" xmlns="http://www.w3.org/2000/svg">
<rect width="151" height="50" rx="20" fill="black" fill-opacity="0.1"/>
<rect x="5" y="5" width="66" height="40" rx="20" fill="#F2EEC9"/>
<path fill-rule="evenodd" clip-rule="evenodd" d="M39.1111 16.1114C39.1111 15.8167 38.994 15.534 38.7857 15.3255C38.5773 15.1171 38.2947 15 38 15C37.7053 15 37.4227 15.1171 37.2143 15.3255C37.006 15.534 36.8889 15.8167 36.8889 16.1114V33.8886C36.8889 34.1833 37.006 34.466 37.2143 34.6745C37.4227 34.8829 37.7053 35 38 35C38.2947 35 38.5773 34.8829 38.7857 34.6745C38.994 34.466 39.1111 34.1833 39.1111 33.8886V16.1114ZM33.5556 18.4203C33.8502 18.4203 34.1329 18.5374 34.3412 18.7458C34.5496 18.9542 34.6667 19.2369 34.6667 19.5317V30.4713C34.6667 30.766 34.5496 31.0487 34.3412 31.2572C34.1329 31.4656 33.8502 31.5827 33.5556 31.5827C33.2609 31.5827 32.9783 31.4656 32.7699 31.2572C32.5615 31.0487 32.4444 30.766 32.4444 30.4713V19.5302C32.4444 19.2355 32.5615 18.9528 32.7699 18.7443C32.9783 18.5359 33.2609 18.4203 33.5556 18.4203ZM29.1111 21.8376C29.4058 21.8376 29.6884 21.9547 29.8968 22.1631C30.1052 22.3716 30.2222 22.6542 30.2222 22.949V27.051C30.2222 27.1969 30.1935 27.3415 30.1376 27.4763C30.0818 27.6112 30 27.7337 29.8968 27.8369C29.7936 27.9401 29.6711 28.022 29.5363 28.0778C29.4015 28.1337 29.257 28.1624 29.1111 28.1624C28.9652 28.1624 28.8207 28.1337 28.6859 28.0778C28.5511 28.022 28.4286 27.9401 28.3254 27.8369C28.2223 27.7337 28.1404 27.6112 28.0846 27.4763C28.0287 27.3415 28 27.1969 28 27.051V22.949C28 22.6542 28.1171 22.3716 28.3254 22.1631C28.5338 21.9547 28.8164 21.8376 29.1111 21.8376ZM42.4444 18.4188C42.7391 18.4188 43.0217 18.5359 43.2301 18.7443C43.4385 18.9528 43.5556 19.2355 43.5556 19.5302V30.4698C43.5556 30.7645 43.4385 31.0472 43.2301 31.2557C43.0217 31.4641 42.7391 31.5812 42.4444 31.5812C42.1498 31.5812 41.8671 31.4641 41.6588 31.2557C41.4504 31.0472 41.3333 30.7645 41.3333 30.4698V19.5302C41.3333 19.2355 41.4504 18.9528 41.6588 18.7443C41.8671 18.5359 42.1498 18.4188 42.4444 18.4188ZM48 22.949C48 22.6542 47.8829 22.3716 47.6746 22.1631C47.4662 21.9547 47.1836 21.8376 46.8889 21.8376C46.5942 21.8376 46.3116 21.9547 46.1032 22.1631C45.8948 22.3716 45.7778 22.6542 45.7778 22.949V27.051C45.7778 27.3457 45.8948 27.6284 46.1032 27.8369C46.3116 28.0453 46.5942 28.1624 46.8889 28.1624C47.1836 28.1624 47.4662 28.0453 47.6746 27.8369C47.8829 27.6284 48 27.3457 48 27.051V22.949Z" fill="#E56E53"/>
<path d="M93.398 31.44C89.383 31.44 87.3663 30.01 87.3663 27.2967C87.3663 26.3617 87.6047 25.4633 87.9897 24.5283L89.2547 24.785C89.0347 25.4817 88.9063 26.105 88.9063 26.875C88.9063 28.58 90.3547 29.2767 93.673 29.2767C97.193 29.2767 99.833 28.6533 99.833 27.5167C99.833 26.4167 99.503 25.17 99.1547 23.9967L100.97 23.7033C101.226 24.9133 101.373 26.325 101.373 27.37C101.373 28.6167 100.988 29.405 100.255 29.9183C99.4663 30.4683 97.3763 31.44 93.398 31.44ZM92.9397 23.5933L91.5097 22.31L92.7197 20.8617L94.1497 22.1633L92.9397 23.5933ZM95.653 23.5933L94.223 22.31L95.433 20.8617L96.863 22.1633L95.653 23.5933ZM103.763 35.9133L103.177 34.025C106.275 33.6767 107.815 32.5217 108.365 31H106.513C104.808 30.9817 103.672 30.0467 103.672 28.305C103.672 26.16 105.212 24.29 106.825 24.29C108.585 24.29 110.015 26.1783 110.015 28.8183V28.8733C110.565 28.8367 110.95 28.8367 111.005 28.8367C111.628 28.8367 112.105 29.3133 112.105 29.9183C112.105 30.5417 111.647 31 111.005 31H109.777C109.117 33.6767 107.21 35.4733 103.763 35.9133ZM106.825 28.9283C107.467 28.9283 107.888 28.91 108.695 28.8917C108.585 27.2233 107.558 26.2333 106.587 26.2333C105.762 26.2333 104.992 26.9667 104.992 27.81C104.992 28.58 105.743 28.9283 106.825 28.9283ZM111 31C110.377 31 109.9 30.56 109.9 29.9C109.9 29.2583 110.377 28.8367 111 28.8367C111.843 28.8367 112.705 28.4333 113.072 27.37C113.347 26.5817 113.383 26.1783 113.457 25.4817L114.997 25.5733C114.96 26.1233 114.942 26.4533 114.942 26.82C114.942 27.7733 115.125 28.1767 115.693 28.5067C117.692 25.0967 119.782 23.7767 121.853 23.7767C123.76 23.7767 125.3 25.6467 125.3 27.1683C125.3 27.7183 125.153 28.3233 124.622 28.8917L125.85 28.8367H126.125C126.748 28.8367 127.225 29.3133 127.225 29.9183C127.225 30.56 126.748 31 126.125 31H119.415C115.785 31 114.465 30.67 113.915 29.3867C113.237 30.505 112.265 31 111 31ZM119.672 28.9467C122.862 28.9467 123.943 28.3417 123.943 27.3883C123.943 26.6367 122.972 25.7567 121.56 25.7567C120.35 25.7567 118.718 26.4167 116.995 28.8367C117.875 28.9467 118.608 28.9467 119.672 28.9467ZM126.125 31C125.483 31 125.025 30.505 125.025 29.9C125.025 29.2583 125.483 28.8367 126.125 28.8367C127.097 28.8367 127.628 28.2683 127.628 26.765L127.5 18.02L129.388 17.91V26.9667C129.388 29.6983 128.252 31 126.125 31ZM132.382 31.055L132.162 18.02L134.05 17.91V31L132.382 31.055Z" fill="black"/>
</svg>
