<svg width="66" height="40" viewBox="0 0 66 40" fill="none" xmlns="http://www.w3.org/2000/svg">
<rect width="66" height="40" rx="20" fill="black"/>
<path fill-rule="evenodd" clip-rule="evenodd" d="M27.2658 10.3102C29.1138 10.145 31.0338 10 33 10C34.9662 10 36.8862 10.1432 38.7323 10.312C41.8117 10.5874 44.3742 12.9901 44.736 16.0683C44.8874 17.3385 45 18.6527 45 20C45 21.3473 44.8855 22.6615 44.736 23.9317C44.3742 27.0099 41.8117 29.4108 38.7323 29.6898C36.8862 29.855 34.9662 30 33 30C31.0338 30 29.1138 29.8568 27.2658 29.688C24.1883 29.4145 21.6277 27.0117 21.2622 23.9336C21.0978 22.6286 21.0103 21.3151 21 20C21 18.6527 21.1145 17.3385 21.2622 16.0683C21.6258 12.9901 24.1883 10.5892 27.2658 10.3102ZM37.8628 20C37.8628 21.3656 34.2646 23.4967 31.6818 24.8513C30.4911 25.4754 29.1065 24.5999 29.1065 23.2617V16.7383C29.1065 15.3983 30.4911 14.5246 31.6818 15.1487C34.2646 16.5033 37.8628 18.6362 37.8628 20Z" fill="#F2EEC9"/>
</svg>
