<svg width="139" height="27" viewBox="0 0 139 27" fill="none" xmlns="http://www.w3.org/2000/svg">
<g opacity="0.5">
<path d="M8.79893 18C7.36893 18 6.23227 17.23 5.93893 15.7817C5.16893 16.2583 4.41727 16.515 3.46393 16.515C2.10727 16.515 1.09893 15.6717 1.09893 14.15C1.09893 12.2067 2.47393 10.5933 5.49893 9.695L5.4806 8.485L7.33227 8.35667V14.2233C7.33227 15.4883 8.0656 15.8367 8.79893 15.8367C9.42227 15.8367 9.91727 16.3133 9.91727 16.9183C9.91727 17.56 9.42227 18 8.79893 18ZM3.5556 14.535C4.2706 14.535 4.94893 14.37 5.5906 13.985L5.57227 11.62C3.68393 11.9317 2.4006 12.83 2.4006 13.71C2.4006 14.2967 2.8406 14.535 3.5556 14.535ZM4.03227 7.25667L2.60227 5.97333L3.81227 4.525L5.24227 5.82667L4.03227 7.25667ZM6.7456 7.25667L5.3156 5.97333L6.5256 4.525L7.9556 5.82667L6.7456 7.25667ZM8.79492 18C8.15326 18 7.69492 17.5417 7.69492 16.9367C7.69492 16.2583 8.15326 15.8367 8.79492 15.8367C9.87659 15.8367 10.3716 15.195 10.9216 14.0583C12.0583 11.8767 12.8833 11.07 14.2216 11.07C15.6516 11.07 17.3016 12.8483 17.3016 15.0117C17.3016 16.8267 16.2566 18 14.6983 18C13.5799 18 12.2599 17.3583 11.5083 16.1117C10.7566 17.5417 10.0233 18 8.79492 18ZM14.7899 16.0933C15.4316 16.0933 15.7983 15.7267 15.7983 15.14C15.7983 14.0583 14.6799 13.0133 13.9833 13.0133C13.2316 13.0133 12.7549 13.5267 12.3149 14.6267C12.8283 15.6533 14.0566 16.0933 14.7899 16.0933ZM21.9949 18.2017C20.8766 18.2017 20.1616 18.1467 19.3916 17.9267L19.1533 15.8183C19.8499 15.965 20.6016 16.0567 21.9033 16.0567C23.8099 16.0567 24.5983 15.58 24.5983 14.8833C24.5983 14.205 24.2866 13.16 24.1033 12.335C23.8466 11.235 23.5716 10.1717 23.3149 9.01667L25.0383 8.76C25.4416 10.74 25.8999 12.8117 26.2116 13.9483C26.6149 15.4883 27.5866 15.8367 28.3933 15.8367C29.0166 15.8367 29.5116 16.3133 29.5116 16.9183C29.5116 17.5417 29.0349 18 28.3933 18C27.2933 18 26.3949 17.6517 25.6249 16.57C25.5516 16.7167 25.4599 16.8633 25.3499 17.01C24.7083 17.835 23.5716 18.2017 21.9949 18.2017ZM28.3887 18C27.7103 18 27.2887 17.6517 27.2887 16.9183C27.2887 16.185 27.7103 15.8367 28.3887 15.8367C29.3237 15.8367 30.167 15.7267 30.8637 15.5617C30.0387 14.755 29.672 13.8017 29.672 12.9033C29.672 10.905 31.2487 9.23667 32.807 9.23667C34.2737 9.23667 35.7037 10.9417 35.7037 12.7567C35.7037 13.7467 35.2453 14.7367 34.402 15.5617C35.0987 15.7267 35.942 15.8367 36.9503 15.8367C37.647 15.8367 38.0687 16.185 38.0687 16.9183C38.0687 17.6333 37.647 18 36.9503 18C35.172 18 33.7053 17.6517 32.587 17.0467C31.4687 17.6517 30.0203 18 28.3887 18ZM32.642 15.14C33.7787 14.59 34.402 13.8567 34.402 13.1783C34.402 12.0967 33.5037 11.2167 32.752 11.2167C31.8903 11.2167 30.992 12.1333 30.992 13.05C30.992 13.71 31.4687 14.5533 32.642 15.14ZM31.3587 7.88L29.9287 6.59667L31.1387 5.14833L32.5687 6.45L31.3587 7.88ZM34.072 7.88L32.642 6.59667L33.852 5.14833L35.282 6.45L34.072 7.88ZM42.8643 18.22C41.7459 18.22 40.4259 17.5783 39.6743 16.3317C38.9593 17.5783 38.1526 18 36.9609 18C36.3193 18 35.8609 17.5417 35.8609 16.9367C35.8609 16.2583 36.3193 15.8367 36.9609 15.8367C38.0426 15.8367 38.5926 15.305 39.0876 14.2783C40.2243 12.0967 41.0493 11.29 42.3876 11.29C43.5609 11.29 44.8626 12.4817 45.3026 14.0767C45.7059 15.415 46.4576 15.8367 47.4659 15.8367C48.0893 15.8367 48.5659 16.3133 48.5659 16.9183C48.5659 17.5233 48.0893 18 47.4659 18C46.5309 18 45.6876 17.5783 45.1009 16.7167C44.7159 17.6333 43.9643 18.22 42.8643 18.22ZM42.9559 16.3133C43.5976 16.3133 43.9643 15.9467 43.9643 15.36C43.9643 14.2783 42.8459 13.2333 42.1493 13.2333C41.3976 13.2333 40.9209 13.7467 40.4809 14.8467C40.9943 15.8733 42.2226 16.3133 42.9559 16.3133ZM47.4668 18C46.8251 18 46.3668 17.505 46.3668 16.9C46.3668 16.2583 46.8251 15.8367 47.4668 15.8367C48.4385 15.8367 48.9701 15.2683 48.9701 13.765L48.8418 5.02L50.7301 4.91V13.9667C50.7301 16.6983 49.5935 18 47.4668 18ZM53.7239 18.055L53.5039 5.02L55.3922 4.91V18L53.7239 18.055ZM67.3931 22.73C63.9281 22.73 62.3331 21.0617 62.3331 18.4033C62.3331 17.1933 62.6081 16.3317 63.0665 15.305L64.3131 15.58C64.0015 16.4233 63.8731 17.0467 63.8731 17.9633C63.8731 19.76 64.8998 20.64 67.6131 20.64C70.1431 20.64 71.8665 19.65 71.8665 18.715C71.8665 18.0733 71.3348 17.8717 70.5465 17.6517C70.1798 17.56 69.8131 17.4683 69.4098 17.34L70.0515 15.3967C71.2981 15.745 72.2148 15.8367 73.9748 15.8367C74.5981 15.8367 75.0748 16.3133 75.0748 16.9183C75.0748 17.5417 74.5981 18 73.9748 18H73.3331C73.3698 18.1283 73.3881 18.275 73.3881 18.44C73.3881 20.64 71.0965 22.73 67.3931 22.73ZM66.8798 26.6167L65.4498 25.3333L66.6598 23.885L68.0898 25.1867L66.8798 26.6167ZM69.5931 26.6167L68.1631 25.3333L69.3731 23.885L70.8031 25.1867L69.5931 26.6167ZM73.9785 18C73.3368 18 72.8785 17.5417 72.8785 16.9C72.8785 16.2767 73.3368 15.8367 73.9785 15.8367H74.8952C75.0602 15.58 75.2435 15.2867 75.4268 15.03L75.2802 5.02L77.1502 4.91V11.4L77.0952 13.0133C78.6718 11.3817 80.2485 10.7767 81.6235 10.7767C83.5302 10.7767 85.0885 12.6467 85.0885 14.1683C85.0885 14.7183 84.9418 15.3233 84.3918 15.8917L85.4002 15.8367H85.8952C86.5185 15.8367 86.9952 16.3133 86.9952 16.9183C86.9952 17.56 86.5185 18 85.8952 18H73.9785ZM79.0935 15.9467C82.5585 15.9467 83.7318 15.3417 83.7318 14.3883C83.7318 13.6367 82.7418 12.7567 81.3485 12.7567C79.9918 12.7567 78.2135 13.5267 76.4718 15.9283C77.3152 15.9467 78.2318 15.9467 79.0935 15.9467ZM85.9023 18C85.2607 18 84.784 17.5233 84.784 16.9C84.784 16.2583 85.2607 15.8367 85.9023 15.8367C88.9823 15.8367 91.7873 13.7467 93.7307 13.0867C91.549 12.115 90.7423 11.9867 90.009 11.9867C88.9273 11.9867 88.3223 12.2983 87.9923 13.0867L86.7823 12.445C87.259 10.9233 88.304 10.0433 89.9907 10.0433C91.274 10.0433 92.1173 10.5933 96.9023 12.3717L96.389 14.095C96.2423 14.0767 96.004 14.0217 95.729 14.0217C95.5273 14.0217 95.1973 14.0767 94.8857 14.1683C94.9773 15.4517 95.949 15.8367 97.7457 15.8367H98.2957C99.0107 15.8367 99.3957 16.3133 99.3957 16.9183C99.3957 17.5417 99.0107 18 98.2957 18H97.709C95.2523 18 93.6207 16.79 93.6207 14.7917C93.6207 14.7733 93.6207 14.755 93.6207 14.755C91.439 15.9833 88.799 18 85.9023 18ZM92.1907 9.01667L90.5957 7.605L91.934 5.99167L93.529 7.44L92.1907 9.01667ZM98.2988 18C97.6205 18 97.1622 17.56 97.1622 16.8267C97.1622 16.2583 97.6388 15.8367 98.2988 15.8367C100.315 15.8367 101.159 15.4333 101.159 14.755C101.159 13.6 100.865 11.7667 100.499 10.5017L102.35 10.1167C102.589 11.345 102.772 13.0683 102.772 14.4983C102.772 15.4517 102.46 16.185 101.929 16.7533C101.14 17.6517 99.8755 18 98.2988 18ZM100.095 8.46667L98.6655 7.18333L99.8755 5.735L101.305 7.03667L100.095 8.46667ZM102.809 8.46667L101.379 7.18333L102.589 5.735L104.019 7.03667L102.809 8.46667Z" fill="black"/>
<path fill-rule="evenodd" clip-rule="evenodd" d="M135.433 17.2041C135.433 18.1178 136.241 18.8754 137.216 18.8754C138.191 18.8754 139 18.1178 139 17.2041V6.79755C139 5.88391 138.191 5.12626 137.216 5.12626C136.241 5.12626 135.433 5.88391 135.433 6.79755V17.2041Z" fill="black"/>
<path fill-rule="evenodd" clip-rule="evenodd" d="M119.571 17.2264C119.309 15.5997 119 13.4604 119 12.012C119 10.5635 119.285 8.40199 119.571 6.77527C119.761 5.50508 121.093 4.70286 122.401 5.10397C126.182 6.26274 129.702 8.06773 132.103 10.8532C132.674 11.5217 132.674 12.4799 132.103 13.1485C129.725 15.934 126.182 17.739 122.401 18.8977C121.093 19.2988 119.761 18.4743 119.571 17.2264Z" fill="black"/>
</g>
</svg>
