<svg width="231" height="50" viewBox="0 0 231 50" fill="none" xmlns="http://www.w3.org/2000/svg">
<rect width="231" height="50" rx="20" fill="black" fill-opacity="0.1"/>
<rect x="5" y="5" width="66" height="40" rx="20" fill="black"/>
<path fill-rule="evenodd" clip-rule="evenodd" d="M32.2658 15.3102C34.1138 15.145 36.0338 15 38 15C39.9662 15 41.8862 15.1432 43.7323 15.312C46.8117 15.5874 49.3742 17.9901 49.736 21.0683C49.8874 22.3385 50 23.6527 50 25C50 26.3473 49.8855 27.6615 49.736 28.9317C49.3742 32.0099 46.8117 34.4108 43.7323 34.6898C41.8862 34.855 39.9662 35 38 35C36.0338 35 34.1138 34.8568 32.2658 34.688C29.1883 34.4145 26.6277 32.0117 26.2622 28.9336C26.0978 27.6286 26.0103 26.3151 26 25C26 23.6527 26.1145 22.3385 26.2622 21.0683C26.6258 17.9901 29.1883 15.5892 32.2658 15.3102ZM42.8628 25C42.8628 26.3656 39.2646 28.4967 36.6818 29.8513C35.4911 30.4754 34.1065 29.5999 34.1065 28.2617V21.7383C34.1065 20.3983 35.4911 19.5246 36.6818 20.1487C39.2646 21.5033 42.8628 23.6362 42.8628 25Z" fill="#F2EEC9"/>
<path d="M99.9034 31C98.4734 31 97.3368 30.23 97.0434 28.7817C96.2734 29.2583 95.5218 29.515 94.5684 29.515C93.2118 29.515 92.2034 28.6717 92.2034 27.15C92.2034 25.2067 93.5784 23.5933 96.6034 22.695L96.5851 21.485L98.4368 21.3567V27.2233C98.4368 28.4883 99.1701 28.8367 99.9034 28.8367C100.527 28.8367 101.022 29.3133 101.022 29.9183C101.022 30.56 100.527 31 99.9034 31ZM94.6601 27.535C95.3751 27.535 96.0534 27.37 96.6951 26.985L96.6768 24.62C94.7884 24.9317 93.5051 25.83 93.5051 26.71C93.5051 27.2967 93.9451 27.535 94.6601 27.535ZM95.1368 20.2567L93.7068 18.9733L94.9168 17.525L96.3468 18.8267L95.1368 20.2567ZM97.8501 20.2567L96.4201 18.9733L97.6301 17.525L99.0601 18.8267L97.8501 20.2567ZM99.8994 31C99.2211 31 98.7627 30.56 98.7627 29.8267C98.7627 29.2583 99.2394 28.8367 99.8994 28.8367C101.916 28.8367 102.759 28.4333 102.759 27.755C102.759 26.6 102.466 24.7667 102.099 23.5017L103.951 23.1167C104.189 24.345 104.373 26.0683 104.373 27.4983C104.373 28.4517 104.061 29.185 103.529 29.7533C102.741 30.6517 101.476 31 99.8994 31ZM102.668 35.4917L101.073 34.08L102.411 32.4667L104.006 33.915L102.668 35.4917ZM105.601 35.8767L104.996 33.9883C108.168 33.3283 109.451 31.5867 109.451 29.68C109.451 28.69 109.066 27.205 108.571 25.8483L110.569 25.3533C110.734 26.105 110.863 26.71 110.973 27.26C111.174 28.195 111.798 28.8367 112.788 28.8367C113.411 28.8367 113.888 29.3133 113.888 29.9183C113.888 30.5417 113.411 31 112.788 31C112.164 31 111.523 30.78 111.083 30.2117C110.734 33.035 108.791 35.2717 105.601 35.8767ZM112.79 31C112.148 31 111.672 30.5233 111.672 29.9C111.672 29.2583 112.148 28.8367 112.79 28.8367C115.87 28.8367 118.675 26.7467 120.618 26.0867C118.437 25.115 117.63 24.9867 116.897 24.9867C115.815 24.9867 115.21 25.2983 114.88 26.0867L113.67 25.445C114.147 23.9233 115.192 23.0433 116.878 23.0433C118.162 23.0433 119.005 23.5933 123.79 25.3717L123.277 27.095C123.13 27.0767 122.892 27.0217 122.617 27.0217C122.415 27.0217 122.085 27.0767 121.773 27.1683C121.865 28.4517 122.837 28.8367 124.633 28.8367H125.183C125.898 28.8367 126.283 29.3133 126.283 29.9183C126.283 30.5417 125.898 31 125.183 31H124.597C122.14 31 120.508 29.79 120.508 27.7917C120.508 27.7733 120.508 27.755 120.508 27.755C118.327 28.9833 115.687 31 112.79 31ZM118.712 35.125L117.117 33.7133L118.455 32.1L120.05 33.5483L118.712 35.125ZM125.187 31C124.563 31 124.087 30.56 124.087 29.9C124.087 29.2583 124.563 28.8367 125.187 28.8367C126.03 28.8367 126.892 28.415 127.258 27.37C127.533 26.5817 127.57 26.1783 127.643 25.4817L129.183 25.5733C129.147 26.1233 129.128 26.6183 129.128 27.04C129.128 28.2867 129.972 28.8367 131.218 28.8367C131.842 28.8367 132.318 29.2583 132.318 29.9C132.318 30.56 131.842 31 131.218 31C129.605 31 128.542 30.505 128.083 29.405C127.405 30.505 126.452 31 125.187 31ZM127.093 23.8867L125.663 22.6033L126.873 21.155L128.303 22.4567L127.093 23.8867ZM129.807 23.8867L128.377 22.6033L129.587 21.155L131.017 22.4567L129.807 23.8867ZM131.224 31C130.582 31 130.124 30.505 130.124 29.9C130.124 29.2583 130.582 28.8367 131.224 28.8367C132.195 28.8367 132.727 28.2683 132.727 26.765L132.599 18.02L134.487 17.91V26.9667C134.487 29.6983 133.35 31 131.224 31ZM137.481 31.055L137.261 18.02L139.149 17.91V31L137.481 31.055ZM146.805 31.055L146.585 18.02L148.473 17.91V31L146.805 31.055ZM145.338 17.3967L145.412 16.3333C145.595 16.2417 145.87 16.1683 146.31 16.095C145.925 15.82 145.705 15.4167 145.705 14.9767C145.705 14.0783 146.512 13.4183 147.557 13.4183C148.107 13.4183 148.51 13.565 148.932 13.8767L148.492 14.72C148.217 14.5367 147.868 14.4633 147.557 14.4633C147.043 14.4633 146.64 14.72 146.64 15.16C146.64 15.5633 146.952 15.93 147.685 15.93C148.107 15.93 148.748 15.8383 149.243 15.8383L149.17 16.8833C148.033 16.8833 146.053 17.14 145.338 17.3967ZM153.512 31.2017C152.393 31.2017 151.678 31.1467 150.908 30.9267L150.67 28.8183C151.367 28.965 152.118 29.0567 153.42 29.0567C155.327 29.0567 156.115 28.58 156.115 27.8833C156.115 27.205 155.803 26.16 155.62 25.335C155.363 24.235 155.088 23.1717 154.832 22.0167L156.555 21.76C156.958 23.74 157.417 25.8117 157.728 26.9483C158.132 28.4883 159.103 28.8367 159.91 28.8367C160.533 28.8367 161.028 29.3133 161.028 29.9183C161.028 30.5417 160.552 31 159.91 31C158.81 31 157.912 30.6517 157.142 29.57C157.068 29.7167 156.977 29.8633 156.867 30.01C156.225 30.835 155.088 31.2017 153.512 31.2017ZM159.905 31L159.667 28.8367H164.965C165.589 28.8367 166.065 29.3133 166.065 29.9183C166.065 30.56 165.589 31 164.965 31H159.905ZM164.976 31L164.737 28.8367H170.036C170.659 28.8367 171.136 29.3133 171.136 29.9183C171.136 30.56 170.659 31 170.036 31H164.976ZM170.046 31L169.808 28.8367H175.106C175.729 28.8367 176.206 29.3133 176.206 29.9183C176.206 30.56 175.729 31 175.106 31H170.046ZM175.116 31L174.878 28.8367H180.176C180.8 28.8367 181.276 29.3133 181.276 29.9183C181.276 30.56 180.8 31 180.176 31H175.116ZM180.187 31L179.948 28.8367H185.247C185.87 28.8367 186.347 29.3133 186.347 29.9183C186.347 30.56 185.87 31 185.247 31H180.187ZM185.257 31L185.019 28.8367H190.317C190.94 28.8367 191.417 29.3133 191.417 29.9183C191.417 30.56 190.94 31 190.317 31H185.257ZM190.327 31L190.089 28.8367H195.387C196.01 28.8367 196.487 29.3133 196.487 29.9183C196.487 30.56 196.01 31 195.387 31H190.327ZM195.397 31L195.159 28.8367H200.457C201.081 28.8367 201.557 29.3133 201.557 29.9183C201.557 30.56 201.081 31 200.457 31H195.397ZM200.468 31C199.789 31 199.331 30.56 199.331 29.8267C199.331 29.2583 199.808 28.8367 200.468 28.8367C202.484 28.8367 203.328 28.4333 203.328 27.755C203.328 26.6 203.034 24.7667 202.668 23.5017L204.519 23.1167C204.758 24.345 204.941 26.0683 204.941 27.4983C204.941 28.4517 204.629 29.185 204.098 29.7533C203.309 30.6517 202.044 31 200.468 31ZM203.236 35.4917L201.641 34.08L202.979 32.4667L204.574 33.915L203.236 35.4917ZM207.692 31.055L207.472 18.02L209.36 17.91V31L207.692 31.055Z" fill="black"/>
</svg>
