<svg width="23" height="20" viewBox="0 0 23 20" fill="none" xmlns="http://www.w3.org/2000/svg">
<path fill-rule="evenodd" clip-rule="evenodd" d="M3.91762 19.4831C3.11696 19.3975 2.36853 19.0445 1.79328 18.4811C1.21804 17.9176 0.849584 17.1767 0.747471 16.378C0.490709 14.3153 0.233948 12.1842 0.233948 10C0.233948 8.39267 0.374311 6.81274 0.548908 5.27046C0.557513 5.19494 0.586154 5.1231 0.631864 5.06238C0.677573 5.00165 0.738688 4.95426 0.808877 4.9251C0.879065 4.89594 0.955774 4.88608 1.03105 4.89654C1.10634 4.907 1.17745 4.9374 1.23703 4.98459L8.54103 10.7446C9.33361 11.3693 10.3134 11.7091 11.3226 11.7091C12.3318 11.7091 13.3116 11.3693 14.1042 10.7446L21.4099 4.98459C21.4695 4.93785 21.5405 4.90783 21.6155 4.89762C21.6905 4.8874 21.7669 4.89737 21.8368 4.92648C21.9068 4.9556 21.9676 5.00281 22.0132 5.06327C22.0589 5.12372 22.0875 5.19524 22.0963 5.27046C22.2709 6.81274 22.4113 8.39267 22.4113 10C22.4113 12.1842 22.1545 14.317 21.8978 16.378C21.7956 17.1767 21.4272 17.9176 20.8519 18.4811C20.2767 19.0445 19.5283 19.3975 18.7276 19.4831L18.4982 19.507C16.1805 19.7484 13.7807 20 11.3226 20C8.86455 20 6.46469 19.7484 4.14699 19.507L3.91762 19.4831ZM21.2165 1.93598C21.2763 2.01987 21.3008 2.12385 21.2848 2.22562C21.2688 2.32738 21.2135 2.41882 21.1309 2.48032L12.7793 9.06368C12.3645 9.39133 11.8513 9.56956 11.3226 9.56956C10.794 9.56956 10.2808 9.39133 9.86592 9.06368L1.51433 2.48032C1.43169 2.41882 1.37644 2.32738 1.36044 2.22562C1.34444 2.12385 1.36896 2.01987 1.42874 1.93598C1.72327 1.54041 2.0964 1.21 2.5247 0.965502C2.95301 0.721008 3.42724 0.56771 3.91762 0.515234L4.14699 0.492982C6.46469 0.249914 8.86455 0 11.3226 0C13.7807 0 16.1805 0.249914 18.4982 0.492982L18.7276 0.516946C19.2179 0.569214 19.692 0.722247 20.1203 0.966442C20.5486 1.21064 20.9218 1.54072 21.2165 1.93598Z" fill="black"/>
</svg>
