<svg width="21" height="20" viewBox="0 0 21 20" fill="none" xmlns="http://www.w3.org/2000/svg">
<path d="M20.069 5.01805C19.9334 3.70157 19.4236 2.5368 18.4366 1.60327C17.3976 0.620801 16.1272 0.18646 14.7346 0.11305C12.361 -0.0154176 6.72499 -0.0961683 4.74621 0.223165C2.48527 0.587767 1.003 1.89569 0.376913 4.109C-0.103855 5.81088 -0.00818792 13.6584 0.272765 15.3407C0.655442 17.6421 2.02751 19.1176 4.32962 19.7049C5.92209 20.1124 13.75 20.0597 15.5072 19.7783C17.8311 19.4064 19.3267 18.0532 19.931 15.7775C20.3924 14.0303 20.2313 6.59392 20.069 5.01805ZM18.2101 15.0165C17.9401 16.7649 16.769 17.8464 14.9961 18.0385C13.3673 18.2159 6.09285 18.3126 4.58273 17.8941C3.138 17.4941 2.31088 16.5091 2.0711 15.0679C1.84223 13.6914 1.78531 6.8117 2.06868 4.97034C2.3351 3.23786 3.50493 2.15629 5.26815 1.96176C7.0568 1.76355 13.4945 1.74153 15.2081 2.00091C16.9677 2.26885 18.0588 3.43118 18.2525 5.19057C18.433 6.8325 18.4838 13.251 18.2114 15.0153L18.2101 15.0165ZM10.1376 4.87246C7.27842 4.87123 4.95814 7.16652 4.95693 10.0001C4.95572 12.8338 7.27236 15.1315 10.1315 15.1339C12.9907 15.1352 15.311 12.8399 15.3122 10.0063C15.3134 7.17264 12.9968 4.87491 10.1376 4.87246ZM10.1025 13.317C8.25328 13.3011 6.76738 11.8024 6.78433 9.96955C6.80128 8.13675 8.31383 6.66488 10.163 6.68201C12.0122 6.69792 13.4981 8.1967 13.4812 10.0295C13.4642 11.8623 11.9517 13.3342 10.1025 13.317ZM16.7303 4.67792C16.7291 5.34106 16.1841 5.87817 15.5144 5.87573C14.8448 5.8745 14.3034 5.33494 14.3047 4.6718C14.3059 4.00867 14.8508 3.47155 15.5205 3.474C16.1902 3.47522 16.7315 4.01479 16.7303 4.67792Z" fill="black"/>
</svg>
