<svg width="951" height="951" viewBox="0 0 951 951" fill="none" xmlns="http://www.w3.org/2000/svg">
<path d="M296.839 65.5067L294.414 60.0749C243.754 82.1439 196.458 113.727 155.158 155.03C113.858 196.332 82.1736 243.733 60.1058 294.396L65.5373 296.821C87.2294 246.91 118.538 200.09 159.377 159.249C200.216 118.407 246.948 87.1829 296.857 65.4896L296.839 65.5067ZM890.894 656.587L885.463 654.162C863.771 704.073 832.548 750.807 791.709 791.649C750.87 832.49 704.035 863.817 654.143 885.493L656.569 890.925C707.229 868.856 754.61 837.188 795.927 795.868C837.245 754.548 868.826 707.25 890.877 656.604L890.894 656.587ZM159.377 791.666C122.927 755.215 94.1298 714.083 72.9331 670.064L67.6894 672.678C89.0911 717.277 118.264 758.955 155.175 795.868C192.086 832.781 233.779 861.938 278.359 883.358L280.972 878.114C236.939 856.899 195.826 828.117 159.377 791.666ZM795.945 155.064C759.017 118.134 717.341 88.9935 672.761 67.5735L670.148 72.8175C714.181 94.0324 755.293 122.814 791.743 159.266C828.192 195.717 856.973 236.832 878.186 280.867L883.43 278.254C862.028 233.655 832.855 191.976 795.945 155.064Z" fill="url(#paint0_radial_1_6807)"/>
<path d="M206.553 206.461C241.226 171.786 281.04 145.225 323.57 126.811L320.667 120.184C277.3 138.888 236.734 165.996 201.412 201.32C166.089 236.644 138.88 277.315 120.194 320.667L127.009 323.554C145.337 280.936 171.863 241.119 206.553 206.427V206.461ZM830.789 630.333L824.161 627.429C805.749 669.962 779.206 709.761 744.516 744.453C709.825 779.145 670.028 805.69 627.396 824.001L630.282 830.816C673.649 812.112 714.215 785.004 749.623 749.595C785.03 714.185 812.051 673.703 830.754 630.333H830.789ZM206.57 744.47C175.637 713.536 151.042 678.485 133.193 640.992L126.463 644.169C144.773 682.294 169.83 718.011 201.412 749.595C232.993 781.178 268.708 806.236 306.831 824.547L310.009 817.817C272.517 799.967 237.485 775.387 206.553 744.453L206.57 744.47ZM749.691 201.32C718.092 169.72 682.394 144.678 644.271 126.367L640.992 132.995C678.483 150.845 713.515 175.425 744.55 206.461C775.585 237.498 800.163 272.532 818.012 310.025L824.657 306.763C806.329 268.62 781.29 232.92 749.708 201.337L749.691 201.32Z" fill="url(#paint1_radial_1_6807)"/>
<path d="M350.216 188.031L346.748 180.088C310.777 195.7 277.026 218.213 247.665 247.576C218.304 276.939 195.69 310.76 180.181 346.835L188.021 350.2C203.154 315.047 225.119 282.251 253.729 253.64C282.338 225.029 315.03 203.165 350.181 188.031H350.216ZM770.888 604.25L762.945 600.783C747.812 635.936 725.932 668.647 697.34 697.241C668.747 725.835 635.936 747.818 600.784 762.952L604.149 770.793C640.223 755.283 673.957 732.753 703.403 703.304C732.85 673.856 755.276 640.223 770.888 604.216V604.25ZM253.78 697.258C228.262 671.738 207.987 642.854 193.213 612.022L185.458 615.677C200.694 647.346 221.447 677.085 247.716 703.356C273.986 729.627 303.706 750.363 335.39 765.617L339.028 757.845C308.181 743.087 279.315 722.794 253.797 697.275L253.78 697.258ZM703.42 247.593C677.151 221.322 647.431 200.585 615.747 185.332L612.006 193.001C642.836 207.947 671.822 228.155 697.34 253.674C722.858 279.193 743.047 308.163 758.009 339.012L765.678 335.271C750.443 303.568 729.69 273.864 703.42 247.593Z" fill="url(#paint2_radial_1_6807)"/>
<path d="M376.946 249.165L372.932 240.094C344.237 252.53 317.319 270.465 293.953 293.832C270.587 317.199 252.55 344.222 240.116 372.918L249.271 376.847C261.142 349.261 278.444 323.383 300.956 300.87C323.468 278.356 349.379 261.053 376.929 249.182L376.946 249.165ZM710.901 578.082L701.832 574.068C689.961 601.654 672.659 627.532 650.147 650.045C627.635 672.558 601.724 689.861 574.173 701.733L578.102 710.889C606.797 698.453 633.715 680.518 657.184 657.048C680.652 633.579 698.484 606.761 710.919 578.065L710.901 578.082ZM300.973 650.062C280.886 629.974 264.899 607.256 253.302 582.95L244.42 587.152C256.462 612.483 273.029 636.124 293.97 657.065C314.91 678.007 338.55 694.542 363.863 706.601L368.065 697.719C343.759 686.121 321.059 670.15 300.956 650.045L300.973 650.062ZM657.167 293.849C636.226 272.908 612.587 256.373 587.257 244.296L582.953 253.076C607.258 264.845 630.06 280.748 650.147 300.835C670.233 320.923 686.135 343.727 697.903 368.033L706.683 363.729C694.624 338.414 678.073 314.757 657.15 293.832L657.167 293.849Z" fill="url(#paint3_radial_1_6807)"/>
<path d="M403.865 310.862L398.809 299.452C377.408 308.693 357.304 322.067 339.728 339.644C322.153 357.221 308.693 377.411 299.453 398.814L310.965 403.767C319.659 383.663 332.179 364.993 348.644 348.526C365.11 332.06 383.779 319.539 403.882 310.845L403.865 310.862ZM651.547 552.203L640.138 547.147C631.444 567.252 618.907 585.939 602.458 602.388C586.01 618.838 567.324 631.375 547.22 640.07L552.174 651.582C573.575 642.341 593.764 628.881 611.34 611.305C628.916 593.728 642.273 573.64 651.53 552.221L651.547 552.203ZM348.644 602.388C333.972 587.716 322.477 571.164 313.869 553.604L302.647 559.019C311.614 577.894 324.048 595.556 339.762 611.271C355.476 626.985 373.12 639.403 391.994 648.371L397.409 637.149C379.833 628.557 363.299 617.044 348.627 602.371L348.644 602.388ZM611.357 339.661C595.66 323.964 577.999 311.528 559.108 302.544L553.694 313.766C571.27 322.358 587.803 333.871 602.475 348.543C617.147 363.216 628.642 379.768 637.251 397.328L648.473 391.913C639.506 373.038 627.071 355.376 611.374 339.678L611.357 339.661Z" fill="url(#paint4_radial_1_6807)"/>
<path d="M112.167 112.07C158.335 65.8996 211.882 29.5335 270.023 4.11659L268.332 0C209.559 25.5023 155.534 62.1417 108.887 108.791C62.2408 155.44 25.5181 209.553 0 268.347L4.20177 270.123C29.5319 211.893 65.896 158.343 112.167 112.07ZM951 682.67L946.884 680.979C921.468 739.124 885.104 792.674 838.936 838.844C792.768 885.015 739.118 921.484 680.874 946.798L682.651 951C741.441 925.481 795.466 888.841 842.198 842.107C888.93 795.372 925.465 741.447 950.983 682.653L951 682.67ZM251.713 938.394C200.592 913.643 153.484 880.164 112.184 838.862C70.8835 797.559 37.4059 750.449 12.6394 699.307L12.5369 699.205L8.52312 701.169C33.4945 752.857 67.2283 800.429 108.904 842.107C150.58 883.785 198.166 917.538 249.834 942.494L251.799 938.48L251.696 938.377L251.713 938.394ZM842.215 108.791C800.522 67.0953 752.953 33.3597 701.285 8.404L699.219 12.5206C750.443 37.203 797.618 70.7507 838.936 112.07C880.253 153.39 913.799 200.568 938.48 251.795L942.596 249.728C917.625 198.04 883.891 150.469 842.215 108.791Z" fill="url(#paint5_radial_1_6807)"/>
<defs>
<radialGradient id="paint0_radial_1_6807" cx="0" cy="0" r="1" gradientUnits="userSpaceOnUse" gradientTransform="translate(475.5 475.5) rotate(90) scale(475.5)">
<stop stop-color="#E56E53" stop-opacity="0.2"/>
<stop offset="0.0001" stop-color="#E56E53" stop-opacity="0.2"/>
<stop offset="0.5" stop-color="#E56E53" stop-opacity="0.2"/>
</radialGradient>
<radialGradient id="paint1_radial_1_6807" cx="0" cy="0" r="1" gradientUnits="userSpaceOnUse" gradientTransform="translate(475.5 475.5) rotate(90) scale(475.5)">
<stop stop-color="#E56E53" stop-opacity="0.2"/>
<stop offset="0.0001" stop-color="#E56E53" stop-opacity="0.2"/>
<stop offset="0.5" stop-color="#E56E53" stop-opacity="0.2"/>
</radialGradient>
<radialGradient id="paint2_radial_1_6807" cx="0" cy="0" r="1" gradientUnits="userSpaceOnUse" gradientTransform="translate(475.5 475.5) rotate(90) scale(475.5)">
<stop stop-color="#E56E53" stop-opacity="0.2"/>
<stop offset="0.0001" stop-color="#E56E53" stop-opacity="0.2"/>
<stop offset="0.5" stop-color="#E56E53" stop-opacity="0.2"/>
</radialGradient>
<radialGradient id="paint3_radial_1_6807" cx="0" cy="0" r="1" gradientUnits="userSpaceOnUse" gradientTransform="translate(475.5 475.5) rotate(90) scale(475.5)">
<stop stop-color="#E56E53" stop-opacity="0.2"/>
<stop offset="0.0001" stop-color="#E56E53" stop-opacity="0.2"/>
<stop offset="0.5" stop-color="#E56E53" stop-opacity="0.2"/>
</radialGradient>
<radialGradient id="paint4_radial_1_6807" cx="0" cy="0" r="1" gradientUnits="userSpaceOnUse" gradientTransform="translate(475.5 475.5) rotate(90) scale(475.5)">
<stop stop-color="#E56E53" stop-opacity="0.2"/>
<stop offset="0.0001" stop-color="#E56E53" stop-opacity="0.2"/>
<stop offset="0.5" stop-color="#E56E53" stop-opacity="0.2"/>
</radialGradient>
<radialGradient id="paint5_radial_1_6807" cx="0" cy="0" r="1" gradientUnits="userSpaceOnUse" gradientTransform="translate(475.5 475.5) rotate(90) scale(475.5)">
<stop stop-color="#E56E53" stop-opacity="0.2"/>
<stop offset="0.0001" stop-color="#E56E53" stop-opacity="0.2"/>
<stop offset="0.5" stop-color="#E56E53" stop-opacity="0.2"/>
</radialGradient>
</defs>
</svg>
