<svg   preserveAspectRatio="xMidYMid meet"
 viewBox="0 0 468 90" fill="none" xmlns="http://www.w3.org/2000/svg">
<path id="&#216;&#173;&#217;&#138;&#216;&#171; &#216;&#170;&#216;&#168;&#216;&#175;&#216;&#163; &#216;&#167;&#217;&#132;&#216;&#173;&#217;&#131;&#216;&#167;&#217;&#138;&#216;&#169;" d="M31.1754 68.8984C25.367 68.8984 20.6212 65.9943 19.1337 60.8234C16.2295 62.5943 13.3254 63.4443 9.85453 63.4443C4.25869 63.4443 0.00869136 59.8318 0.00869136 53.4568C0.00869136 45.6651 4.47119 39.0776 16.867 35.2526L16.7254 30.4359L25.8629 29.7984V52.4651C25.8629 56.8568 28.342 58.2734 31.1754 58.2734C34.2212 58.2734 36.6295 60.5401 36.6295 63.5859C36.6295 66.7026 34.2212 68.8984 31.1754 68.8984ZM10.2087 53.7401C12.9004 53.7401 15.167 53.1734 17.2212 52.0401V44.7443C10.492 45.5234 6.31286 48.6401 6.31286 51.2609C6.31286 53.0318 7.65869 53.7401 10.2087 53.7401ZM11.5545 26.1151L4.96703 20.3068L10.4212 13.5776L17.0087 19.5276L11.5545 26.1151ZM23.0295 26.1151L16.442 20.3068L21.8962 13.5776L28.4837 19.5276L23.0295 26.1151ZM31.1665 68.8984C27.979 68.8984 25.6415 66.7026 25.6415 63.0901C25.6415 60.3276 28.0498 58.2734 31.1665 58.2734C38.9582 58.2734 41.9332 56.8568 41.9332 54.5193C41.9332 50.6234 40.5873 42.8318 39.2415 38.1568L48.4498 36.3151C49.1582 40.7776 49.7957 47.8609 49.7957 53.3859C49.7957 57.4943 48.379 60.8234 46.3957 63.3026C43.2082 67.3401 37.8957 68.8984 31.1665 68.8984ZM36.8332 86.4651L30.2457 80.6568L35.6998 73.9276L42.2873 79.8776L36.8332 86.4651ZM48.3082 86.4651L41.7207 80.6568L47.1748 73.9276L53.7623 79.8776L48.3082 86.4651ZM73.651 68.8984C66.001 68.8984 60.051 63.3026 59.8385 53.8109L59.1302 19.1734L68.3385 18.5359V52.4651C68.3385 57.0693 71.0302 58.2734 73.651 58.2734C76.6968 58.2734 79.1052 60.5401 79.1052 63.5859C79.1052 66.7026 76.6968 68.8984 73.651 68.8984ZM73.6665 68.8984C70.479 68.8984 68.0707 66.4901 68.0707 63.5859C68.0707 60.3276 70.479 58.2734 73.6665 58.2734C80.4665 58.2734 83.5123 57.2109 83.5123 54.8734C83.5123 53.3151 82.4498 51.5443 80.6082 49.4901C76.7123 45.1693 73.5248 42.2651 70.4082 39.5026L71.754 28.3818C79.5457 24.4859 93.5707 19.2443 102 16.4818L101.221 26.1151C96.6873 27.6734 84.079 32.2776 77.9873 35.0401C84.1498 40.4234 87.904 45.1693 94.3498 53.4568C97.3248 57.5651 99.6623 58.2734 102.708 58.2734C105.754 58.2734 108.162 60.5401 108.162 63.5859C108.162 66.6318 105.754 68.8984 102.708 68.8984C97.4665 68.8984 93.7123 67.4818 88.9665 60.6818C87.054 65.9234 82.4498 68.8984 73.6665 68.8984ZM102.719 68.8984C99.5317 68.8984 97.1942 66.4901 97.1942 63.4443C97.1942 60.3276 99.5317 58.2734 102.719 58.2734C114.053 58.2734 124.748 50.9776 132.044 48.3568C125.173 45.1693 122.128 44.6734 119.436 44.6734C115.115 44.6734 112.919 45.7359 111.715 48.1443L105.836 44.9568C107.89 38.8651 112.14 35.0401 119.294 35.0401C124.961 35.0401 128.219 37.6609 147.344 44.6734L144.794 53.2443C144.157 53.1026 143.094 52.8193 141.678 52.8193C141.04 52.8193 139.907 53.0318 138.773 53.3151C139.411 57.0693 143.023 58.2734 150.036 58.2734H152.161C155.703 58.2734 157.615 60.5401 157.615 63.5859C157.615 66.6318 155.703 68.8984 152.161 68.8984H150.036C139.482 68.8984 132.611 63.9401 132.611 56.0776C124.182 60.9651 114.123 68.8984 102.719 68.8984ZM152.192 68.8984C149.004 68.8984 146.738 66.4193 146.738 63.4443C146.738 60.3276 149.004 58.2734 152.192 58.2734C155.663 58.2734 157.717 56.0776 157.717 50.1276L157.079 19.1734L166.288 18.5359V51.1901C166.288 63.3026 161.329 68.8984 152.192 68.8984ZM177.317 69.1818L176.254 19.1734L185.463 18.5359V68.8984L177.317 69.1818ZM213.84 69.1818L212.778 19.1734L221.986 18.5359V68.8984L213.84 69.1818ZM208.598 16.8359L208.953 11.8068C209.59 11.5943 210.582 11.3109 212.211 11.0276C210.865 10.0359 210.086 8.54843 210.086 6.84844C210.086 3.3776 213.273 0.75677 217.523 0.75677C219.861 0.75677 221.419 1.39427 223.119 2.66927L220.994 6.5651C219.932 5.85677 218.728 5.64427 217.523 5.64427C215.753 5.64427 214.478 6.3526 214.478 7.8401C214.478 9.1151 215.398 10.3901 218.019 10.3901C219.79 10.3901 222.198 10.0359 224.253 10.0359L223.828 14.9234C219.578 14.9234 211.29 15.9151 208.598 16.8359ZM241.776 69.7484C237.526 69.7484 234.622 69.4651 231.505 68.4734L230.301 58.1318C233.134 58.7693 236.322 59.0526 241.351 59.0526C248.434 59.0526 251.197 57.4943 251.197 55.0151C251.197 52.5359 250.276 49.3484 249.568 46.1609C248.576 41.9109 247.514 37.5901 246.593 33.4109L255.093 32.1359C256.509 39.5026 258.209 47.6484 259.414 51.8984C260.759 56.9276 264.159 58.2734 267.276 58.2734C270.322 58.2734 272.73 60.5401 272.73 63.5859C272.73 66.6318 270.322 68.8984 267.276 68.8984C262.743 68.8984 259.13 67.5526 256.014 63.4443C255.801 63.8693 255.518 64.3651 255.164 64.7901C252.543 68.4734 247.797 69.7484 241.776 69.7484ZM267.241 68.8984C264.195 68.8984 261.787 66.7026 261.787 63.4443C261.787 60.3276 264.195 58.2734 267.241 58.2734C270.357 58.2734 273.545 56.7151 274.82 53.1734C276.024 49.8443 276.024 48.4276 276.307 45.7359L283.957 46.0901C283.816 48.2151 283.816 49.9151 283.816 51.6151C283.816 56.1484 286.862 58.2734 291.607 58.2734C294.653 58.2734 297.062 60.3276 297.062 63.4443C297.062 66.7026 294.653 68.8984 291.607 68.8984C284.949 68.8984 280.841 66.9859 278.857 62.8776C276.024 67.0568 272.412 68.8984 267.241 68.8984ZM277.795 89.0859L270.499 82.6401L276.52 75.2026L283.816 81.7901L277.795 89.0859ZM291.645 68.8984C288.458 68.8984 286.12 66.7026 286.12 63.0901C286.12 60.3276 288.528 58.2734 291.645 58.2734C299.437 58.2734 302.412 56.8568 302.412 54.5193C302.412 50.6234 301.066 42.8318 299.72 38.1568L308.928 36.3151C309.637 40.7776 310.274 47.8609 310.274 53.3859C310.274 57.4943 308.858 60.8234 306.874 63.3026C303.687 67.3401 298.374 68.8984 291.645 68.8984ZM299.153 30.9318L292.566 25.1234L298.02 18.3943L304.608 24.3443L299.153 30.9318ZM310.628 30.9318L304.041 25.1234L309.495 18.3943L316.083 24.3443L310.628 30.9318ZM357.521 69.7484C341.088 69.7484 334.854 63.1609 334.854 52.5359C334.854 48.9234 335.775 45.3109 337.404 41.4151L343.496 42.6193C342.717 45.3109 342.292 47.5068 342.292 50.4109C342.292 56.0776 346.046 59.1234 358.867 59.1234C371.971 59.1234 379.054 56.5026 381.179 51.7568C382.596 48.7109 382.809 46.8693 383.021 43.6109L390.671 44.0359C390.459 46.8693 390.388 48.8526 390.388 51.6859C390.388 56.6443 393.009 58.2734 398.179 58.2734C401.225 58.2734 403.634 60.3276 403.634 63.4443C403.634 66.7026 401.225 68.8984 398.179 68.8984C390.388 68.8984 386.067 66.7734 384.438 60.8943C379.479 67.0568 368.642 69.7484 357.521 69.7484ZM358.442 38.9359L352.421 33.6234L357.379 27.4609L363.4 32.9151L358.442 38.9359ZM368.996 38.9359L362.975 33.6234L367.934 27.4609L373.954 32.9151L368.996 38.9359ZM363.684 29.4443L357.734 24.1318L362.692 18.1109L368.642 23.4943L363.684 29.4443ZM398.144 68.8984C395.098 68.8984 392.69 66.7026 392.69 63.4443C392.69 60.3276 395.098 58.2734 398.144 58.2734C401.261 58.2734 404.448 56.7151 405.723 53.1734C406.927 49.8443 406.927 48.4276 407.211 45.7359L414.861 46.0901C414.719 48.2151 414.719 49.9151 414.719 51.6151C414.719 56.1484 417.765 58.2734 422.511 58.2734C425.557 58.2734 427.965 60.3276 427.965 63.4443C427.965 66.7026 425.557 68.8984 422.511 68.8984C415.852 68.8984 411.744 66.9859 409.761 62.8776C406.927 67.0568 403.315 68.8984 398.144 68.8984ZM402.89 87.8818L396.302 82.0734L401.757 75.3443L408.344 81.2943L402.89 87.8818ZM414.365 87.8818L407.777 82.0734L413.232 75.3443L419.819 81.2943L414.365 87.8818ZM422.548 68.8984C419.361 68.8984 416.953 66.4193 416.953 63.4443C416.953 60.3276 419.361 58.2734 422.548 58.2734C432.678 58.2734 444.294 52.6776 451.803 50.1984C445.003 47.0109 441.957 46.5151 439.265 46.5151C434.944 46.5151 432.748 47.6484 431.544 50.0568L425.665 46.7984C427.719 40.7068 431.969 36.9526 439.123 36.9526C445.003 36.9526 448.048 39.5734 467.173 46.5151L464.623 55.0859C463.986 54.9443 462.923 54.7318 461.507 54.7318C453.148 54.7318 437.14 68.8984 422.548 68.8984Z" fill="black"/>
</svg>
