<svg   preserveAspectRatio="xMidYMid meet"
 viewBox="0 0 1235 243" fill="none" xmlns="http://www.w3.org/2000/svg">
<path d="M41.498 182.333C16.0646 182.333 0.897982 164.133 0.897982 138.233C0.897982 111.4 18.398 79.2 41.9646 79.2C69.2646 79.2 83.9646 113.5 83.9646 135.9C83.9646 166 64.8313 182.333 41.498 182.333ZM42.898 157.133C57.3646 157.133 67.398 148.033 67.1646 135.2C66.9313 121.2 55.0313 104.4 41.2646 104.4C28.898 104.4 17.4646 121.433 17.4646 134.733C17.4646 149.667 28.898 157.133 42.898 157.133ZM25.1647 62.8667L6.96465 46.5333L22.3646 28.1L40.5646 44.6667L25.1647 62.8667ZM59.698 62.8667L41.498 46.5333L56.898 28.1L75.098 44.6667L59.698 62.8667ZM75.0032 242.067L67.3032 218.033C107.67 209.633 124.003 187.467 124.003 163.2C124.003 149.433 121.437 138.467 117.003 124.933C145.703 122.6 163.903 118.167 180.937 111.633L199.137 110C199.603 148.733 212.903 152.467 228.07 152.467C236.003 152.467 242.07 158.533 242.07 166.233C242.07 174.4 236.003 180 228.07 180C204.737 180 186.537 172.767 180.47 135.433C169.503 139.167 156.67 142.2 144.537 143.367C145.47 149.2 145.47 154.333 145.47 158.3C145.47 199.6 120.037 233.667 75.0032 242.067ZM167.87 238.333L149.67 222L165.07 203.567L183.27 220.133L167.87 238.333ZM202.403 238.333L184.203 222L199.603 203.567L217.803 220.133L202.403 238.333ZM228.022 180C220.089 180 214.022 174.4 214.022 166C214.022 157.833 220.089 152.467 228.022 152.467C238.756 152.467 249.722 147.333 254.389 133.8C257.889 123.767 258.356 118.633 259.289 109.767L278.889 110.933C278.422 117.933 278.189 122.133 278.189 126.8C278.189 138.933 280.522 144.067 287.756 148.267C313.189 104.867 339.789 88.0667 366.156 88.0667C390.422 88.0667 410.022 111.867 410.022 131.233C410.022 138.233 408.156 145.933 401.389 153.167L417.022 152.467H420.522C428.456 152.467 434.522 158.533 434.522 166.233C434.522 174.4 428.456 180 420.522 180H335.122C288.922 180 272.122 175.8 265.122 159.467C256.489 173.7 244.122 180 228.022 180ZM338.389 153.867C378.989 153.867 392.756 146.167 392.756 134.033C392.756 124.467 380.389 113.267 362.422 113.267C347.022 113.267 326.256 121.667 304.322 152.467C315.522 153.867 324.856 153.867 338.389 153.867ZM420.522 180C412.356 180 406.056 173.7 406.056 165.767C406.056 157.833 412.356 152.467 420.522 152.467C445.256 152.467 464.389 152 479.789 149.433C491.456 147.1 494.956 143.833 495.656 130.3C488.189 133.1 481.189 135.2 468.589 135.2C447.122 135.2 432.656 124.933 432.656 104.167C432.656 76.8667 452.256 53.0667 472.556 53.0667C494.722 53.0667 512.922 78.5 512.922 113.5C512.922 145.233 508.722 160.633 493.556 169.267C483.756 174.4 459.256 180 420.522 180ZM474.189 112.567C482.356 112.567 488.889 111.633 494.956 110.7C492.389 90.1667 481.422 77.8 469.522 77.8C459.256 77.8 449.222 87.3667 449.222 98.1C449.222 108.6 459.022 112.567 474.189 112.567ZM453.189 35.3333L434.989 19L450.389 0.566654L468.589 17.1333L453.189 35.3333ZM487.722 35.3333L469.522 19L484.922 0.566654L503.122 17.1333L487.722 35.3333ZM697.566 180C679.366 180 664.899 170.2 661.166 151.767C651.366 157.833 641.799 161.1 629.666 161.1C612.399 161.1 599.566 150.367 599.566 131C599.566 106.267 617.066 85.7333 655.566 74.3L655.332 58.9L678.899 57.2667V131.933C678.899 148.033 688.232 152.467 697.566 152.467C705.499 152.467 711.799 158.533 711.799 166.233C711.799 174.4 705.499 180 697.566 180ZM630.832 135.9C639.932 135.9 648.566 133.8 656.732 128.9L656.499 98.8C632.466 102.767 616.132 114.2 616.132 125.4C616.132 132.867 621.732 135.9 630.832 135.9ZM636.899 43.2667L618.699 26.9333L634.099 8.5L652.299 25.0667L636.899 43.2667ZM671.432 43.2667L653.232 26.9333L668.632 8.5L686.832 25.0667L671.432 43.2667ZM772.648 182.8C758.415 182.8 741.615 174.633 732.048 158.767C722.948 174.633 712.681 180 697.515 180C689.348 180 683.515 174.167 683.515 166.467C683.515 157.833 689.348 152.467 697.515 152.467C711.281 152.467 718.281 145.7 724.581 132.633C739.048 104.867 749.548 94.6 766.581 94.6C781.515 94.6 798.081 109.767 803.681 130.067C808.815 147.1 818.381 152.467 831.215 152.467C839.148 152.467 845.215 158.533 845.215 166.233C845.215 173.933 839.148 180 831.215 180C819.315 180 808.581 174.633 801.115 163.667C796.215 175.333 786.648 182.8 772.648 182.8ZM773.815 158.533C781.981 158.533 786.648 153.867 786.648 146.4C786.648 132.633 772.415 119.333 763.548 119.333C753.981 119.333 747.915 125.867 742.315 139.867C748.848 152.933 764.481 158.533 773.815 158.533ZM831.226 180C823.059 180 817.226 173.7 817.226 166C817.226 157.833 823.059 152.467 831.226 152.467C843.592 152.467 850.359 145.233 850.359 126.1L848.726 14.8L872.759 13.4V128.667C872.759 163.433 858.292 180 831.226 180ZM950.528 180C928.362 180 910.628 164.133 909.928 135.2L908.062 14.8L932.095 13.4V131.933C932.095 148.733 941.428 152.467 950.528 152.467C958.462 152.467 964.528 158.533 964.528 166.233C964.528 174.4 958.462 180 950.528 180ZM950.444 180C942.278 180 935.978 173.933 935.978 166.467C935.978 157.833 942.278 152.467 950.444 152.467C974.478 152.467 984.978 147.567 984.978 138C984.978 131.7 980.778 124.467 974.478 117C961.411 100.9 950.911 89.7 938.544 76.6333L942.278 48.1667C968.411 35.3333 1012.74 18.7667 1041.91 8.26666L1040.04 33.2333C1021.14 40.2333 979.844 55.4 958.144 65.4333C978.678 85.9667 992.444 103 1013.68 133.567C1025.11 150.367 1032.81 152.467 1044.24 152.467C1052.41 152.467 1058.48 158.533 1058.48 166.233C1058.48 174.167 1052.41 180 1044.24 180C1027.21 180 1015.54 176.033 999.911 152.233C994.311 170.2 979.611 180 950.444 180ZM1119.37 182.8C1105.13 182.8 1088.33 174.633 1078.77 158.767C1069.67 174.633 1059.4 180 1044.23 180C1036.07 180 1030.23 174.167 1030.23 166.467C1030.23 157.833 1036.07 152.467 1044.23 152.467C1058 152.467 1065 145.7 1071.3 132.633C1085.77 104.867 1096.27 94.6 1113.3 94.6C1128.23 94.6 1144.8 109.767 1150.4 130.067C1155.53 147.1 1165.1 152.467 1177.93 152.467C1185.87 152.467 1191.93 158.533 1191.93 166.233C1191.93 173.933 1185.87 180 1177.93 180C1166.03 180 1155.3 174.633 1147.83 163.667C1142.93 175.333 1133.37 182.8 1119.37 182.8ZM1120.53 158.533C1128.7 158.533 1133.37 153.867 1133.37 146.4C1133.37 132.633 1119.13 119.333 1110.27 119.333C1100.7 119.333 1094.63 125.867 1089.03 139.867C1095.57 152.933 1111.2 158.533 1120.53 158.533ZM1177.94 180C1169.31 180 1163.48 174.4 1163.48 165.067C1163.48 157.833 1169.54 152.467 1177.94 152.467C1203.61 152.467 1214.34 147.333 1214.34 138.7C1214.34 124 1210.61 100.667 1205.94 84.5667L1229.51 79.6667C1232.54 95.3 1234.88 117.233 1234.88 135.433C1234.88 147.567 1230.91 156.9 1224.14 164.133C1214.11 175.567 1198.01 180 1177.94 180ZM1213.18 237.167L1192.88 219.2L1209.91 198.667L1230.21 217.1L1213.18 237.167Z" fill="#E56E53"/>
</svg>
