<svg preserveAspectRatio="xMidYMid meet"  viewBox="0 0 347 344" fill="none" xmlns="http://www.w3.org/2000/svg">
<path  class="wave-1" d="M318.293 286.719C309.9 225.25 284.812 166.762 245.734 117.567C205.736 67.2101 153.002 28.9372 93.2296 6.86664C92.7452 6.68569 92.2068 6.92939 92.0133 7.40876L90.7941 10.4792C90.5957 10.9769 90.8481 11.5352 91.351 11.7211C150.503 33.5548 202.528 71.2271 241.805 120.665C280.15 168.932 304.803 226.61 313.113 287.454C313.184 287.978 313.672 288.343 314.199 288.267L317.502 287.787C318.015 287.713 318.38 287.234 318.306 286.722L318.293 286.719Z" fill="#C7C7C7"/>
<path  class="wave-2" d="M217.456 139.861C181.411 94.4851 133.853 60.062 79.9281 40.3031C79.442 40.1283 78.9053 40.3659 78.7118 40.8452L77.4975 43.8972C77.2991 44.395 77.5514 44.9533 78.0543 45.1392C131.346 64.658 178.188 98.485 213.519 142.964C247.929 186.282 270.027 238.048 277.418 292.666C277.489 293.19 277.977 293.555 278.504 293.478L281.787 293C282.3 292.926 282.663 292.453 282.591 291.936C275.109 236.671 252.585 184.084 217.456 139.861Z" fill="#C7C7C7"/>
<path class="wave-3" d="M189.175 162.162C157.086 121.76 114.705 91.1806 66.6265 73.7395C66.1405 73.5647 65.6037 73.8023 65.4163 74.2833L64.2053 77.3231C64.0069 77.8208 64.2593 78.3792 64.7683 78.5666C112.193 95.7689 153.852 125.751 185.245 165.267C215.726 203.637 235.262 249.495 241.743 297.877C241.814 298.4 242.3 298.772 242.827 298.695L246.091 298.218C246.604 298.144 246.967 297.671 246.894 297.154C240.322 248.099 220.36 201.421 189.182 162.164L189.175 162.162Z" fill="#C7C7C7"/>
<path class="wave-4" d="M160.903 184.459C132.756 149.027 95.5565 122.299 53.3266 107.17C52.8405 106.995 52.3099 107.234 52.1164 107.714L50.9164 110.737C50.718 111.234 50.9749 111.801 51.4794 111.98C93.0332 126.858 129.509 152.995 156.966 187.562C183.512 220.983 200.492 260.934 206.062 303.086C206.133 303.609 206.62 303.981 207.146 303.904L210.382 303.433C210.895 303.359 211.258 302.886 211.185 302.368C205.525 259.518 188.131 218.749 160.895 184.464L160.903 184.459Z" fill="#C7C7C7"/>
<path class="wave-5" d="M132.623 206.76C108.534 176.435 76.4922 153.597 39.9662 140.728C39.4846 140.561 38.954 140.8 38.7622 141.274L37.6119 144.159C37.4136 144.657 37.6704 145.223 38.1811 145.404C73.8577 157.956 105.157 180.249 128.686 209.863C151.308 238.338 165.722 272.373 170.381 308.295C170.451 308.825 170.939 309.19 171.465 309.113L174.544 308.666C175.057 308.592 175.419 308.118 175.351 307.609C170.573 270.804 155.796 235.932 132.623 206.76Z" fill="#C7C7C7"/>
<path class="wave-6" d="M104.349 229.063C84.1788 203.675 57.3199 184.683 26.6695 174.146C26.188 173.979 25.6635 174.22 25.4716 174.693L24.3214 177.579C24.1214 178.083 24.3844 178.651 24.8967 178.826C54.6916 189.044 80.8033 207.484 100.406 232.164C119.099 255.692 130.957 283.82 134.693 313.509C134.762 314.038 135.248 314.409 135.775 314.333L138.853 313.885C139.366 313.812 139.721 313.343 139.661 312.829C135.798 282.261 123.584 253.298 104.335 229.066L104.349 229.063Z" fill="#C7C7C7"/>
<path class="wave-7" d="M76.0707 251.358C59.8358 230.919 38.1506 215.783 13.3524 207.592C12.8754 207.432 12.3509 207.673 12.1668 208.142L11.0166 211.028C10.8149 211.538 11.0841 212.107 11.6041 212.278C35.5391 220.155 56.4709 234.737 72.1353 254.454C86.8884 273.025 96.1844 295.246 99.0072 318.71C99.0704 319.238 99.5612 319.617 100.09 319.534L103.168 319.087C103.681 319.013 104.036 318.544 103.974 318.036C101.025 293.686 91.3731 270.631 76.0584 251.354L76.0707 251.358Z" fill="#C7C7C7"/>
<defs>
<radialGradient  id="paint0_radial_1_4547" cx="0" cy="0" r="1" gradientUnits="userSpaceOnUse" gradientTransform="translate(-32.4912 336.73) rotate(-7.76875) scale(353.911 341.24)">
<stop stop-opacity="0.1"/>
<stop stop-opacity="0.1"/>
<stop offset="0.28" stop-opacity="0"/>
</radialGradient>

<radialGradient id="paint1_radial_1_4547" cx="0" cy="0" r="1" gradientUnits="userSpaceOnUse" gradientTransform="translate(-32.4912 336.73) rotate(-7.76875) scale(353.911 341.24)">
<stop stop-opacity="0.1"/>
<stop stop-opacity="0.1"/>
<stop offset="0.28" stop-opacity="0"/>
</radialGradient>

<radialGradient  id="paint2_radial_1_4547" cx="0" cy="0" r="1" gradientUnits="userSpaceOnUse" gradientTransform="translate(-32.4912 336.73) rotate(-7.76875) scale(353.911 341.24)">
<stop stop-opacity="0.1"/>
<stop stop-opacity="0.1"/>
<stop offset="0.28" stop-opacity="0"/>
</radialGradient>

<radialGradient  id="paint3_radial_1_4547" cx="0" cy="0" r="1" gradientUnits="userSpaceOnUse" gradientTransform="translate(-32.4912 336.73) rotate(-7.76875) scale(353.911 341.24)">
<stop stop-opacity="0.1"/>
<stop stop-opacity="0.1"/>
<stop offset="0.28" stop-opacity="0"/>
</radialGradient>

<radialGradient  id="paint4_radial_1_4547" cx="0" cy="0" r="1" gradientUnits="userSpaceOnUse" gradientTransform="translate(-32.4912 336.73) rotate(-7.76875) scale(353.911 341.24)">
<stop stop-opacity="0.1"/>
<stop stop-opacity="0.1"/>
<stop offset="0.28" stop-opacity="0"/>
</radialGradient>

<radialGradient  id="paint5_radial_1_4547" cx="0" cy="0" r="1" gradientUnits="userSpaceOnUse" gradientTransform="translate(-32.4912 336.73) rotate(-7.76875) scale(353.911 341.24)">
<stop stop-opacity="0.1"/>
<stop stop-opacity="0.1"/>
<stop offset="0.28" stop-opacity="0"/>
</radialGradient>

<radialGradient  id="paint6_radial_1_4547" cx="0" cy="0" r="1" gradientUnits="userSpaceOnUse" gradientTransform="translate(-32.4912 336.73) rotate(-7.76875) scale(353.911 341.24)">
<stop stop-opacity="0.1"/>
<stop stop-opacity="0.1"/>
<stop offset="0.28" stop-opacity="0"/>
</radialGradient>
</defs>
</svg>
