<svg preserveAspectRatio="xMidYMid meet" viewBox="0 0 238 161" fill="none" xmlns="http://www.w3.org/2000/svg">
<path d="M34.548 144.88C15.828 144.88 4.12797 135.79 4.12797 122.02C4.12797 112.57 8.80797 105.91 18.528 99.16C11.958 96.01 8.35797 90.61 8.35797 84.31C8.35797 74.68 16.458 66.76 25.728 66.76C30.498 66.76 34.908 68.56 38.418 71.89L34.188 78.55C30.858 76.93 28.428 76.39 25.098 76.39C19.428 76.39 15.378 79.72 15.378 84.22C15.378 89.17 19.518 93.31 25.188 93.31C28.158 93.31 33.468 91.51 42.918 89.8L42.648 98.89C24.828 100.78 11.688 109.06 11.688 119.68C11.688 128.59 20.778 134.62 35.088 134.62C41.658 134.62 47.058 134.08 52.188 132.46L51.738 141.1C47.328 143.35 40.938 144.88 34.548 144.88ZM54.9245 139.12L52.0445 129.85C67.2545 128.14 74.8145 122.47 77.5145 115H68.4245C60.0545 114.91 54.4745 110.32 54.4745 101.77C54.4745 91.24 62.0345 82.06 69.9545 82.06C78.5945 82.06 85.6145 91.33 85.6145 104.29V104.56C88.3145 104.38 90.2045 104.38 90.4745 104.38C93.5345 104.38 95.8745 106.72 95.8745 109.69C95.8745 112.75 93.6245 115 90.4745 115H84.4445C81.2045 128.14 71.8445 136.96 54.9245 139.12ZM69.9545 104.83C73.1045 104.83 75.1745 104.74 79.1345 104.65C78.5945 96.46 73.5545 91.6 68.7845 91.6C64.7345 91.6 60.9545 95.2 60.9545 99.34C60.9545 103.12 64.6445 104.83 69.9545 104.83ZM90.4492 115C87.3892 115 85.0492 112.84 85.0492 109.6C85.0492 106.45 87.3892 104.38 90.4492 104.38C94.5892 104.38 98.8192 102.31 100.619 97.18C101.969 93.31 102.149 91.33 102.509 87.91L110.069 88.36C109.889 91.06 109.799 93.49 109.799 95.56C109.799 101.68 113.939 104.38 120.059 104.38C123.119 104.38 125.459 106.45 125.459 109.6C125.459 112.84 123.119 115 120.059 115C112.139 115 106.919 112.57 104.669 107.17C101.339 112.57 96.6592 115 90.4492 115ZM106.559 80.08L98.7292 73.15L105.299 65.23L113.129 72.34L106.559 80.08ZM120.086 115C117.026 115 114.686 112.84 114.686 109.6C114.686 106.45 117.026 104.38 120.086 104.38C124.226 104.38 128.456 102.31 130.256 97.18C131.606 93.31 131.786 91.33 132.146 87.91L139.706 88.36C139.526 91.06 139.436 93.49 139.436 95.56C139.436 101.68 143.576 104.38 149.696 104.38C152.756 104.38 155.096 106.45 155.096 109.6C155.096 112.84 152.756 115 149.696 115C141.776 115 136.556 112.57 134.306 107.17C130.976 112.57 126.296 115 120.086 115ZM129.446 80.08L122.426 73.78L128.366 66.67L135.386 73.06L129.446 80.08ZM142.766 80.08L135.746 73.78L141.686 66.67L148.706 73.06L142.766 80.08ZM149.723 115C146.573 115 144.323 112.75 144.323 109.78C144.323 106.45 146.573 104.38 149.723 104.38C155.033 104.38 157.463 101.23 160.163 95.65C165.743 84.94 169.793 80.98 176.363 80.98C183.383 80.98 191.483 89.71 191.483 100.33C191.483 109.24 186.353 115 178.703 115C173.213 115 166.733 111.85 163.043 105.73C159.353 112.75 155.753 115 149.723 115ZM179.153 105.64C182.303 105.64 184.103 103.84 184.103 100.96C184.103 95.65 178.613 90.52 175.193 90.52C171.503 90.52 169.163 93.04 167.003 98.44C169.523 103.48 175.553 105.64 179.153 105.64ZM202.475 134.8L199.595 125.53C215.255 123.55 223.265 118.06 225.875 108.79C222.725 110.05 220.025 110.5 215.975 110.5C207.605 110.5 202.025 106 202.025 97.45C202.025 86.92 209.585 77.74 217.505 77.74C226.145 77.74 233.165 87.01 233.165 99.97C233.165 120.49 222.005 132.37 202.475 134.8ZM218.045 101.23C220.835 101.23 223.445 101.05 226.685 100.51C226.145 92.14 221.375 87.28 216.335 87.28C212.195 87.28 208.505 90.97 208.505 95.2C208.505 99.61 212.555 101.23 218.045 101.23Z" fill="#E56E53"/>
</svg>
