<svg      preserveAspectRatio="xMidYMid meet"  
 viewBox="0 0 118 23" fill="none" xmlns="http://www.w3.org/2000/svg">
<path d="M7.90342 18C6.47342 18 5.33676 17.23 5.04342 15.7817C4.27342 16.2583 3.52176 16.515 2.56842 16.515C1.21176 16.515 0.203424 15.6717 0.203424 14.15C0.203424 12.2067 1.57842 10.5933 4.60342 9.695L4.58509 8.485L6.43676 8.35667V14.2233C6.43676 15.4883 7.17009 15.8367 7.90342 15.8367C8.52676 15.8367 9.02176 16.3133 9.02176 16.9183C9.02176 17.56 8.52676 18 7.90342 18ZM2.66009 14.535C3.37509 14.535 4.05342 14.37 4.69509 13.985L4.67676 11.62C2.78842 11.9317 1.50509 12.83 1.50509 13.71C1.50509 14.2967 1.94509 14.535 2.66009 14.535ZM3.13676 7.25667L1.70676 5.97333L2.91676 4.525L4.34676 5.82667L3.13676 7.25667ZM5.85009 7.25667L4.42009 5.97333L5.63009 4.525L7.06009 5.82667L5.85009 7.25667ZM7.89941 18C7.22108 18 6.76275 17.56 6.76275 16.8267C6.76275 16.2583 7.23941 15.8367 7.89941 15.8367C9.91608 15.8367 10.7594 15.4333 10.7594 14.755C10.7594 13.6 10.4661 11.7667 10.0994 10.5017L11.9511 10.1167C12.1894 11.345 12.3727 13.0683 12.3727 14.4983C12.3727 15.4517 12.0611 16.185 11.5294 16.7533C10.7411 17.6517 9.47608 18 7.89941 18ZM10.6677 22.4917L9.07275 21.08L10.4111 19.4667L12.0061 20.915L10.6677 22.4917ZM13.6011 22.8767L12.9961 20.9883C16.1677 20.3283 17.4511 18.5867 17.4511 16.68C17.4511 15.69 17.0661 14.205 16.5711 12.8483L18.5694 12.3533C18.7344 13.105 18.8627 13.71 18.9727 14.26C19.1744 15.195 19.7977 15.8367 20.7877 15.8367C21.4111 15.8367 21.8877 16.3133 21.8877 16.9183C21.8877 17.5417 21.4111 18 20.7877 18C20.1644 18 19.5227 17.78 19.0827 17.2117C18.7344 20.035 16.7911 22.2717 13.6011 22.8767ZM20.79 18C20.1484 18 19.6717 17.5233 19.6717 16.9C19.6717 16.2583 20.1484 15.8367 20.79 15.8367C23.87 15.8367 26.675 13.7467 28.6184 13.0867C26.4367 12.115 25.63 11.9867 24.8967 11.9867C23.815 11.9867 23.21 12.2983 22.88 13.0867L21.67 12.445C22.1467 10.9233 23.1917 10.0433 24.8784 10.0433C26.1617 10.0433 27.005 10.5933 31.79 12.3717L31.2767 14.095C31.13 14.0767 30.8917 14.0217 30.6167 14.0217C30.415 14.0217 30.085 14.0767 29.7734 14.1683C29.865 15.4517 30.8367 15.8367 32.6334 15.8367H33.1834C33.8984 15.8367 34.2834 16.3133 34.2834 16.9183C34.2834 17.5417 33.8984 18 33.1834 18H32.5967C30.14 18 28.5084 16.79 28.5084 14.7917C28.5084 14.7733 28.5084 14.755 28.5084 14.755C26.3267 15.9833 23.6867 18 20.79 18ZM26.7117 22.125L25.1167 20.7133L26.455 19.1L28.05 20.5483L26.7117 22.125ZM33.1865 18C32.5632 18 32.0865 17.56 32.0865 16.9C32.0865 16.2583 32.5632 15.8367 33.1865 15.8367C34.0299 15.8367 34.8915 15.415 35.2582 14.37C35.5332 13.5817 35.5699 13.1783 35.6432 12.4817L37.1832 12.5733C37.1465 13.1233 37.1282 13.6183 37.1282 14.04C37.1282 15.2867 37.9715 15.8367 39.2182 15.8367C39.8415 15.8367 40.3182 16.2583 40.3182 16.9C40.3182 17.56 39.8415 18 39.2182 18C37.6049 18 36.5415 17.505 36.0832 16.405C35.4049 17.505 34.4515 18 33.1865 18ZM35.0932 10.8867L33.6632 9.60333L34.8732 8.155L36.3032 9.45667L35.0932 10.8867ZM37.8065 10.8867L36.3765 9.60333L37.5865 8.155L39.0165 9.45667L37.8065 10.8867ZM39.2236 18C38.582 18 38.1236 17.505 38.1236 16.9C38.1236 16.2583 38.582 15.8367 39.2236 15.8367C40.1953 15.8367 40.727 15.2683 40.727 13.765L40.5986 5.02L42.487 4.91V13.9667C42.487 16.6983 41.3503 18 39.2236 18ZM45.4807 18.055L45.2607 5.02L47.1491 4.91V18L45.4807 18.055ZM54.805 18.055L54.585 5.02L56.4733 4.91V18L54.805 18.055ZM53.3383 4.39667L53.4116 3.33333C53.595 3.24167 53.87 3.16833 54.31 3.095C53.925 2.82 53.705 2.41667 53.705 1.97667C53.705 1.07833 54.5116 0.418333 55.5566 0.418333C56.1066 0.418333 56.51 0.565 56.9316 0.876666L56.4916 1.72C56.2166 1.53667 55.8683 1.46333 55.5566 1.46333C55.0433 1.46333 54.64 1.72 54.64 2.16C54.64 2.56333 54.9516 2.93 55.685 2.93C56.1066 2.93 56.7483 2.83833 57.2433 2.83833L57.17 3.88333C56.0333 3.88333 54.0533 4.14 53.3383 4.39667ZM61.5115 18.2017C60.3932 18.2017 59.6782 18.1467 58.9082 17.9267L58.6699 15.8183C59.3665 15.965 60.1182 16.0567 61.4199 16.0567C63.3265 16.0567 64.1149 15.58 64.1149 14.8833C64.1149 14.205 63.8032 13.16 63.6199 12.335C63.3632 11.235 63.0882 10.1717 62.8315 9.01667L64.5549 8.76C64.9582 10.74 65.4165 12.8117 65.7282 13.9483C66.1315 15.4883 67.1032 15.8367 67.9099 15.8367C68.5332 15.8367 69.0282 16.3133 69.0282 16.9183C69.0282 17.5417 68.5515 18 67.9099 18C66.8099 18 65.9115 17.6517 65.1415 16.57C65.0682 16.7167 64.9765 16.8633 64.8665 17.01C64.2249 17.835 63.0882 18.2017 61.5115 18.2017ZM67.9053 18L67.6669 15.8367H72.9653C73.5886 15.8367 74.0653 16.3133 74.0653 16.9183C74.0653 17.56 73.5886 18 72.9653 18H67.9053ZM72.9756 18L72.7373 15.8367H78.0356C78.6589 15.8367 79.1356 16.3133 79.1356 16.9183C79.1356 17.56 78.6589 18 78.0356 18H72.9756ZM78.0459 18L77.8076 15.8367H83.1059C83.7292 15.8367 84.2059 16.3133 84.2059 16.9183C84.2059 17.56 83.7292 18 83.1059 18H78.0459ZM83.1162 18L82.8779 15.8367H88.1762C88.7995 15.8367 89.2762 16.3133 89.2762 16.9183C89.2762 17.56 88.7995 18 88.1762 18H83.1162ZM88.1865 18L87.9482 15.8367H93.2465C93.8699 15.8367 94.3465 16.3133 94.3465 16.9183C94.3465 17.56 93.8699 18 93.2465 18H88.1865ZM93.2568 18L93.0185 15.8367H98.3168C98.9402 15.8367 99.4168 16.3133 99.4168 16.9183C99.4168 17.56 98.9402 18 98.3168 18H93.2568ZM98.3271 18L98.0888 15.8367H103.387C104.01 15.8367 104.487 16.3133 104.487 16.9183C104.487 17.56 104.01 18 103.387 18H98.3271ZM103.397 18L103.159 15.8367H108.457C109.081 15.8367 109.557 16.3133 109.557 16.9183C109.557 17.56 109.081 18 108.457 18H103.397ZM108.468 18C107.789 18 107.331 17.56 107.331 16.8267C107.331 16.2583 107.808 15.8367 108.468 15.8367C110.484 15.8367 111.328 15.4333 111.328 14.755C111.328 13.6 111.034 11.7667 110.668 10.5017L112.519 10.1167C112.758 11.345 112.941 13.0683 112.941 14.4983C112.941 15.4517 112.629 16.185 112.098 16.7533C111.309 17.6517 110.044 18 108.468 18ZM111.236 22.4917L109.641 21.08L110.979 19.4667L112.574 20.915L111.236 22.4917ZM115.692 18.055L115.472 5.02L117.36 4.91V18L115.692 18.055Z" fill="black"/>
</svg>
