<svg   preserveAspectRatio="xMidYMid meet"   viewBox="0 0 298 20" fill="none" xmlns="http://www.w3.org/2000/svg">
<path opacity="0.5" d="M1.27523 15.18C0.645234 15.18 0.150234 14.685 0.150234 14.01C0.150234 13.335 0.645234 12.84 1.27523 12.84C1.90523 12.84 2.38523 13.335 2.38523 14.01C2.38523 14.685 1.90523 15.18 1.27523 15.18ZM10.7084 15C9.53836 15 8.60836 14.37 8.36836 13.185C7.73836 13.575 7.12336 13.785 6.34336 13.785C5.23336 13.785 4.40836 13.095 4.40836 11.85C4.40836 10.26 5.53336 8.94 8.00836 8.205L7.99336 7.215L9.50836 7.11V11.91C9.50836 12.945 10.1084 13.23 10.7084 13.23C11.2184 13.23 11.6234 13.62 11.6234 14.115C11.6234 14.64 11.2184 15 10.7084 15ZM6.41836 12.165C7.00336 12.165 7.55836 12.03 8.08336 11.715L8.06836 9.78C6.52336 10.035 5.47336 10.77 5.47336 11.49C5.47336 11.97 5.83336 12.165 6.41836 12.165ZM6.80836 6.21L5.63836 5.16L6.62836 3.975L7.79836 5.04L6.80836 6.21ZM9.02836 6.21L7.85836 5.16L8.84836 3.975L10.0184 5.04L9.02836 6.21ZM10.7051 15C10.1501 15 9.77508 14.64 9.77508 14.04C9.77508 13.575 10.1651 13.23 10.7051 13.23C12.3551 13.23 13.0451 12.9 13.0451 12.345C13.0451 11.4 12.8051 9.9 12.5051 8.865L14.0201 8.55C14.2151 9.555 14.3651 10.965 14.3651 12.135C14.3651 12.915 14.1101 13.515 13.6751 13.98C13.0301 14.715 11.9951 15 10.7051 15ZM12.9701 18.675L11.6651 17.52L12.7601 16.2L14.0651 17.385L12.9701 18.675ZM15.3701 18.99L14.8751 17.445C17.4701 16.905 18.5201 15.48 18.5201 13.92C18.5201 13.11 18.2051 11.895 17.8001 10.785L19.4351 10.38C19.5701 10.995 19.6751 11.49 19.7651 11.94C19.9301 12.705 20.4401 13.23 21.2501 13.23C21.7601 13.23 22.1501 13.62 22.1501 14.115C22.1501 14.625 21.7601 15 21.2501 15C20.7401 15 20.2151 14.82 19.8551 14.355C19.5701 16.665 17.9801 18.495 15.3701 18.99ZM21.252 15C20.727 15 20.337 14.61 20.337 14.1C20.337 13.575 20.727 13.23 21.252 13.23C23.772 13.23 26.067 11.52 27.657 10.98C25.872 10.185 25.212 10.08 24.612 10.08C23.727 10.08 23.232 10.335 22.962 10.98L21.972 10.455C22.362 9.21 23.217 8.49 24.597 8.49C25.647 8.49 26.337 8.94 30.252 10.395L29.832 11.805C29.712 11.79 29.517 11.745 29.292 11.745C29.127 11.745 28.857 11.79 28.602 11.865C28.677 12.915 29.472 13.23 30.942 13.23H31.392C31.977 13.23 32.292 13.62 32.292 14.115C32.292 14.625 31.977 15 31.392 15H30.912C28.902 15 27.567 14.01 27.567 12.375C27.567 12.36 27.567 12.345 27.567 12.345C25.782 13.35 23.622 15 21.252 15ZM26.097 18.375L24.792 17.22L25.887 15.9L27.192 17.085L26.097 18.375ZM31.3945 15C30.8395 15 30.4645 14.64 30.4645 14.04C30.4645 13.575 30.8545 13.23 31.3945 13.23C33.0445 13.23 33.7345 12.9 33.7345 12.345C33.7345 11.4 33.4945 9.9 33.1945 8.865L34.7095 8.55C34.9045 9.555 35.0545 10.965 35.0545 12.135C35.0545 12.915 34.7995 13.515 34.3645 13.98C33.7195 14.715 32.6845 15 31.3945 15ZM32.8645 7.2L31.6945 6.15L32.6845 4.965L33.8545 6.03L32.8645 7.2ZM35.0845 7.2L33.9145 6.15L34.9045 4.965L36.0745 6.03L35.0845 7.2ZM44.2317 18.39C41.9667 18.39 40.4817 17.07 40.4817 14.79C40.4817 13.89 40.7067 12.99 41.0217 12.24L42.0567 12.51C41.8617 13.11 41.7417 13.755 41.7417 14.52C41.7417 15.87 42.6117 16.62 44.4717 16.62C45.9417 16.62 46.8417 15.855 46.8417 14.655L46.6917 4.38L48.2217 4.29V12C48.2217 13.02 48.8967 13.23 49.4217 13.23C49.9317 13.23 50.3367 13.62 50.3367 14.13C50.3367 14.625 49.9317 15 49.4217 15C48.9267 15 48.5067 14.835 48.2217 14.505V14.55C48.2217 15.435 48.0717 16.095 47.7117 16.65C47.1417 17.52 46.0917 18.39 44.2317 18.39ZM49.4297 15C48.9197 15 48.5297 14.64 48.5297 14.1C48.5297 13.575 48.9197 13.23 49.4297 13.23C50.1197 13.23 50.8247 12.9 51.1247 12.03C51.3497 11.385 51.3797 11.055 51.4397 10.485L52.6997 10.56C52.6697 11.01 52.6547 11.28 52.6547 11.58C52.6547 12.36 52.8047 12.69 53.2697 12.96C54.9047 10.17 56.6147 9.09 58.3097 9.09C59.8697 9.09 61.1297 10.62 61.1297 11.865C61.1297 12.315 61.0097 12.81 60.5747 13.275L61.5797 13.23H61.8047C62.3147 13.23 62.7047 13.62 62.7047 14.115C62.7047 14.64 62.3147 15 61.8047 15H56.3147C53.3447 15 52.2647 14.73 51.8147 13.68C51.2597 14.595 50.4647 15 49.4297 15ZM56.5247 13.32C59.1347 13.32 60.0197 12.825 60.0197 12.045C60.0197 11.43 59.2247 10.71 58.0697 10.71C57.0797 10.71 55.7447 11.25 54.3347 13.23C55.0547 13.32 55.6547 13.32 56.5247 13.32ZM54.1247 8.1L52.8197 6.945L53.9147 5.625L55.2197 6.81L54.1247 8.1ZM61.8047 15C61.2797 15 60.8747 14.595 60.8747 14.085C60.8747 13.575 61.2797 13.23 61.8047 13.23C63.3947 13.23 64.6247 13.2 65.6147 13.035C66.3647 12.885 66.5897 12.675 66.6347 11.805C66.1547 11.985 65.7047 12.12 64.8947 12.12C63.5147 12.12 62.5847 11.46 62.5847 10.125C62.5847 8.37 63.8447 6.84 65.1497 6.84C66.5747 6.84 67.7447 8.475 67.7447 10.725C67.7447 12.765 67.4747 13.755 66.4997 14.31C65.8697 14.64 64.2947 15 61.8047 15ZM65.2547 10.665C65.7797 10.665 66.1997 10.605 66.5897 10.545C66.4247 9.225 65.7197 8.43 64.9547 8.43C64.2947 8.43 63.6497 9.045 63.6497 9.735C63.6497 10.41 64.2797 10.665 65.2547 10.665ZM65.0297 5.7L63.7247 4.545L64.8197 3.225L66.1247 4.41L65.0297 5.7ZM70.0179 15.045L69.8379 4.38L71.3829 4.29V15L70.0179 15.045ZM68.8179 3.87L68.8779 3C69.0279 2.925 69.2529 2.865 69.6129 2.805C69.2979 2.58 69.1179 2.25 69.1179 1.89C69.1179 1.155 69.7779 0.615 70.6329 0.615C71.0829 0.615 71.4129 0.735 71.7579 0.989999L71.3979 1.68C71.1729 1.53 70.8879 1.47 70.6329 1.47C70.2129 1.47 69.8829 1.68 69.8829 2.04C69.8829 2.37 70.1379 2.67 70.7379 2.67C71.0829 2.67 71.6079 2.595 72.0129 2.595L71.9529 3.45C71.0229 3.45 69.4029 3.66 68.8179 3.87ZM81.3818 18.57C78.6818 18.57 77.0618 17.16 77.0618 14.58C77.0618 13.695 77.2568 12.87 77.6318 11.985L78.6518 12.27C78.3968 13.05 78.3218 13.59 78.3218 14.31C78.3218 16.08 79.4618 16.815 81.5468 16.815C83.5718 16.815 84.4718 16.14 84.7418 15H83.1368C81.7568 15 80.8118 14.22 80.8118 12.795C80.8118 11.04 82.0868 9.51 83.3918 9.51C84.8468 9.51 86.0168 11.055 86.0168 13.215V13.245C86.3918 13.23 86.7968 13.23 86.8718 13.23C87.3968 13.23 87.7868 13.62 87.7868 14.115C87.7868 14.61 87.4118 15 86.8718 15H85.9418C85.7468 17.04 84.2318 18.57 81.3818 18.57ZM83.4968 13.305C83.7668 13.305 84.1718 13.305 84.9218 13.275C84.8318 11.91 84.0218 11.1 83.1968 11.1C82.5368 11.1 81.8918 11.715 81.8918 12.405C81.8918 13.065 82.5218 13.305 83.4968 13.305ZM82.1618 8.28L80.9918 7.23L81.9818 6.045L83.1518 7.11L82.1618 8.28ZM84.3818 8.28L83.2118 7.23L84.2018 6.045L85.3718 7.11L84.3818 8.28ZM86.8711 15C86.3611 15 85.9711 14.64 85.9711 14.1C85.9711 13.575 86.3611 13.23 86.8711 13.23C87.5611 13.23 88.2661 12.885 88.5661 12.03C88.7911 11.385 88.8211 11.055 88.8811 10.485L90.1411 10.56C90.1111 11.01 90.0961 11.415 90.0961 11.76C90.0961 12.78 90.7861 13.23 91.8061 13.23C92.3161 13.23 92.7061 13.575 92.7061 14.1C92.7061 14.64 92.3161 15 91.8061 15C90.4861 15 89.6161 14.595 89.2411 13.695C88.6861 14.595 87.9061 15 86.8711 15ZM87.9511 18.75L86.7811 17.7L87.7711 16.515L88.9411 17.58L87.9511 18.75ZM90.1711 18.75L89.0011 17.7L89.9911 16.515L91.1611 17.58L90.1711 18.75ZM91.8105 15C91.2555 15 90.9105 14.715 90.9105 14.115C90.9105 13.515 91.2555 13.23 91.8105 13.23C92.5755 13.23 93.2655 13.14 93.8355 13.005C93.1605 12.345 92.8605 11.565 92.8605 10.83C92.8605 9.195 94.1505 7.83 95.4255 7.83C96.6255 7.83 97.7955 9.225 97.7955 10.71C97.7955 11.52 97.4205 12.33 96.7305 13.005C97.3005 13.14 97.9905 13.23 98.8155 13.23C99.3855 13.23 99.7305 13.515 99.7305 14.115C99.7305 14.7 99.3855 15 98.8155 15C97.3605 15 96.1605 14.715 95.2455 14.22C94.3305 14.715 93.1455 15 91.8105 15ZM95.2905 12.66C96.2205 12.21 96.7305 11.61 96.7305 11.055C96.7305 10.17 95.9955 9.45 95.3805 9.45C94.6755 9.45 93.9405 10.2 93.9405 10.95C93.9405 11.49 94.3305 12.18 95.2905 12.66ZM94.2405 6.72L93.0705 5.67L94.0605 4.485L95.2305 5.55L94.2405 6.72ZM96.4605 6.72L95.2905 5.67L96.2805 4.485L97.4505 5.55L96.4605 6.72ZM98.8242 15C98.2992 15 97.9092 14.61 97.9092 14.1C97.9092 13.575 98.2992 13.23 98.8242 13.23C101.344 13.23 103.639 11.52 105.229 10.98C103.444 10.185 102.784 10.08 102.184 10.08C101.299 10.08 100.804 10.335 100.534 10.98L99.5442 10.455C99.9342 9.21 100.789 8.49 102.169 8.49C103.219 8.49 103.909 8.94 107.824 10.395L107.404 11.805C107.284 11.79 107.089 11.745 106.864 11.745C106.699 11.745 106.429 11.79 106.174 11.865C106.249 12.915 107.044 13.23 108.514 13.23H108.964C109.549 13.23 109.864 13.62 109.864 14.115C109.864 14.625 109.549 15 108.964 15H108.484C106.474 15 105.139 14.01 105.139 12.375C105.139 12.36 105.139 12.345 105.139 12.345C103.354 13.35 101.194 15 98.8242 15ZM108.967 15C108.457 15 108.067 14.64 108.067 14.1C108.067 13.575 108.457 13.23 108.967 13.23C109.657 13.23 110.362 12.885 110.662 12.03C110.887 11.385 110.917 11.055 110.977 10.485L112.237 10.56C112.207 11.01 112.192 11.415 112.192 11.76C112.192 12.78 112.882 13.23 113.902 13.23C114.412 13.23 114.802 13.575 114.802 14.1C114.802 14.64 114.412 15 113.902 15C112.582 15 111.712 14.595 111.337 13.695C110.782 14.595 110.002 15 108.967 15ZM110.527 9.18L109.357 8.13L110.347 6.945L111.517 8.01L110.527 9.18ZM112.747 9.18L111.577 8.13L112.567 6.945L113.737 8.01L112.747 9.18ZM113.906 15C113.381 15 113.006 14.595 113.006 14.1C113.006 13.575 113.381 13.23 113.906 13.23C114.701 13.23 115.136 12.765 115.136 11.535L115.031 4.38L116.576 4.29V11.7C116.576 13.935 115.646 15 113.906 15ZM125.952 18.39C123.687 18.39 122.202 17.07 122.202 14.79C122.202 13.89 122.427 12.99 122.742 12.24L123.777 12.51C123.582 13.11 123.462 13.755 123.462 14.52C123.462 15.87 124.332 16.62 126.192 16.62C127.632 16.62 128.727 15.93 128.727 14.94C128.727 13.695 128.487 12.6 127.902 10.92L129.447 10.605C129.627 11.25 129.747 11.805 129.882 12.45C130.002 13.05 130.347 13.23 130.752 13.23C131.562 13.23 131.937 12.345 132.102 10.8L133.302 10.875C133.242 11.25 133.242 11.55 133.242 11.79C133.242 12.87 133.677 13.23 134.292 13.23C134.892 13.23 135.192 12.765 135.192 12.165C135.192 11.415 135.012 10.56 134.832 9.93L136.317 9.705C136.452 10.59 136.512 11.385 136.512 12.135C136.512 12.765 136.347 13.425 136.047 13.92C135.642 14.565 135.057 15 134.277 15C133.497 15 132.807 14.625 132.477 13.815C132.042 14.64 131.502 15 130.722 15C130.542 15 130.302 14.97 130.062 14.865C130.047 15.615 129.837 16.215 129.522 16.71C128.922 17.64 127.842 18.39 125.952 18.39ZM138.537 15.045L138.357 4.38L139.902 4.29V15L138.537 15.045ZM137.337 3.87L137.397 3C137.547 2.925 137.772 2.865 138.132 2.805C137.817 2.58 137.637 2.25 137.637 1.89C137.637 1.155 138.297 0.615 139.152 0.615C139.602 0.615 139.932 0.735 140.277 0.989999L139.917 1.68C139.692 1.53 139.407 1.47 139.152 1.47C138.732 1.47 138.402 1.68 138.402 2.04C138.402 2.37 138.657 2.67 139.257 2.67C139.602 2.67 140.127 2.595 140.532 2.595L140.472 3.45C139.542 3.45 137.922 3.66 137.337 3.87ZM139.841 18.99L139.346 17.445C141.941 16.905 142.991 15.48 142.991 13.92C142.991 13.11 142.676 11.895 142.271 10.785L143.906 10.38C144.041 10.995 144.146 11.49 144.236 11.94C144.401 12.705 144.911 13.23 145.721 13.23C146.231 13.23 146.621 13.62 146.621 14.115C146.621 14.625 146.231 15 145.721 15C145.211 15 144.686 14.82 144.326 14.355C144.041 16.665 142.451 18.495 139.841 18.99ZM145.723 15C145.198 15 144.823 14.595 144.823 14.1C144.823 13.575 145.198 13.23 145.723 13.23C146.518 13.23 146.953 12.765 146.953 11.535L146.848 4.38L148.393 4.29V11.7C148.393 13.935 147.463 15 145.723 15ZM150.842 15.045L150.662 4.38L152.207 4.29V15L150.842 15.045ZM162.821 15.36C159.536 15.36 157.886 14.19 157.886 11.97C157.886 11.205 158.081 10.47 158.396 9.705L159.431 9.915C159.251 10.485 159.146 10.995 159.146 11.625C159.146 13.02 160.331 13.59 163.046 13.59C165.926 13.59 168.086 13.08 168.086 12.15C168.086 11.25 167.816 10.23 167.531 9.27L169.016 9.03C169.226 10.02 169.346 11.175 169.346 12.03C169.346 13.05 169.031 13.695 168.431 14.115C167.786 14.565 166.076 15.36 162.821 15.36ZM162.446 8.94L161.276 7.89L162.266 6.705L163.436 7.77L162.446 8.94ZM164.666 8.94L163.496 7.89L164.486 6.705L165.656 7.77L164.666 8.94ZM174.152 15C172.727 15 171.587 13.98 171.542 12.12L171.422 4.38L172.967 4.29V11.91C172.967 12.99 173.567 13.23 174.152 13.23C174.662 13.23 175.052 13.62 175.052 14.115C175.052 14.64 174.662 15 174.152 15ZM174.146 15C173.636 15 173.231 14.61 173.231 14.1C173.231 13.605 173.606 13.23 174.146 13.23H174.371C174.656 13.23 175.091 13.23 175.811 13.215C175.271 12.735 174.971 12.045 174.971 11.34C174.971 9.585 176.396 8.085 178.016 8.085C178.871 8.085 179.591 8.37 180.221 8.94L179.516 10.05C178.901 9.765 178.526 9.69 177.911 9.69C176.906 9.69 176.141 10.395 176.141 11.325C176.141 12.24 177.026 13.08 178.241 13.08C178.841 13.08 179.876 12.84 180.851 12.615L180.746 14.235C179.141 14.79 176.936 15 174.401 15H174.146ZM185.226 15C183.801 15 182.661 13.98 182.616 12.12L182.496 4.38L184.041 4.29V11.91C184.041 12.99 184.641 13.23 185.226 13.23C185.736 13.23 186.126 13.62 186.126 14.115C186.126 14.64 185.736 15 185.226 15ZM190.051 15.18C189.136 15.18 188.056 14.655 187.441 13.635C186.856 14.655 186.196 15 185.221 15C184.696 15 184.321 14.625 184.321 14.13C184.321 13.575 184.696 13.23 185.221 13.23C186.106 13.23 186.556 12.795 186.961 11.955C187.891 10.17 188.566 9.51 189.661 9.51C190.621 9.51 191.686 10.485 192.046 11.79C192.376 12.885 192.991 13.23 193.816 13.23C194.326 13.23 194.716 13.62 194.716 14.115C194.716 14.61 194.326 15 193.816 15C193.051 15 192.361 14.655 191.881 13.95C191.566 14.7 190.951 15.18 190.051 15.18ZM190.126 13.62C190.651 13.62 190.951 13.32 190.951 12.84C190.951 11.955 190.036 11.1 189.466 11.1C188.851 11.1 188.461 11.52 188.101 12.42C188.521 13.26 189.526 13.62 190.126 13.62ZM193.816 15C193.291 15 192.901 14.61 192.901 14.1C192.901 13.575 193.291 13.23 193.816 13.23C194.476 13.23 195.046 12.975 195.361 12.345C195.556 11.94 195.631 11.565 195.706 10.98L196.936 11.055C196.891 11.4 196.876 11.61 196.876 11.88C196.876 12.9 197.266 13.23 197.806 13.23C198.616 13.23 198.991 12.345 199.156 10.8L200.356 10.875C200.296 11.25 200.296 11.55 200.296 11.79C200.296 12.87 200.731 13.23 201.346 13.23C201.946 13.23 202.246 12.765 202.246 12.165C202.246 11.415 202.081 10.56 201.886 9.93L203.371 9.705C203.506 10.59 203.566 11.385 203.566 12.135C203.566 12.765 203.401 13.425 203.101 13.92C202.696 14.565 202.111 15 201.331 15C200.551 15 199.861 14.625 199.531 13.815C199.096 14.64 198.556 15 197.776 15C196.996 15 196.246 14.61 195.976 13.74C195.436 14.61 194.716 15 193.816 15ZM209.345 19.23C209.18 14.73 209.18 13.77 209.18 13.395C209.18 12.165 210.065 11.46 212.015 11.46C212.915 11.46 213.8 11.595 214.52 11.76C213.92 10.065 213.215 9.48 212.315 9.48C211.595 9.48 211.04 9.915 210.755 10.59L209.705 10.2C210.095 8.805 211.16 7.92 212.39 7.92C213.995 7.92 215.3 9.285 215.915 11.895L215.06 13.335C214.19 13.14 212.975 13.02 212.12 13.02C211.04 13.02 210.635 13.29 210.635 13.95C210.635 14.325 210.65 14.76 210.86 19.23H209.345ZM218.026 15.045L217.846 4.38L219.391 4.29V15L218.026 15.045ZM223.513 15.165C222.598 15.165 222.013 15.12 221.383 14.94L221.188 13.215C221.758 13.335 222.373 13.41 223.438 13.41C224.998 13.41 225.643 13.02 225.643 12.45C225.643 11.895 225.388 11.04 225.238 10.365C225.028 9.465 224.803 8.595 224.593 7.65L226.003 7.44C226.333 9.06 226.708 10.755 226.963 11.685C227.293 12.945 228.088 13.23 228.748 13.23C229.258 13.23 229.663 13.62 229.663 14.115C229.663 14.625 229.273 15 228.748 15C227.848 15 227.113 14.715 226.483 13.83C226.423 13.95 226.348 14.07 226.258 14.19C225.733 14.865 224.803 15.165 223.513 15.165ZM228.744 15C228.219 15 227.829 14.61 227.829 14.1C227.829 13.575 228.219 13.23 228.744 13.23C231.264 13.23 233.559 11.52 235.149 10.98C233.364 10.185 232.704 10.08 232.104 10.08C231.219 10.08 230.724 10.335 230.454 10.98L229.464 10.455C229.854 9.21 230.709 8.49 232.089 8.49C233.139 8.49 233.829 8.94 237.744 10.395L237.324 11.805C237.204 11.79 237.009 11.745 236.784 11.745C236.619 11.745 236.349 11.79 236.094 11.865C236.169 12.915 236.964 13.23 238.434 13.23H238.884C239.469 13.23 239.784 13.62 239.784 14.115C239.784 14.625 239.469 15 238.884 15H238.404C236.394 15 235.059 14.01 235.059 12.375C235.059 12.36 235.059 12.345 235.059 12.345C233.274 13.35 231.114 15 228.744 15ZM233.889 7.65L232.584 6.495L233.679 5.175L234.984 6.36L233.889 7.65ZM238.887 15C238.377 15 237.987 14.64 237.987 14.1C237.987 13.575 238.377 13.23 238.887 13.23C239.577 13.23 240.282 12.885 240.582 12.03C240.807 11.385 240.837 11.055 240.897 10.485L242.157 10.56C242.127 11.01 242.112 11.415 242.112 11.76C242.112 12.78 242.802 13.23 243.822 13.23C244.332 13.23 244.722 13.575 244.722 14.1C244.722 14.64 244.332 15 243.822 15C242.502 15 241.632 14.595 241.257 13.695C240.702 14.595 239.922 15 238.887 15ZM240.447 9.18L239.277 8.13L240.267 6.945L241.437 8.01L240.447 9.18ZM242.667 9.18L241.497 8.13L242.487 6.945L243.657 8.01L242.667 9.18ZM243.826 15C243.301 15 242.911 14.61 242.911 14.1C242.911 13.575 243.301 13.23 243.826 13.23C244.486 13.23 245.056 12.975 245.371 12.345C245.566 11.94 245.641 11.565 245.716 10.98L246.946 11.055C246.901 11.4 246.886 11.61 246.886 11.88C246.886 12.9 247.276 13.23 247.816 13.23C248.626 13.23 249.001 12.345 249.166 10.8L250.366 10.875C250.306 11.25 250.306 11.55 250.306 11.79C250.306 12.87 250.741 13.23 251.356 13.23C251.956 13.23 252.256 12.765 252.256 12.165C252.256 11.415 252.091 10.56 251.896 9.93L253.381 9.705C253.516 10.59 253.576 11.385 253.576 12.135C253.576 12.765 253.411 13.425 253.111 13.92C252.706 14.565 252.121 15 251.341 15C250.561 15 249.871 14.625 249.541 13.815C249.106 14.64 248.566 15 247.786 15C247.006 15 246.256 14.61 245.986 13.74C245.446 14.61 244.726 15 243.826 15ZM258.158 15C256.733 15 255.593 13.98 255.548 12.12L255.428 4.38L256.973 4.29V11.91C256.973 12.99 257.573 13.23 258.158 13.23C258.668 13.23 259.058 13.62 259.058 14.115C259.058 14.64 258.668 15 258.158 15ZM258.152 15C257.597 15 257.222 14.64 257.222 14.04C257.222 13.575 257.612 13.23 258.152 13.23C259.802 13.23 260.492 12.9 260.492 12.345C260.492 11.4 260.252 9.9 259.952 8.865L261.467 8.55C261.662 9.555 261.812 10.965 261.812 12.135C261.812 12.915 261.557 13.515 261.122 13.98C260.477 14.715 259.442 15 258.152 15ZM260.417 18.675L259.112 17.52L260.207 16.2L261.512 17.385L260.417 18.675ZM272.31 19.98C269.085 19.98 267.18 18.45 267.18 15.96C267.18 13.23 269.67 11.085 272.505 10.5C271.02 9.87 270.405 9.78 269.85 9.78C268.965 9.78 268.47 10.02 268.2 10.68L267.21 10.155C267.6 8.91 268.455 8.19 269.835 8.19C270.93 8.19 271.575 8.64 275.49 10.095L275.07 11.505C274.77 11.475 274.23 11.46 273.96 11.475C273.96 11.49 273.96 11.52 273.96 11.55C273.96 12.9 274.98 13.23 276.72 13.23C277.305 13.23 277.635 13.62 277.635 14.115C277.635 14.61 277.32 15 276.72 15C274.23 15 272.88 14.055 272.88 12.285C272.88 12.045 272.91 11.805 272.955 11.55C270.57 11.955 268.44 13.605 268.44 15.555C268.44 17.34 269.895 18.27 272.4 18.27C273.51 18.27 274.44 18.15 275.37 17.88L275.295 19.305C274.53 19.725 273.39 19.98 272.31 19.98ZM276.715 15C276.205 15 275.815 14.64 275.815 14.1C275.815 13.575 276.205 13.23 276.715 13.23C277.405 13.23 278.11 12.9 278.41 12.03C278.635 11.385 278.665 11.055 278.725 10.485L279.985 10.56C279.955 11.01 279.94 11.28 279.94 11.58C279.94 12.36 280.09 12.69 280.555 12.96C282.19 10.17 283.9 9.09 285.595 9.09C287.155 9.09 288.415 10.62 288.415 11.865C288.415 12.315 288.295 12.81 287.86 13.275L288.865 13.23H289.09C289.6 13.23 289.99 13.62 289.99 14.115C289.99 14.64 289.6 15 289.09 15H283.6C280.63 15 279.55 14.73 279.1 13.68C278.545 14.595 277.75 15 276.715 15ZM283.81 13.32C286.42 13.32 287.305 12.825 287.305 12.045C287.305 11.43 286.51 10.71 285.355 10.71C284.365 10.71 283.03 11.25 281.62 13.23C282.34 13.32 282.94 13.32 283.81 13.32ZM289.09 15C288.58 15 288.19 14.64 288.19 14.1C288.19 13.575 288.58 13.23 289.09 13.23C289.78 13.23 290.485 12.885 290.785 12.03C291.01 11.385 291.04 11.055 291.1 10.485L292.36 10.56C292.33 11.01 292.315 11.415 292.315 11.76C292.315 12.78 293.005 13.23 294.025 13.23C294.535 13.23 294.925 13.575 294.925 14.1C294.925 14.64 294.535 15 294.025 15C292.705 15 291.835 14.595 291.46 13.695C290.905 14.595 290.125 15 289.09 15ZM291.775 9.18L290.47 8.025L291.565 6.705L292.87 7.89L291.775 9.18ZM294.029 15C293.474 15 293.099 14.64 293.099 14.04C293.099 13.575 293.489 13.23 294.029 13.23C295.679 13.23 296.369 12.9 296.369 12.345C296.369 11.4 296.129 9.9 295.829 8.865L297.344 8.55C297.539 9.555 297.689 10.965 297.689 12.135C297.689 12.915 297.434 13.515 296.999 13.98C296.354 14.715 295.319 15 294.029 15ZM296.624 7.2L295.319 6.045L296.414 4.725L297.719 5.91L296.624 7.2Z" fill="black"/>
</svg>
