<svg preserveAspectRatio="xMidYMid meet" viewBox="0 0 1506 183" fill="none" xmlns="http://www.w3.org/2000/svg">
<path d="M79.9361 139.359C65.0494 139.359 53.4494 131.239 51.1294 115.386C42.6228 120.413 34.6961 123.313 24.4494 123.313C10.7228 123.313 0.476107 114.806 0.476107 99.3394C0.476107 79.426 16.3294 62.9927 47.2628 53.906L47.0694 41.5327L63.8894 40.3727V102.046C63.8894 116.159 72.0094 119.833 79.9361 119.833C85.5428 119.833 89.9894 124.086 89.9894 129.499C89.9894 135.299 85.5428 139.359 79.9361 139.359ZM25.4161 105.333C33.1494 105.333 40.6894 103.206 48.0361 98.7594L47.8428 71.4994C26.9628 75.366 12.6561 85.226 12.6561 95.4727C12.6561 102.433 17.6828 105.333 25.4161 105.333ZM31.0228 27.806L17.4894 15.626L29.0894 1.89937L42.6228 14.2727L31.0228 27.806ZM58.4761 27.806L44.9428 15.626L56.5428 1.89937L70.0761 14.2727L58.4761 27.806ZM80.0146 139.359C74.2146 139.359 69.9613 134.913 69.9613 129.499C69.9613 123.699 74.2146 119.833 80.0146 119.833C90.648 119.833 96.2546 113.646 96.2546 97.986L95.0946 2.0927L112.301 0.932702V99.9194C112.301 126.599 101.088 139.359 80.0146 139.359ZM175.539 139.359C158.719 139.359 144.413 127.373 144.026 104.366L142.673 2.0927L159.879 0.932702V102.046C159.879 116.546 167.999 119.833 175.539 119.833C181.146 119.833 185.593 124.086 185.593 129.499C185.593 135.299 181.146 139.359 175.539 139.359ZM175.624 139.359L173.497 119.833H227.631C233.431 119.833 237.684 124.086 237.684 129.499C237.684 135.299 233.431 139.359 227.631 139.359H175.624ZM227.733 139.359L225.607 119.833H279.74C285.54 119.833 289.793 124.086 289.793 129.499C289.793 135.299 285.54 139.359 279.74 139.359H227.733ZM279.843 139.359L277.716 119.833H331.849C337.649 119.833 341.903 124.086 341.903 129.499C341.903 135.299 337.649 139.359 331.849 139.359H279.843ZM331.952 139.359L329.825 119.833H383.959C389.759 119.833 394.012 124.086 394.012 129.499C394.012 135.299 389.759 139.359 383.959 139.359H331.952ZM384.062 139.359L381.935 119.833H436.068C441.868 119.833 446.122 124.086 446.122 129.499C446.122 135.299 441.868 139.359 436.068 139.359H384.062ZM436.171 139.359L434.044 119.833H488.178C493.978 119.833 498.231 124.086 498.231 129.499C498.231 135.299 493.978 139.359 488.178 139.359H436.171ZM488.28 139.359L486.154 119.833H540.287C546.087 119.833 550.34 124.086 550.34 129.499C550.34 135.299 546.087 139.359 540.287 139.359H488.28ZM540.39 139.359L538.263 119.833H592.396C598.196 119.833 602.45 124.086 602.45 129.499C602.45 135.299 598.196 139.359 592.396 139.359H540.39ZM592.499 139.359L590.372 119.833H644.506C650.306 119.833 654.559 124.086 654.559 129.499C654.559 135.299 650.306 139.359 644.506 139.359H592.499ZM644.608 139.359L642.482 119.833H696.615C702.415 119.833 706.668 124.086 706.668 129.499C706.668 135.299 702.415 139.359 696.615 139.359H644.608ZM696.718 139.359L694.591 119.833H748.724C754.524 119.833 758.778 124.086 758.778 129.499C758.778 135.299 754.524 139.359 748.724 139.359H696.718ZM748.827 139.359L746.7 119.833H800.834C806.634 119.833 810.887 124.086 810.887 129.499C810.887 135.299 806.634 139.359 800.834 139.359H748.827ZM800.937 139.359L798.81 119.833H852.943C858.743 119.833 862.997 124.086 862.997 129.499C862.997 135.299 858.743 139.359 852.943 139.359H800.937ZM853.046 139.359C847.246 139.359 842.993 135.299 842.993 129.499C842.993 123.699 847.246 119.833 853.046 119.833C861.746 119.833 869.093 116.353 873.153 108.039C875.859 102.433 876.826 97.7927 877.793 90.446L891.519 91.2194C890.939 95.8594 890.746 98.3727 890.746 101.853C890.746 115.193 895.966 119.833 903.119 119.833C913.946 119.833 919.166 107.653 921.293 88.126L934.439 88.8994C933.666 93.926 933.666 97.7927 933.666 100.886C933.666 114.999 939.466 119.833 947.586 119.833C955.706 119.833 959.766 113.453 959.766 105.913C959.766 96.0527 957.639 84.8394 955.126 76.526L971.559 74.0127C973.493 85.226 974.266 95.666 974.266 105.139C974.266 112.486 972.526 120.026 969.046 126.019C964.406 133.946 957.253 139.359 947.393 139.359C937.339 139.359 928.833 134.526 924.966 123.699C919.553 134.526 912.786 139.359 902.733 139.359C892.873 139.359 883.786 134.333 880.499 122.926C873.926 134.139 864.453 139.359 853.046 139.359ZM967.747 181.119L962.527 163.719C996.36 156.566 1009.89 136.846 1009.89 115.773C1009.89 101.466 1004.87 86.1927 998.874 70.726L1016.85 66.2794C1021.3 80.1994 1025.36 97.2127 1025.36 112.293C1025.36 145.546 1005.06 173.579 967.747 181.119ZM1143.05 182.859C1114.83 182.859 1096.07 167.006 1096.07 138.199C1096.07 126.599 1098.97 114.999 1103.03 105.526L1114.63 108.619C1111.93 116.353 1110.38 125.053 1110.38 135.299C1110.38 153.859 1122.17 163.333 1145.76 163.333C1165.48 163.333 1178.24 152.893 1178.24 136.266L1176.69 2.0927L1193.71 0.932702V103.593C1193.71 117.126 1202.6 119.833 1209.56 119.833C1215.36 119.833 1219.61 124.086 1219.61 129.693C1219.61 135.299 1215.36 139.359 1209.56 139.359C1202.99 139.359 1197.38 137.233 1193.71 132.593V134.719C1193.71 145.739 1191.77 153.666 1187.33 160.819C1180.56 171.453 1167.41 182.859 1143.05 182.859ZM1271.72 141.679C1259.92 141.679 1245.81 134.526 1238.08 121.379C1230.92 134.719 1222.42 139.359 1209.66 139.359C1203.86 139.359 1199.8 135.299 1199.8 129.693C1199.8 123.699 1203.86 119.833 1209.66 119.833C1222.03 119.833 1227.44 113.453 1233.05 101.659C1244.07 79.8127 1252.77 71.306 1266.3 71.306C1278.29 71.306 1291.44 83.2927 1296.08 99.726C1300.72 114.999 1309.22 119.833 1320.05 119.833C1325.66 119.833 1329.91 124.279 1329.91 129.693C1329.91 134.913 1325.85 139.359 1320.05 139.359C1310.19 139.359 1301.1 134.719 1294.72 125.246C1291.24 135.299 1283.32 141.679 1271.72 141.679ZM1272.68 124.279C1279.84 124.279 1284.09 120.219 1284.09 113.259C1284.09 100.693 1272.1 88.8994 1264.18 88.8994C1255.86 88.8994 1250.45 94.6994 1245.62 107.653C1251.03 119.446 1264.76 124.279 1272.68 124.279ZM1319.99 139.359C1314.19 139.359 1309.94 135.299 1309.94 129.499C1309.94 123.699 1314.19 119.833 1319.99 119.833C1353.05 119.833 1383.02 96.6327 1403.9 89.6727C1378.57 78.846 1369.87 77.4927 1362.14 77.4927C1350.92 77.4927 1344.35 80.586 1340.68 90.0594L1329.46 84.2594C1334.49 68.406 1345.12 59.8994 1361.94 59.8994C1374.7 59.8994 1383.6 64.7327 1432.9 83.486L1428.45 99.146C1426.9 98.7594 1424.78 98.3727 1422.07 98.3727C1419.94 98.3727 1416.46 98.9527 1412.98 100.113C1413.76 115.386 1424 119.833 1442.76 119.833H1448.56C1454.94 119.833 1458.61 124.086 1458.61 129.499C1458.61 135.106 1454.94 139.359 1448.56 139.359H1442.37C1417.62 139.166 1401.38 126.986 1401.38 106.493C1401.38 106.106 1401.38 105.719 1401.38 105.333C1378.18 118.286 1350.54 139.359 1319.99 139.359ZM1448.45 139.359C1442.07 139.359 1438.01 135.493 1438.01 128.919C1438.01 123.699 1442.27 119.833 1448.45 119.833C1469.72 119.833 1479 115.386 1479 107.846C1479 94.6994 1476.1 76.526 1472.04 62.7994L1489.05 59.3194C1491.76 72.466 1493.69 90.0594 1493.69 105.139C1493.69 114.613 1490.79 121.766 1485.19 127.373C1477.07 136.073 1464.11 139.359 1448.45 139.359ZM1466.43 40.3727L1452.9 28.1927L1464.5 14.466L1478.03 26.8394L1466.43 40.3727ZM1493.89 40.3727L1480.35 28.1927L1491.95 14.466L1505.49 26.8394L1493.89 40.3727Z" fill="#E56E53"/>
</svg>
