<svg preserveAspectRatio="xMidYMid meet" viewBox="0 0 430 119" fill="none" xmlns="http://www.w3.org/2000/svg">
<path d="M25.5272 108.042C8.51719 108.042 0.687187 99.8522 0.687187 86.8022C0.687187 80.8622 2.03719 76.6322 4.28719 71.5922L10.4072 72.9422C8.87719 77.0822 8.24719 80.1422 8.24719 84.6422C8.24719 93.4622 13.2872 97.7822 26.6072 97.7822C39.0272 97.7822 47.4872 92.9222 47.4872 88.3322C47.4872 86.1722 46.4972 85.1822 41.8172 84.1022L34.9772 82.4822C28.8572 81.0422 25.7072 78.2522 25.7072 70.7822C25.7072 61.3322 35.8772 50.8022 45.3272 50.8022C49.5572 50.8022 52.7072 52.1522 56.1272 54.5822L51.8972 62.5022C49.4672 61.1522 47.2172 60.4322 44.6072 60.4322C38.7572 60.4322 32.6372 64.8422 32.6372 69.3422C32.6372 71.9522 34.1672 72.8522 39.5672 74.2022L46.4072 75.9122C52.7072 77.6222 54.9572 80.4122 54.9572 86.4422C54.9572 97.9622 43.7072 108.042 25.5272 108.042ZM64.5183 116.862L61.6383 107.592C76.8483 105.882 84.4083 100.212 87.1083 92.7422H78.0183C69.6483 92.6522 64.0683 88.0622 64.0683 79.5122C64.0683 68.9822 71.6283 59.8022 79.5483 59.8022C88.1883 59.8022 95.2083 69.0722 95.2083 82.0322V82.3022C97.9083 82.1222 99.7983 82.1222 100.068 82.1222C103.128 82.1222 105.468 84.4622 105.468 87.4322C105.468 90.4922 103.218 92.7422 100.068 92.7422H94.0383C90.7983 105.882 81.4383 114.702 64.5183 116.862ZM79.5483 82.5722C82.6983 82.5722 84.7683 82.4822 88.7283 82.3922C88.1883 74.2022 83.1483 69.3422 78.3783 69.3422C74.3283 69.3422 70.5483 72.9422 70.5483 77.0822C70.5483 80.8622 74.2383 82.5722 79.5483 82.5722ZM100.043 92.7422C96.983 92.7422 94.643 90.5822 94.643 87.3422C94.643 84.1922 96.983 82.1222 100.043 82.1222C104.183 82.1222 108.413 80.0522 110.213 74.9222C111.563 71.0522 111.743 69.0722 112.103 65.6522L119.663 66.1022C119.483 68.8022 119.393 71.2322 119.393 73.3022C119.393 79.4222 123.533 82.1222 129.653 82.1222C132.713 82.1222 135.053 84.1922 135.053 87.3422C135.053 90.5822 132.713 92.7422 129.653 92.7422C121.733 92.7422 116.513 90.3122 114.263 84.9122C110.933 90.3122 106.253 92.7422 100.043 92.7422ZM109.403 57.8222L102.383 51.5222L108.323 44.4122L115.343 50.8022L109.403 57.8222ZM122.723 57.8222L115.703 51.5222L121.643 44.4122L128.663 50.8022L122.723 57.8222ZM129.68 92.7422C126.53 92.7422 124.19 90.4022 124.19 87.3422C124.19 84.1922 126.53 82.1222 129.68 82.1222C144.8 82.1222 158.57 71.8622 168.11 68.6222C157.4 63.8522 153.44 63.2222 149.84 63.2222C144.53 63.2222 141.56 64.7522 139.94 68.6222L134 65.4722C136.34 58.0022 141.47 53.6822 149.75 53.6822C156.05 53.6822 160.19 56.3822 183.68 65.1122L181.16 73.5722C180.44 73.4822 179.27 73.2122 177.92 73.2122C176.93 73.2122 175.31 73.4822 173.78 73.9322C174.23 80.2322 179 82.1222 187.82 82.1222H190.52C194.03 82.1222 195.92 84.4622 195.92 87.4322C195.92 90.4922 194.03 92.7422 190.52 92.7422H187.64C175.58 92.7422 167.57 86.8022 167.57 76.9922C167.57 76.9022 167.57 76.8122 167.57 76.8122C156.86 82.8422 143.9 92.7422 129.68 92.7422ZM190.535 92.7422C187.385 92.7422 185.135 90.4922 185.135 87.5222C185.135 84.1922 187.385 82.1222 190.535 82.1222C195.845 82.1222 198.275 78.9722 200.975 73.3922C206.555 62.6822 210.605 58.7222 217.175 58.7222C224.195 58.7222 232.295 67.4522 232.295 78.0722C232.295 86.9822 227.165 92.7422 219.515 92.7422C214.025 92.7422 207.545 89.5922 203.855 83.4722C200.165 90.4922 196.565 92.7422 190.535 92.7422ZM219.965 83.3822C223.115 83.3822 224.915 81.5822 224.915 78.7022C224.915 73.3922 219.425 68.2622 216.005 68.2622C212.315 68.2622 209.975 70.7822 207.815 76.1822C210.335 81.2222 216.365 83.3822 219.965 83.3822ZM268.095 118.122C267.105 91.1222 267.105 85.3622 267.105 83.1122C267.105 75.7322 272.415 71.5022 284.115 71.5022C289.515 71.5022 294.825 72.3122 299.145 73.3022C295.545 63.1322 291.315 59.6222 285.915 59.6222C281.595 59.6222 278.265 62.2322 276.555 66.2822L270.255 63.9422C272.595 55.5722 278.985 50.2622 286.365 50.2622C295.995 50.2622 303.825 58.4522 307.515 74.1122L302.385 82.7522C297.165 81.5822 289.875 80.8622 284.745 80.8622C278.265 80.8622 275.835 82.4822 275.835 86.4422C275.835 88.6922 275.925 91.3022 277.185 118.122H268.095ZM323.649 31.8822L322.389 26.4822L346.959 21.0822L348.309 26.4822L323.649 31.8822ZM328.149 18.2922C324.729 18.2922 321.849 15.8622 321.849 9.65218C321.849 7.22219 322.029 5.87219 322.479 3.89218L326.439 4.25218C325.899 6.23219 325.719 7.76219 325.719 9.29218C325.719 12.4422 326.979 13.1622 328.329 13.1622C330.939 13.1622 332.559 9.47218 332.919 3.53218L336.699 3.89218C336.429 5.42219 336.429 6.77219 336.429 8.30218C336.429 11.2722 337.959 12.1722 339.489 12.1722C341.559 12.1722 342.639 10.8222 342.639 7.49219C342.639 5.78219 342.279 3.71218 341.559 1.37218L346.149 0.652185C346.779 3.53218 346.869 5.78219 346.869 7.58219C346.869 10.3722 346.419 12.8922 345.159 14.5122C344.079 16.0422 342.459 17.2122 339.849 17.2122C337.419 17.2122 335.169 15.8622 334.359 13.1622C333.279 16.1322 331.299 18.2922 328.149 18.2922ZM327.898 93.7322C322.408 93.7322 318.898 93.4622 315.118 92.3822L313.948 82.0322C317.368 82.7522 321.058 83.2022 327.448 83.2022C336.808 83.2022 340.678 80.8622 340.678 77.4422C340.678 74.1122 339.148 68.9822 338.248 64.9322C336.988 59.5322 335.638 54.3122 334.378 48.6422L342.838 47.3822C344.818 57.1022 347.068 67.2722 348.598 72.8522C350.578 80.4122 355.348 82.1222 359.308 82.1222C362.368 82.1222 364.798 84.4622 364.798 87.4322C364.798 90.4922 362.458 92.7422 359.308 92.7422C353.908 92.7422 349.498 91.0322 345.718 85.7222C345.358 86.4422 344.908 87.1622 344.368 87.8822C341.218 91.9322 335.638 93.7322 327.898 93.7322ZM359.285 92.7422C355.955 92.7422 353.885 91.0322 353.885 87.4322C353.885 83.8322 355.955 82.1222 359.285 82.1222C363.875 82.1222 368.015 81.5822 371.435 80.7722C367.385 76.8122 365.585 72.1322 365.585 67.7222C365.585 57.9122 373.325 49.7222 380.975 49.7222C388.175 49.7222 395.195 58.0922 395.195 67.0022C395.195 71.8622 392.945 76.7222 388.805 80.7722C392.225 81.5822 396.365 82.1222 401.315 82.1222C404.735 82.1222 406.805 83.8322 406.805 87.4322C406.805 90.9422 404.735 92.7422 401.315 92.7422C392.585 92.7422 385.385 91.0322 379.895 88.0622C374.405 91.0322 367.295 92.7422 359.285 92.7422ZM380.165 78.7022C385.745 76.0022 388.805 72.4022 388.805 69.0722C388.805 63.7622 384.395 59.4422 380.705 59.4422C376.475 59.4422 372.065 63.9422 372.065 68.4422C372.065 71.6822 374.405 75.8222 380.165 78.7022ZM373.865 43.0622L366.845 36.7622L372.785 29.6522L379.805 36.0422L373.865 43.0622ZM387.185 43.0622L380.165 36.7622L386.105 29.6522L393.125 36.0422L387.185 43.0622ZM411.177 10.0222C411.177 11.6422 412.617 12.4522 415.227 12.4522C416.847 12.4522 418.107 12.3622 419.007 12.0922V12.0022C419.007 8.67218 416.757 6.96218 414.687 6.96218C412.617 6.96218 411.177 8.22218 411.177 10.0222ZM407.847 26.0422L406.317 21.1822C413.247 20.8222 416.847 19.2922 418.197 16.2322C417.117 16.5922 416.127 16.8622 414.327 16.8622C410.277 16.8622 407.127 14.8822 407.127 10.9222C407.127 6.06219 411.177 1.83218 415.047 1.83218C419.277 1.83218 423.147 5.79219 423.147 11.3722C423.147 20.5522 418.287 24.9622 407.847 26.0422ZM401.367 92.7422C398.037 92.7422 395.787 90.5822 395.787 86.9822C395.787 84.1922 398.127 82.1222 401.367 82.1222C411.267 82.1222 415.407 80.1422 415.407 76.8122C415.407 71.1422 413.967 62.1422 412.167 55.9322L421.257 54.0422C422.427 60.0722 423.327 68.5322 423.327 75.5522C423.327 80.2322 421.797 83.8322 419.187 86.6222C415.317 91.0322 409.107 92.7422 401.367 92.7422ZM410.187 45.9422L403.167 39.6422L409.107 32.5322L416.127 38.9222L410.187 45.9422ZM423.507 45.9422L416.487 39.6422L422.427 32.5322L429.447 38.9222L423.507 45.9422Z" fill="#E56E53"/>
</svg>
