<svg preserveAspectRatio="xMidYMid meet" viewBox="0 0 392 85" fill="none" xmlns="http://www.w3.org/2000/svg">
<path d="M9.9472 37.8357L11.4055 41.5107C7.61387 42.969 5.45553 45.6523 5.51387 48.569C5.68887 48.569 5.86387 48.569 6.03887 48.569C8.31387 48.569 10.3555 50.0857 10.3555 52.7107C10.3555 55.219 8.31387 56.8523 5.86387 56.8523C2.71387 56.8523 0.847201 54.2857 0.847201 49.969C0.847201 44.2523 4.1722 39.819 9.9472 37.8357ZM45.1641 56.1523C40.6141 56.1523 36.9975 53.7023 36.0641 49.094C33.6141 50.6107 31.2225 51.4273 28.1891 51.4273C23.8725 51.4273 20.6641 48.744 20.6641 43.9023C20.6641 37.719 25.0391 32.5857 34.6641 29.7273L34.6058 25.8773L40.4975 25.469V44.1357C40.4975 48.1607 42.8308 49.269 45.1641 49.269C47.1475 49.269 48.7225 50.7857 48.7225 52.7107C48.7225 54.7523 47.1475 56.1523 45.1641 56.1523ZM28.4808 45.1273C30.7558 45.1273 32.9141 44.6023 34.9558 43.3773L34.8975 35.8523C28.8891 36.844 24.8058 39.7023 24.8058 42.5023C24.8058 44.369 26.2058 45.1273 28.4808 45.1273ZM29.9975 21.969L25.4475 17.8857L29.2975 13.2773L33.8475 17.419L29.9975 21.969ZM38.6308 21.969L34.0808 17.8857L37.9308 13.2773L42.4808 17.419L38.6308 21.969ZM63.9347 56.8523C60.3764 56.8523 56.1764 54.8107 53.7847 50.844C51.5097 54.8107 48.943 56.1523 45.1514 56.1523C43.1097 56.1523 41.6514 54.694 41.6514 52.769C41.6514 50.6107 43.1097 49.269 45.1514 49.269C48.593 49.269 50.343 47.5773 51.918 44.3107C55.5347 37.369 58.1597 34.8023 62.418 34.8023C66.1514 34.8023 70.293 38.594 71.693 43.669C72.9764 47.9273 75.368 49.269 78.5764 49.269C80.5597 49.269 82.0764 50.7857 82.0764 52.7107C82.0764 54.6357 80.5597 56.1523 78.5764 56.1523C75.6014 56.1523 72.918 54.8107 71.0514 52.069C69.8264 54.9857 67.4347 56.8523 63.9347 56.8523ZM64.2264 50.7857C66.268 50.7857 67.4347 49.619 67.4347 47.7523C67.4347 44.3107 63.8764 40.9857 61.6597 40.9857C59.268 40.9857 57.7514 42.619 56.3514 46.119C57.9847 49.3857 61.893 50.7857 64.2264 50.7857ZM78.5791 56.1523C76.5374 56.1523 75.0791 54.5773 75.0791 52.6523C75.0791 50.6107 76.5374 49.269 78.5791 49.269C81.6708 49.269 83.3624 47.4607 83.3624 42.6773L82.9541 14.8523L88.9624 14.5023V43.319C88.9624 52.0107 85.3458 56.1523 78.5791 56.1523ZM108.405 56.1523C102.863 56.1523 98.4298 52.1857 98.2548 44.9523L97.7881 14.8523L103.796 14.5023V44.1357C103.796 48.3357 106.13 49.269 108.405 49.269C110.388 49.269 111.905 50.7857 111.905 52.7107C111.905 54.7523 110.388 56.1523 108.405 56.1523ZM108.384 56.1523C106.342 56.1523 104.767 54.6357 104.767 52.769C104.767 50.6107 106.342 49.269 108.384 49.269C114.392 49.269 117.017 48.044 117.017 45.6523C117.017 44.0773 115.967 42.269 114.392 40.4023C111.125 36.3773 108.5 33.5773 105.409 30.3107L106.342 23.194C112.875 19.9857 123.959 15.844 131.25 13.219L130.784 19.4607C126.059 21.2107 115.734 25.0023 110.309 27.5107C115.442 32.644 118.884 36.9023 124.192 44.544C127.05 48.744 128.975 49.269 131.834 49.269C133.875 49.269 135.392 50.7857 135.392 52.7107C135.392 54.694 133.875 56.1523 131.834 56.1523C127.575 56.1523 124.659 55.1607 120.75 49.2107C119.35 53.7023 115.675 56.1523 108.384 56.1523ZM143.111 9.18568C143.111 10.2357 144.045 10.7607 145.736 10.7607C146.786 10.7607 147.603 10.7023 148.186 10.5273V10.469C148.186 8.31067 146.728 7.20234 145.386 7.20234C144.045 7.20234 143.111 8.01901 143.111 9.18568ZM140.953 19.569L139.961 16.419C144.453 16.1857 146.786 15.194 147.661 13.2107C146.961 13.444 146.32 13.619 145.153 13.619C142.528 13.619 140.486 12.3357 140.486 9.76901C140.486 6.61901 143.111 3.87734 145.62 3.87734C148.361 3.87734 150.87 6.44401 150.87 10.0607C150.87 16.0107 147.72 18.869 140.953 19.569ZM131.831 56.1523C129.789 56.1523 128.331 54.694 128.331 52.769C128.331 50.6107 129.789 49.269 131.831 49.269C135.273 49.269 136.848 47.2273 138.598 43.6107C142.214 36.669 144.839 34.1023 149.098 34.1023C153.648 34.1023 158.898 39.7607 158.898 46.644C158.898 52.419 155.573 56.1523 150.614 56.1523C147.056 56.1523 142.856 54.1107 140.464 50.144C138.073 54.694 135.739 56.1523 131.831 56.1523ZM150.906 50.0857C152.948 50.0857 154.114 48.919 154.114 47.0523C154.114 43.6107 150.556 40.2857 148.339 40.2857C145.948 40.2857 144.431 41.919 143.031 45.419C144.664 48.6857 148.573 50.0857 150.906 50.0857Z" fill="#E56E53"/>
<path d="M195.985 71.9023C184.96 71.9023 179.885 66.5357 179.885 58.1357C179.885 54.2857 180.76 51.544 182.218 48.2773L186.185 49.1523C185.193 51.8357 184.785 53.819 184.785 56.7357C184.785 62.394 188.052 65.2523 196.685 65.2523C204.735 65.2523 210.218 62.1023 210.218 59.1273C210.218 57.2023 207.885 56.0357 197.56 55.219L199.31 49.7357C203.568 49.7357 206.718 47.9273 207.535 42.619C205.668 43.2607 204.035 43.7857 200.885 43.7857C195.518 43.7857 191.902 41.219 191.902 36.0273C191.902 29.2023 196.802 23.2523 201.877 23.2523C207.418 23.2523 211.968 29.6107 211.968 38.3607C211.968 45.069 210.977 48.6273 209.285 51.1357C213.893 52.3607 215.06 54.344 215.06 57.9023C215.06 65.369 207.768 71.9023 195.985 71.9023ZM202.285 38.1273C204.327 38.1273 205.96 37.894 207.477 37.6607C206.835 32.5273 204.093 29.4357 201.118 29.4357C198.552 29.4357 196.043 31.8273 196.043 34.5107C196.043 37.1357 198.493 38.1273 202.285 38.1273ZM194.352 84.269L189.802 80.1857L193.652 75.5773L198.202 79.719L194.352 84.269ZM202.985 84.269L198.435 80.1857L202.285 75.5773L206.835 79.719L202.985 84.269ZM201.41 18.819L196.335 14.3273L200.593 9.19401L205.668 13.8023L201.41 18.819ZM249.184 56.8523C242.884 56.8523 238.509 56.3857 234.892 55.5107L234.134 48.8023C238.334 49.3857 244.517 49.969 250.059 49.969C258.926 49.969 264.759 48.6857 265.284 45.8273L264.817 14.8523L270.826 14.5023V44.4857C270.826 48.1607 273.101 49.269 275.551 49.269C277.534 49.269 279.051 50.6107 279.051 52.6523C279.051 54.7523 277.534 56.1523 275.551 56.1523C271.526 56.1523 268.492 54.2857 266.917 51.0773C263.709 55.1607 257.234 56.8523 249.184 56.8523ZM248.601 41.569C246.792 41.569 245.567 41.4523 244.751 41.219L244.517 37.6023C245.159 37.719 246.851 37.9523 248.717 37.9523C250.642 37.9523 252.334 37.4273 252.334 35.969C252.334 34.1607 249.126 32.644 244.634 30.3107L245.042 26.1107C248.367 24.4773 251.692 23.2523 255.542 22.0273L255.367 25.819C252.976 26.519 250.292 27.4523 248.134 28.3857C253.326 30.719 255.951 32.994 255.951 35.8523C255.951 39.644 252.684 41.569 248.601 41.569ZM275.522 56.1523C273.364 56.1523 271.906 54.7523 271.906 52.419C271.906 50.6107 273.422 49.269 275.522 49.269C281.939 49.269 284.622 47.9857 284.622 45.8273C284.622 42.1523 283.689 36.319 282.522 32.294L288.414 31.069C289.172 34.9773 289.756 40.4607 289.756 45.0107C289.756 48.044 288.764 50.3773 287.072 52.1857C284.564 55.044 280.539 56.1523 275.522 56.1523ZM284.331 70.444L279.256 65.9523L283.514 60.819L288.589 65.4273L284.331 70.444ZM304.525 17.169L303.708 13.669L319.633 10.169L320.508 13.669L304.525 17.169ZM304.7 9.93568L303.825 6.43568L319.808 2.93567L320.625 6.43568L304.7 9.93568ZM310.862 56.8523L310.278 50.144C314.478 50.144 318.153 50.0273 321.887 49.3857C318.212 39.8773 314.128 30.2523 310.045 20.919L315.412 18.9357C319.437 28.444 323.228 38.3023 326.845 48.044C330.403 46.4107 331.745 43.6107 331.745 39.7607L331.337 14.8523L337.287 14.5023V44.1357C337.287 48.3357 339.678 49.269 341.895 49.269C343.878 49.269 345.453 50.7857 345.453 52.7107C345.453 54.7523 343.878 56.1523 341.895 56.1523C337.812 56.1523 334.487 54.0523 332.97 49.7357C330.287 53.994 323.87 56.8523 310.862 56.8523ZM364.796 57.2607C361.354 57.2607 357.504 55.8607 354.471 53.5857C351.088 55.219 346.946 56.1523 342.104 56.1523C340.004 56.1523 338.604 55.044 338.604 52.7107C338.604 50.3773 340.004 49.269 342.104 49.269C344.846 49.269 347.588 48.9773 349.746 48.4523C347.529 46.0023 346.188 43.0273 346.188 39.9357C346.188 33.5773 351.204 28.269 356.338 28.269C365.554 28.269 374.771 38.769 374.771 47.1107C374.771 52.3607 370.921 57.2607 364.796 57.2607ZM354.471 47.519C358.554 45.944 361.238 43.494 361.238 40.7523C361.238 37.4273 358.496 34.569 356.104 34.569C353.363 34.569 350.388 37.4857 350.388 40.4023C350.388 43.2023 352.138 45.6523 354.471 47.519ZM365.029 50.9607C368.238 50.9607 370.454 49.5023 370.454 46.819C370.454 44.1357 368.529 40.519 365.204 37.719C365.321 38.244 365.379 38.8857 365.379 39.469C365.379 43.7273 363.221 47.4023 360.071 49.969C361.763 50.6107 363.338 50.9607 365.029 50.9607ZM383.478 56.3273L382.778 14.8523L388.787 14.5023V56.1523L383.478 56.3273ZM378.812 12.869L379.045 9.48568C379.628 9.19401 380.503 8.96068 381.903 8.72734C380.678 7.85234 379.978 6.56901 379.978 5.16901C379.978 2.31067 382.545 0.210676 385.87 0.210676C387.62 0.210676 388.903 0.677342 390.245 1.66901L388.845 4.35234C387.97 3.76901 386.862 3.53568 385.87 3.53568C384.237 3.53568 382.953 4.35234 382.953 5.75234C382.953 7.03567 383.945 8.20234 386.278 8.20234C387.62 8.20234 389.662 7.91068 391.237 7.91068L391.003 11.2357C387.387 11.2357 381.087 12.0523 378.812 12.869Z" fill="black"/>
</svg>
