<svg preserveAspectRatio="xMidYMid meet" viewBox="0 0 1293 675" fill="none" xmlns="http://www.w3.org/2000/svg">
<g clip-path="url(#clip0_1_4563)">
<path d="M91.831 510C76.881 510 64.9977 501.95 61.931 486.808C53.881 491.792 46.0227 494.475 36.056 494.475C21.8727 494.475 11.331 485.658 11.331 469.75C11.331 449.433 25.706 432.567 57.331 423.175L57.1393 410.525L76.4977 409.183V470.517C76.4977 483.742 84.1643 487.383 91.831 487.383C98.3477 487.383 103.523 492.367 103.523 498.692C103.523 505.4 98.3477 510 91.831 510ZM37.0143 473.775C44.4893 473.775 51.581 472.05 58.2893 468.025L58.0977 443.3C38.356 446.558 24.9393 455.95 24.9393 465.15C24.9393 471.283 29.5393 473.775 37.0143 473.775ZM41.9977 397.683L27.0477 384.267L39.6977 369.125L54.6477 382.733L41.9977 397.683ZM70.3643 397.683L55.4143 384.267L68.0643 369.125L83.0143 382.733L70.3643 397.683ZM91.7891 510L89.2974 487.383H144.689C151.206 487.383 156.189 492.367 156.189 498.692C156.189 505.4 151.206 510 144.689 510H91.7891ZM144.797 510L142.305 487.383H197.697C204.214 487.383 209.197 492.367 209.197 498.692C209.197 505.4 204.214 510 197.697 510H144.797ZM197.805 510L195.313 487.383H250.705C257.221 487.383 262.205 492.367 262.205 498.692C262.205 505.4 257.221 510 250.705 510H197.805ZM250.812 510L248.321 487.383H303.713C310.229 487.383 315.213 492.367 315.213 498.692C315.213 505.4 310.229 510 303.713 510H250.812ZM303.82 510L301.329 487.383H356.72C363.237 487.383 368.22 492.367 368.22 498.692C368.22 505.4 363.237 510 356.72 510H303.82ZM356.828 510L354.336 487.383H409.728C416.245 487.383 421.228 492.367 421.228 498.692C421.228 505.4 416.245 510 409.728 510H356.828ZM409.836 510L407.344 487.383H462.736C469.253 487.383 474.236 492.367 474.236 498.692C474.236 505.4 469.253 510 462.736 510H409.836ZM462.844 510L460.352 487.383H515.744C522.26 487.383 527.244 492.367 527.244 498.692C527.244 505.4 522.26 510 515.744 510H462.844ZM515.852 510L513.36 487.383H568.752C575.268 487.383 580.252 492.367 580.252 498.692C580.252 505.4 575.268 510 568.752 510H515.852ZM568.859 510L566.368 487.383H621.759C628.276 487.383 633.259 492.367 633.259 498.692C633.259 505.4 628.276 510 621.759 510H568.859ZM621.867 510L619.376 487.383H674.767C681.284 487.383 686.267 492.367 686.267 498.692C686.267 505.4 681.284 510 674.767 510H621.867ZM674.875 510L672.383 487.383H727.775C734.292 487.383 739.275 492.367 739.275 498.692C739.275 505.4 734.292 510 727.775 510H674.875ZM727.883 510L725.391 487.383H780.783C787.299 487.383 792.283 492.367 792.283 498.692C792.283 505.4 787.299 510 780.783 510H727.883ZM780.891 510L778.399 487.383H833.791C840.307 487.383 845.291 492.367 845.291 498.692C845.291 505.4 840.307 510 833.791 510H780.891ZM833.898 510L831.407 487.383H886.798C893.315 487.383 898.298 492.367 898.298 498.692C898.298 505.4 893.315 510 886.798 510H833.898ZM886.906 510L884.415 487.383H939.806C946.323 487.383 951.306 492.367 951.306 498.692C951.306 505.4 946.323 510 939.806 510H886.906ZM1001.63 512.3C989.939 512.3 976.139 505.592 968.281 492.558C960.806 505.592 952.372 510 939.914 510C933.206 510 928.414 505.208 928.414 498.883C928.414 491.792 933.206 487.383 939.914 487.383C951.222 487.383 956.972 481.825 962.147 471.092C974.031 448.283 982.656 439.85 996.647 439.85C1008.91 439.85 1022.52 452.308 1027.12 468.983C1031.34 482.975 1039.2 487.383 1049.74 487.383C1056.26 487.383 1061.24 492.367 1061.24 498.692C1061.24 505.017 1056.26 510 1049.74 510C1039.96 510 1031.15 505.592 1025.01 496.583C1020.99 506.167 1013.13 512.3 1001.63 512.3ZM1002.59 492.367C1009.3 492.367 1013.13 488.533 1013.13 482.4C1013.13 471.092 1001.44 460.167 994.156 460.167C986.297 460.167 981.314 465.533 976.714 477.033C982.081 487.767 994.922 492.367 1002.59 492.367ZM1102.65 558.3C1081.18 558.3 1064.7 537.6 1061.25 510H1049.75C1042.85 510 1038.06 505.208 1038.06 498.883C1038.06 491.792 1042.85 487.383 1049.75 487.383H1061.25C1064.89 449.433 1085.21 419.917 1104.95 419.917C1117.02 419.917 1128.33 436.4 1128.33 454.8C1128.33 468.6 1122.39 479.142 1106.67 487.383H1142.9C1149.41 487.383 1154.4 492.367 1154.4 498.692C1154.4 505.208 1149.41 510 1142.9 510H1117.6C1127.18 515.367 1131.01 523.8 1131.01 532.425C1131.01 546.608 1118.36 558.3 1102.65 558.3ZM1104.37 540.283C1111.85 540.283 1116.64 536.067 1116.64 530.317C1116.64 521.692 1108.59 510 1085.4 510H1075.43C1078.5 528.208 1090 540.283 1104.37 540.283ZM1075.24 487.383C1100.92 481.442 1113.38 470.708 1113.38 459.4C1113.38 448.475 1108.59 440.617 1103.22 440.617C1091.15 440.617 1077.92 459.592 1075.24 487.383ZM1142.96 510C1136.25 510 1131.46 504.825 1131.46 498.5C1131.46 491.792 1136.25 487.383 1142.96 487.383C1152.35 487.383 1158.1 481.442 1158.29 466.108L1156.95 374.3L1176.5 373.15V470.517C1176.5 484.317 1184.36 487.383 1191.64 487.383C1198.16 487.383 1203.34 492.367 1203.34 498.692C1203.34 505.4 1198.16 510 1191.64 510C1181.49 510 1172.48 506.358 1166.15 496.775C1160.98 506.358 1152.93 510 1142.96 510ZM1192.38 510C1185.67 510 1180.87 505.208 1180.87 498.883C1180.87 491.792 1185.67 487.383 1192.38 487.383C1203.68 487.383 1208.86 480.675 1214.61 468.792C1226.49 445.983 1235.12 437.55 1249.11 437.55C1264.06 437.55 1281.31 456.142 1281.31 478.758C1281.31 497.733 1270.38 510 1254.09 510C1242.4 510 1228.6 503.292 1220.74 490.258C1212.88 505.208 1205.22 510 1192.38 510ZM1255.05 490.067C1261.76 490.067 1265.59 486.233 1265.59 480.1C1265.59 468.792 1253.9 457.867 1246.62 457.867C1238.76 457.867 1233.78 463.233 1229.17 474.733C1234.54 485.467 1247.38 490.067 1255.05 490.067Z" fill="black"/>
</g>
<path d="M879.932 330.996C871.482 330.996 864.765 326.446 863.032 317.888C858.482 320.704 854.04 322.221 848.407 322.221C840.39 322.221 834.432 317.238 834.432 308.246C834.432 296.763 842.557 287.229 860.432 281.921L860.324 274.771L871.265 274.013V308.679C871.265 316.154 875.599 318.213 879.932 318.213C883.615 318.213 886.54 321.029 886.54 324.604C886.54 328.396 883.615 330.996 879.932 330.996ZM848.949 310.521C853.174 310.521 857.182 309.546 860.974 307.271L860.865 293.296C849.707 295.138 842.124 300.446 842.124 305.646C842.124 309.113 844.724 310.521 848.949 310.521ZM851.765 267.513L843.315 259.929L850.465 251.371L858.915 259.063L851.765 267.513ZM867.799 267.513L859.349 259.929L866.499 251.371L874.949 259.063L867.799 267.513ZM914.792 332.296C908.183 332.296 900.383 328.504 895.942 321.138C891.717 328.504 886.95 330.996 879.908 330.996C876.117 330.996 873.408 328.288 873.408 324.713C873.408 320.704 876.117 318.213 879.908 318.213C886.3 318.213 889.55 315.071 892.475 309.004C899.192 296.113 904.067 291.346 911.975 291.346C918.908 291.346 926.6 298.388 929.2 307.813C931.583 315.721 936.025 318.213 941.983 318.213C945.667 318.213 948.483 321.029 948.483 324.604C948.483 328.179 945.667 330.996 941.983 330.996C936.458 330.996 931.475 328.504 928.008 323.413C925.733 328.829 921.292 332.296 914.792 332.296ZM915.333 321.029C919.125 321.029 921.292 318.863 921.292 315.396C921.292 309.004 914.683 302.829 910.567 302.829C906.125 302.829 903.308 305.863 900.708 312.363C903.742 318.429 911 321.029 915.333 321.029ZM941.988 330.996C938.197 330.996 935.488 328.071 935.488 324.496C935.488 320.704 938.197 318.213 941.988 318.213C947.73 318.213 950.872 314.854 950.872 305.971L950.113 254.296L961.272 253.646V307.163C961.272 323.304 954.555 330.996 941.988 330.996ZM997.379 330.996C987.087 330.996 978.854 323.629 978.529 310.196L977.662 254.296L988.82 253.646V308.679C988.82 316.479 993.154 318.213 997.379 318.213C1001.06 318.213 1003.88 321.029 1003.88 324.604C1003.88 328.396 1001.06 330.996 997.379 330.996ZM997.34 330.996L995.932 318.213H1027.24C1030.92 318.213 1033.74 321.029 1033.74 324.604C1033.74 328.396 1030.92 330.996 1027.24 330.996H997.34ZM1027.3 330.996L1025.89 318.213H1057.2C1060.88 318.213 1063.7 321.029 1063.7 324.604C1063.7 328.396 1060.88 330.996 1057.2 330.996H1027.3ZM1057.26 330.996L1055.85 318.213H1087.16C1090.85 318.213 1093.66 321.029 1093.66 324.604C1093.66 328.396 1090.85 330.996 1087.16 330.996H1057.26ZM1087.22 330.996L1085.81 318.213H1117.12C1120.81 318.213 1123.62 321.029 1123.62 324.604C1123.62 328.396 1120.81 330.996 1117.12 330.996H1087.22ZM1117.18 330.996L1115.78 318.213H1147.08C1150.77 318.213 1153.58 321.029 1153.58 324.604C1153.58 328.396 1150.77 330.996 1147.08 330.996H1117.18ZM1147.14 330.996L1145.74 318.213H1177.04C1180.73 318.213 1183.54 321.029 1183.54 324.604C1183.54 328.396 1180.73 330.996 1177.04 330.996H1147.14ZM1177.11 330.996C1173.31 330.996 1170.39 328.179 1170.39 324.604C1170.39 320.704 1173.31 318.213 1177.11 318.213C1192.81 318.213 1199.64 315.938 1199.64 311.496C1199.64 308.571 1197.69 305.213 1194.76 301.746C1188.7 294.271 1183.82 289.071 1178.08 283.004L1179.81 269.788C1191.95 263.829 1212.53 256.138 1226.07 251.263L1225.21 262.854C1216.43 266.104 1197.26 273.146 1187.18 277.804C1196.71 287.554 1203.11 295.246 1212.96 309.438C1218.27 317.238 1221.85 318.213 1227.16 318.213C1230.95 318.213 1233.76 321.029 1233.76 324.604C1233.76 328.288 1230.95 330.996 1227.16 330.996C1219.25 330.996 1213.72 329.046 1206.36 317.779C1203.21 326.338 1194.55 330.996 1177.11 330.996ZM1227.12 330.996C1223.33 330.996 1220.62 328.288 1220.62 324.713C1220.62 320.704 1223.33 318.213 1227.12 318.213C1233.52 318.213 1236.44 314.421 1239.69 307.704C1246.41 294.813 1251.28 290.046 1259.19 290.046C1267.64 290.046 1277.39 300.554 1277.39 313.338C1277.39 324.063 1271.22 330.996 1262.01 330.996C1255.4 330.996 1247.6 327.204 1243.16 319.838C1238.72 328.288 1234.38 330.996 1227.12 330.996ZM1262.55 319.729C1266.34 319.729 1268.51 317.563 1268.51 314.096C1268.51 307.704 1261.9 301.529 1257.78 301.529C1253.34 301.529 1250.53 304.563 1247.92 311.063C1250.96 317.129 1258.22 319.729 1262.55 319.729Z" fill="black"/>
<defs>
<clipPath id="clip0_1_4563">
<rect width="1293" height="254" fill="white" transform="translate(0 318)"/>
</clipPath>
</defs>
</svg>
