<svg preserveAspectRatio="xMidYMid meet" viewBox="0 0 1530 209" fill="none" xmlns="http://www.w3.org/2000/svg">
<path d="M6.34295 208.158L0.320448 189.361C31.8929 182.791 44.6679 165.453 44.6679 146.473C44.6679 136.618 40.8355 121.836 35.908 108.331L55.8004 103.403C57.443 110.886 58.7204 116.908 59.8155 122.383C61.8229 131.691 68.028 138.078 77.883 138.078C84.088 138.078 88.833 142.823 88.833 148.846C88.833 155.051 84.088 159.613 77.883 159.613C71.678 159.613 65.2904 157.423 60.9105 151.766C57.443 179.871 38.0979 202.136 6.34295 208.158ZM77.9058 159.613C71.1533 159.613 66.5908 155.233 66.5908 147.933C66.5908 142.276 71.3358 138.078 77.9058 138.078C97.9808 138.078 106.376 134.063 106.376 127.311C106.376 115.813 103.456 97.5633 99.8058 84.9708L118.238 81.1383C120.611 93.3658 122.436 110.521 122.436 124.756C122.436 134.246 119.333 141.546 114.041 147.203C106.193 156.146 93.6008 159.613 77.9058 159.613ZM96.5208 64.7133L83.1983 52.8508L94.5133 39.3458L107.836 51.5733L96.5208 64.7133ZM121.888 64.7133L108.566 52.8508L119.881 39.3458L133.203 51.5733L121.888 64.7133ZM109.296 41.9008L95.9733 30.2208L107.106 16.7158L120.428 28.7608L109.296 41.9008ZM191.158 160.343C184.953 160.343 171.996 159.796 166.156 159.613L160.316 140.998C176.011 133.333 188.603 120.376 196.633 103.586C182.581 90.6283 162.871 76.0283 142.248 61.4283L152.651 45.9158C170.171 58.5083 188.421 72.1958 203.203 85.7008C205.393 77.1233 206.488 67.6333 206.488 57.7783L206.123 30.4033L224.921 29.3083V57.7783C224.921 73.1083 222.183 87.3433 217.256 99.7533C227.476 111.251 234.046 122.201 234.046 131.873C234.046 151.583 222.183 160.343 191.158 160.343ZM133.488 40.2583L134.218 29.6733C136.043 28.7608 138.781 28.0308 143.161 27.3008C139.328 24.5633 137.138 20.5483 137.138 16.1683C137.138 7.22578 145.168 0.655776 155.571 0.655776C161.046 0.655776 165.061 2.11577 169.258 5.21827L164.878 13.6133C162.141 11.7883 158.673 11.0583 155.571 11.0583C150.461 11.0583 146.446 13.6133 146.446 17.9933C146.446 22.0083 149.548 25.6583 156.848 25.6583C161.046 25.6583 167.433 24.7458 172.361 24.7458L171.631 35.1483C160.316 35.1483 140.606 37.7033 133.488 40.2583ZM218.168 134.428C218.168 129.136 214.883 122.931 209.043 116.178C201.743 127.493 192.618 136.618 182.033 142.641C185.683 142.823 189.333 142.823 193.166 142.823C209.226 142.823 218.168 140.816 218.168 134.428ZM260.6 160.161L258.41 30.4033L277.207 29.3083V159.613L260.6 160.161ZM424.411 159.613C410.176 159.613 398.861 151.948 395.941 137.531C388.276 142.276 380.793 144.831 371.303 144.831C357.798 144.831 347.761 136.436 347.761 121.288C347.761 101.943 361.448 85.8833 391.561 76.9408L391.378 64.8958L409.811 63.6183V122.018C409.811 134.611 417.111 138.078 424.411 138.078C430.616 138.078 435.543 142.823 435.543 148.846C435.543 155.233 430.616 159.613 424.411 159.613ZM372.216 125.121C379.333 125.121 386.086 123.478 392.473 119.646L392.291 96.1033C373.493 99.2058 360.718 108.148 360.718 116.908C360.718 122.748 365.098 125.121 372.216 125.121ZM376.961 52.6683L362.726 39.8933L374.771 25.4758L389.006 38.4333L376.961 52.6683ZM403.971 52.6683L389.736 39.8933L401.781 25.4758L416.016 38.4333L403.971 52.6683ZM424.371 159.613C417.983 159.613 413.421 154.686 413.421 148.663C413.421 142.276 417.983 138.078 424.371 138.078C433.313 138.078 438.788 132.421 438.971 117.821L437.693 30.4033L456.308 29.3083V122.018C456.308 135.158 463.791 138.078 470.726 138.078C476.931 138.078 481.858 142.823 481.858 148.846C481.858 155.233 476.931 159.613 470.726 159.613C461.053 159.613 452.476 156.146 446.453 147.021C441.526 156.146 433.861 159.613 424.371 159.613ZM471.421 159.613L469.049 138.078H521.791C527.996 138.078 532.741 142.823 532.741 148.846C532.741 155.233 527.996 159.613 521.791 159.613H471.421ZM521.894 159.613L519.522 138.078H572.264C578.469 138.078 583.214 142.823 583.214 148.846C583.214 155.233 578.469 159.613 572.264 159.613H521.894ZM572.367 159.613L569.994 138.078H622.737C628.942 138.078 633.687 142.823 633.687 148.846C633.687 155.233 628.942 159.613 622.737 159.613H572.367ZM622.839 159.613L620.467 138.078H673.209C679.414 138.078 684.159 142.823 684.159 148.846C684.159 155.233 679.414 159.613 673.209 159.613H622.839ZM673.312 159.613L670.94 138.078H723.682C729.887 138.078 734.632 142.823 734.632 148.846C734.632 155.233 729.887 159.613 723.682 159.613H673.312ZM723.785 159.613L721.412 138.078H774.155C780.36 138.078 785.105 142.823 785.105 148.846C785.105 155.233 780.36 159.613 774.155 159.613H723.785ZM774.257 159.613L771.885 138.078H824.627C830.832 138.078 835.577 142.823 835.577 148.846C835.577 155.233 830.832 159.613 824.627 159.613H774.257ZM824.73 159.613L822.357 138.078H875.1C881.305 138.078 886.05 142.823 886.05 148.846C886.05 155.233 881.305 159.613 875.1 159.613H824.73ZM875.203 159.613L872.83 138.078H925.573C931.778 138.078 936.523 142.823 936.523 148.846C936.523 155.233 931.778 159.613 925.573 159.613H875.203ZM925.675 159.613L923.303 138.078H976.045C982.25 138.078 986.995 142.823 986.995 148.846C986.995 155.233 982.25 159.613 976.045 159.613H925.675ZM976.148 159.613L973.775 138.078H1026.52C1032.72 138.078 1037.47 142.823 1037.47 148.846C1037.47 155.233 1032.72 159.613 1026.52 159.613H976.148ZM1026.62 159.613L1024.25 138.078H1076.99C1083.2 138.078 1087.94 142.823 1087.94 148.846C1087.94 155.233 1083.2 159.613 1076.99 159.613H1026.62ZM1077.09 159.613L1074.72 138.078H1127.46C1133.67 138.078 1138.41 142.823 1138.41 148.846C1138.41 155.233 1133.67 159.613 1127.46 159.613H1077.09ZM1127.57 159.613L1125.19 138.078H1177.94C1184.14 138.078 1188.89 142.823 1188.89 148.846C1188.89 155.233 1184.14 159.613 1177.94 159.613H1127.57ZM1178.04 159.613L1175.67 138.078H1228.41C1234.61 138.078 1239.36 142.823 1239.36 148.846C1239.36 155.233 1234.61 159.613 1228.41 159.613H1178.04ZM1228.51 159.613L1226.14 138.078H1278.88C1285.09 138.078 1289.83 142.823 1289.83 148.846C1289.83 155.233 1285.09 159.613 1278.88 159.613H1228.51ZM1278.98 159.613C1272.23 159.613 1267.67 155.233 1267.67 147.933C1267.67 142.276 1272.41 138.078 1278.98 138.078C1299.06 138.078 1307.45 134.063 1307.45 127.311C1307.45 115.813 1304.53 97.5633 1300.88 84.9708L1319.32 81.1383C1321.69 93.3658 1323.51 110.521 1323.51 124.756C1323.51 134.246 1320.41 141.546 1315.12 147.203C1307.27 156.146 1294.68 159.613 1278.98 159.613ZM1292.85 201.588L1278.62 188.813L1290.66 174.396L1304.9 187.353L1292.85 201.588ZM1319.86 201.588L1305.63 188.813L1317.67 174.396L1331.91 187.353L1319.86 201.588ZM1347.24 208.523L1341.4 189.726C1372.25 186.258 1387.58 174.761 1393.05 159.613H1374.62C1357.65 159.431 1346.33 150.123 1346.33 132.786C1346.33 111.433 1361.66 92.8183 1377.72 92.8183C1395.24 92.8183 1409.48 111.616 1409.48 137.896V138.443C1414.95 138.078 1418.78 138.078 1419.33 138.078C1425.54 138.078 1430.28 142.823 1430.28 148.846C1430.28 155.051 1425.72 159.613 1419.33 159.613H1407.1C1400.53 186.258 1381.55 204.143 1347.24 208.523ZM1377.72 138.991C1384.11 138.991 1388.31 138.808 1396.34 138.626C1395.24 122.018 1385.02 112.163 1375.35 112.163C1367.14 112.163 1359.47 119.463 1359.47 127.858C1359.47 135.523 1366.95 138.991 1377.72 138.991ZM1419.28 159.613C1412.89 159.613 1408.33 155.051 1408.33 148.663C1408.33 142.458 1412.89 138.078 1419.28 138.078H1428.41C1430.05 135.523 1431.87 132.603 1433.7 130.048L1432.24 30.4033L1450.85 29.3083V93.9133L1450.31 109.973C1466 93.7308 1481.7 87.7083 1495.38 87.7083C1514.36 87.7083 1529.88 106.323 1529.88 121.471C1529.88 131.143 1526.41 140.633 1518.38 148.298C1509.98 155.781 1497.39 159.613 1469.83 159.613H1419.28ZM1470.2 139.173C1505.42 139.173 1516.37 133.151 1516.37 123.661C1516.37 116.178 1506.52 107.418 1492.65 107.418C1479.14 107.418 1461.44 115.083 1444.1 138.991C1452.5 139.173 1461.62 139.173 1470.2 139.173Z" fill="black"/>
</svg>
