<svg preserveAspectRatio="xMidYMid meet" viewBox="0 0 220 57" fill="none" xmlns="http://www.w3.org/2000/svg">
<path d="M4.02394 20.2054C1.82598 20.2054 0.531855 18.5826 0.531855 16.3847C0.531855 14.0429 2.07248 11.3109 4.06502 11.3109C6.38623 11.3109 7.7009 14.2073 7.7009 16.2203C7.7009 18.747 6.0781 20.2054 4.02394 20.2054ZM4.14719 18.295C5.50294 18.295 6.42731 17.3912 6.40677 16.1998C6.40677 14.7824 5.29752 13.2212 4.0034 13.2212C2.85306 13.2212 1.82598 14.844 1.82598 16.1382C1.82598 17.5761 2.89415 18.295 4.14719 18.295ZM2.6271 9.77025L1.18919 8.47613L2.42169 7.01767L3.8596 8.33233L2.6271 9.77025ZM5.54402 9.77025L4.1061 8.47613L5.3386 7.01767L6.77652 8.33233L5.54402 9.77025ZM6.80862 25.4641L6.25399 23.6359C9.86933 22.8758 11.2867 20.719 11.2867 18.6443C11.2867 17.535 10.8759 15.8917 10.3212 14.3716L12.2316 13.8786C12.4576 14.7413 12.6014 15.4192 12.7452 16.0971C12.9711 17.1447 13.6695 17.9253 14.861 17.9253C15.4772 17.9253 15.9291 18.3772 15.9291 18.9524C15.9291 19.5686 15.4772 20 14.861 20C14.1009 20 13.382 19.733 12.889 19.0962C12.5603 22.1569 10.465 24.7451 6.80862 25.4641ZM14.8664 20C14.2502 20 13.7777 19.5481 13.7777 18.9524C13.7777 18.3361 14.2502 17.9253 14.8664 17.9253C17.9271 17.9253 19.2418 17.4323 19.2418 16.4874C19.2418 15.8711 18.8309 15.1727 18.2558 14.4743C17.1054 12.9953 16.1605 11.9271 15.0102 10.6125L15.2772 8.45558C17.619 7.32579 21.4397 5.90842 24.0485 4.92242L23.9253 6.81225C22.0971 7.51067 18.4612 8.84587 16.4892 9.77025C18.2969 11.7422 19.5704 13.2829 21.4603 16.0971C22.5079 17.7404 23.2063 17.9253 24.295 17.9253C24.9113 17.9253 25.3427 18.3772 25.3427 18.9524C25.3427 19.5481 24.9113 20 24.295 20C22.7749 20 21.7479 19.6508 20.3716 17.4734C19.8375 19.1167 18.1942 20 14.8664 20ZM24.3027 20C23.707 20 23.2346 19.5686 23.2346 18.9524C23.2346 18.3361 23.707 17.9253 24.3027 17.9253C25.2682 17.9253 26.2542 17.4323 26.6856 16.1587C26.9937 15.337 27.0142 14.8851 27.0964 14.1045L28.5959 14.1867C28.5343 14.803 28.5343 15.3781 28.5343 15.8506C28.5343 17.309 29.4998 17.9253 30.8966 17.9253C31.4923 17.9253 31.9648 18.3361 31.9648 18.9318C31.9648 19.5686 31.4923 20 30.8966 20C29.13 20 27.9592 19.4454 27.4867 18.1718C26.7677 19.4659 25.679 20 24.3027 20ZM26.4391 12.1325L25.0012 10.8384L26.2337 9.37996L27.6716 10.6946L26.4391 12.1325ZM29.356 12.1325L27.9181 10.8384L29.1506 9.37996L30.5885 10.6946L29.356 12.1325ZM30.8985 20C30.3028 20 29.8304 19.5686 29.8304 18.9524C29.8304 18.3361 30.3028 17.9253 30.8985 17.9253C31.864 17.9253 32.85 17.4323 33.2814 16.1587C33.5895 15.337 33.61 14.8851 33.6922 14.1045L35.1917 14.1867C35.1301 14.803 35.1301 15.3781 35.1301 15.8506C35.1301 17.309 36.0956 17.9253 37.4924 17.9253C38.0881 17.9253 38.5606 18.3361 38.5606 18.9318C38.5606 19.5686 38.0881 20 37.4924 20C35.7258 20 34.5549 19.4454 34.0825 18.1718C33.3635 19.4659 32.2748 20 30.8985 20ZM33.8976 25.2176L32.2954 23.7797L33.6511 22.1569L35.2534 23.6153L33.8976 25.2176ZM37.4943 20C36.8781 20 36.4467 19.5686 36.4467 18.9729C36.4467 18.3361 36.8781 17.9253 37.4943 17.9253C38.809 17.9253 39.3225 17.1242 39.9799 15.7479C41.1508 13.4267 42.0751 12.5228 43.513 12.5228C45.0742 12.5228 46.8613 14.4948 46.8613 16.8571C46.8613 18.788 45.7315 20 44.0882 20C42.8352 20 41.3356 19.24 40.514 17.8637C39.7128 19.4659 38.8912 20 37.4943 20ZM44.1909 18.1512C44.951 18.1512 45.4029 17.7199 45.4029 16.9804C45.4029 15.6452 44.1293 14.3921 43.2871 14.3921C42.4038 14.3921 41.8286 15.0084 41.3151 16.3847C41.8903 17.6377 43.3487 18.1512 44.1909 18.1512ZM51.9441 24.437L51.3895 22.5883C54.9843 21.8282 56.4222 19.733 56.4222 17.4939C56.4222 15.9738 55.8881 14.351 55.2513 12.7077L57.1617 12.2353C57.6342 13.7143 58.0655 15.5219 58.0655 17.1242C58.0655 20.6573 55.9087 23.6359 51.9441 24.437ZM64.3741 20C62.5869 20 61.0669 18.7264 61.0258 16.282L60.882 5.41542L62.7102 5.29217V16.0355C62.7102 17.5761 63.5729 17.9253 64.3741 17.9253C64.9698 17.9253 65.4422 18.3772 65.4422 18.9524C65.4422 19.5686 64.9698 20 64.3741 20ZM64.3831 20C63.7668 20 63.2943 19.5481 63.2943 18.9729C63.2943 18.3361 63.7668 17.9253 64.3831 17.9253C66.581 17.9253 67.5259 17.4323 67.5259 16.4874C67.5259 15.8711 67.1151 15.1727 66.5399 14.4743C65.3896 12.9953 64.4447 11.9271 63.2943 10.6125L63.5614 8.45558C65.9031 7.32579 69.7239 5.90842 72.3327 4.92242L72.2094 6.81225C70.3812 7.51067 66.7453 8.84587 64.7733 9.77025C66.6016 11.7012 67.8546 13.2829 69.7444 16.0971C70.7921 17.7404 71.4905 17.9253 72.5792 17.9253C73.1954 17.9253 73.6268 18.3772 73.6268 18.9524C73.6268 19.5481 73.1954 20 72.5792 20C71.0796 20 70.0526 19.6508 68.6763 17.5145C68.2449 19.1373 66.9713 20 64.3831 20ZM72.5676 20C71.9514 20 71.4789 19.5481 71.4789 18.9318C71.4789 18.3156 71.9514 17.9253 72.5676 17.9253C74.7656 17.9253 76.4911 17.8431 77.8058 17.5966C78.8328 17.3707 79.1204 17.0831 79.182 15.7684C78.5247 16.0149 77.9085 16.1998 76.8198 16.1998C74.9505 16.1998 73.6769 15.337 73.6769 13.4883C73.6769 11.1465 75.3613 9.17454 77.1073 9.17454C78.9766 9.17454 80.5173 11.3725 80.5173 14.4743C80.5173 17.2063 80.168 18.3977 78.8123 19.0962C77.929 19.5481 75.8543 20 72.5676 20ZM77.2306 14.4537C78.0112 14.4537 78.5863 14.3716 79.141 14.2689C78.9355 12.2763 77.9701 11.0438 76.8814 11.0438C75.9159 11.0438 74.971 11.9887 74.971 13.0569C74.971 14.1045 75.8543 14.4537 77.2306 14.4537ZM76.9019 7.4285L75.2997 5.99058L76.6554 4.36779L78.2577 5.82625L76.9019 7.4285ZM83.6431 20.0616L83.4377 5.41542L85.2659 5.29217V20L83.6431 20.0616ZM81.9587 4.69646L82.0409 3.60775C82.2668 3.50504 82.5749 3.42287 83.0885 3.34071C82.616 3.03258 82.349 2.58067 82.349 2.06712C82.349 1.06058 83.2528 0.321083 84.3826 0.321083C84.9989 0.321083 85.4302 0.485416 85.9027 0.834624L85.4508 1.65629C85.1427 1.47142 84.7524 1.36871 84.3826 1.36871C83.7869 1.36871 83.2734 1.69738 83.2734 2.23146C83.2734 2.72446 83.6842 3.15583 84.5264 3.15583C84.9783 3.15583 85.7178 3.05313 86.2724 3.05313L86.1903 4.12129C84.9167 4.12129 82.7804 4.40888 81.9587 4.69646ZM100.489 20.5546C95.6205 20.5546 93.2377 19.0962 93.2377 15.9944C93.2377 14.9468 93.5047 13.9402 93.9156 12.9337L95.1481 13.2007C94.9016 13.9813 94.7578 14.7002 94.7578 15.5835C94.7578 17.6993 96.5449 18.4799 100.776 18.4799C104.351 18.4799 106.302 18.1923 107.74 17.7199C109.014 17.309 109.219 17.0215 109.281 15.7684C108.623 16.0149 108.007 16.1998 106.939 16.1998C105.07 16.1998 103.796 15.337 103.796 13.4883C103.796 11.1465 105.46 9.17454 107.206 9.17454C109.075 9.17454 110.616 11.3725 110.616 14.4743C110.616 17.268 110.246 18.3772 108.808 19.1373C107.535 19.8357 105.357 20.5546 100.489 20.5546ZM107.329 14.4537C108.11 14.4537 108.706 14.3716 109.24 14.2689C109.055 12.2763 108.069 11.0438 106.98 11.0438C106.015 11.0438 105.09 11.9887 105.09 13.0569C105.09 14.1045 105.953 14.4537 107.329 14.4537ZM107.001 7.4285L105.398 5.99058L106.754 4.36779L108.356 5.82625L107.001 7.4285ZM117.02 20C115.233 20 113.713 18.7264 113.672 16.282L113.528 5.41542L115.356 5.29217V16.0355C115.356 17.5761 116.219 17.9253 117.02 17.9253C117.616 17.9253 118.088 18.3772 118.088 18.9524C118.088 19.5686 117.616 20 117.02 20ZM117.029 20C116.413 20 115.961 19.5686 115.961 18.9524C115.961 18.3361 116.413 17.9253 117.029 17.9253C117.953 17.9253 118.734 17.5555 119.165 16.6722C119.453 16.0765 119.556 15.5835 119.658 14.803L121.117 14.8851C121.055 15.3781 121.035 15.6452 121.035 16.0149C121.035 17.4323 121.589 17.9253 122.349 17.9253C123.5 17.9253 124.054 16.6312 124.28 14.5565L125.677 14.6386C125.595 15.1727 125.595 15.5835 125.595 15.9122C125.595 17.4117 126.17 17.9253 126.971 17.9253C128.204 17.9253 128.82 16.6106 129.005 14.0635L130.443 14.1456C130.32 14.8235 130.299 15.3576 130.299 15.9327C130.299 17.3501 131.244 17.9253 132.25 17.9253C132.867 17.9253 133.319 18.3977 133.319 18.9524C133.319 19.5481 132.867 20 132.25 20C130.977 20 129.991 19.4659 129.436 18.2334C128.882 19.4865 128.06 20 126.951 20C125.924 20 125.081 19.4865 124.671 18.3361C124.095 19.4865 123.376 20 122.308 20C121.261 20 120.295 19.4659 119.946 18.254C119.248 19.4454 118.241 20 117.029 20ZM123.541 12.3585L122.165 11.126L123.315 9.72917L124.691 10.9822L123.541 12.3585ZM126.314 12.3585L124.938 11.126L126.088 9.72917L127.464 10.9822L126.314 12.3585ZM124.917 9.8935L123.561 8.661L124.712 7.28471L126.067 8.53775L124.917 9.8935ZM132.171 20C131.575 20 131.102 19.5686 131.102 18.9524C131.102 18.3361 131.575 17.9253 132.171 17.9253C133.136 17.9253 134.122 17.4323 134.553 16.1587C134.862 15.337 134.882 14.8851 134.964 14.1045L136.464 14.1867C136.402 14.803 136.402 15.3781 136.402 15.8506C136.402 17.309 137.368 17.9253 138.764 17.9253C139.36 17.9253 139.833 18.3361 139.833 18.9318C139.833 19.5686 139.36 20 138.764 20C136.998 20 135.827 19.4454 135.355 18.1718C134.636 19.4659 133.547 20 132.171 20ZM134.307 12.1325L132.869 10.8384L134.101 9.37996L135.539 10.6946L134.307 12.1325ZM137.224 12.1325L135.786 10.8384L137.018 9.37996L138.456 10.6946L137.224 12.1325ZM138.766 20C138.15 20 137.678 19.5686 137.678 18.9729C137.678 18.3361 138.15 17.9253 138.766 17.9253H139.793C142.649 17.9253 144.477 17.6583 144.477 16.4874C144.477 15.1932 142.567 13.0775 139.937 10.407L140.225 8.25017C142.525 7.14092 145.771 5.92896 148.483 4.92242L148.339 6.81225C146.49 7.53121 143.388 8.64046 141.437 9.56483C144.333 12.5845 145.833 14.4743 145.833 16.1793C145.833 18.8291 143.635 20 139.793 20H138.766ZM153.519 20.0822C152.82 20.0822 151.424 20.0205 150.746 20L150.191 18.1923C151.937 17.309 153.416 15.83 154.32 13.8375C152.697 12.2558 150.396 10.5097 148.055 8.76371L149.082 7.26417C151.115 8.80479 153.252 10.4687 154.936 12.0915C155.183 11.126 155.326 10.0578 155.326 8.92804L155.285 5.41542L157.114 5.29217V8.98967C157.114 10.633 156.826 12.1736 156.292 13.5294C157.422 14.8235 158.12 16.056 158.12 17.1242C158.12 19.1989 156.785 20.0822 153.519 20.0822ZM156.58 17.3707C156.58 16.7339 156.189 15.9738 155.511 15.1316C154.69 16.549 153.601 17.6377 152.348 18.3567C152.779 18.3772 153.211 18.3772 153.642 18.3772C155.491 18.3772 156.58 18.1512 156.58 17.3707ZM170.834 20.2465C168.616 20.2465 166.993 20.1027 165.843 19.8151L165.617 17.7815C166.931 17.9664 169.088 18.1718 171.101 18.1718C174.244 18.1718 176.442 17.6993 176.709 16.5901L176.565 5.41542L178.373 5.29217V16.1176C178.373 17.535 179.215 17.9253 180.078 17.9253C180.694 17.9253 181.146 18.3361 181.146 18.9524C181.146 19.5686 180.694 20 180.078 20C178.722 20 177.695 19.3221 177.202 18.2334C176.134 19.6508 173.751 20.2465 170.834 20.2465ZM170.711 14.9057C170.095 14.9057 169.643 14.8646 169.376 14.7824L169.294 13.6526C169.519 13.6937 170.095 13.7759 170.752 13.7759C171.43 13.7759 172.067 13.591 172.067 13.0569C172.067 12.3996 170.998 11.845 169.355 10.9206L169.478 9.60592C170.629 9.05129 171.779 8.61992 173.114 8.18854L173.053 9.37996C172.19 9.62646 171.224 9.99621 170.464 10.3454C172.252 11.2287 173.217 12.0093 173.217 13.0158C173.217 14.31 172.087 14.9057 170.711 14.9057ZM180.074 20C179.479 20 179.006 19.5686 179.006 18.9524C179.006 18.3361 179.479 17.9253 180.074 17.9253C181.04 17.9253 182.026 17.4323 182.457 16.1587C182.765 15.337 182.786 14.8851 182.868 14.1045L184.368 14.1867C184.306 14.803 184.306 15.3781 184.306 15.8506C184.306 17.309 185.271 17.9253 186.668 17.9253C187.264 17.9253 187.736 18.3361 187.736 18.9318C187.736 19.5686 187.264 20 186.668 20C184.902 20 183.731 19.4454 183.258 18.1718C182.539 19.4659 181.451 20 180.074 20ZM182.211 12.1325L180.773 10.8384L182.005 9.37996L183.443 10.6946L182.211 12.1325ZM185.128 12.1325L183.69 10.8384L184.922 9.37996L186.36 10.6946L185.128 12.1325ZM186.67 20C186.074 20 185.602 19.5686 185.602 18.9524C185.602 18.3361 186.074 17.9253 186.67 17.9253C187.636 17.9253 188.622 17.4323 189.053 16.1587C189.361 15.337 189.382 14.8851 189.464 14.1045L190.963 14.1867C190.902 14.844 190.902 15.2343 190.902 15.6452C190.902 16.7133 191.107 17.1858 191.744 17.535C194.065 13.6937 196.469 12.2969 198.646 12.2969C200.741 12.2969 202.385 14.31 202.385 15.9327C202.385 16.6312 202.179 17.3501 201.46 17.9664L202.939 17.9253H203.309C203.925 17.9253 204.377 18.3772 204.377 18.9524C204.377 19.5686 203.925 20 203.309 20H195.996C191.888 20 190.429 19.6302 189.854 18.1512C189.135 19.4454 188.046 20 186.67 20ZM196.243 18.028C199.776 18.028 201.049 17.2885 201.049 16.1587C201.049 15.2754 199.961 14.2278 198.379 14.2278C197.003 14.2278 195.051 15.0084 193.038 17.8842C194.045 18.028 194.907 18.028 196.243 18.028ZM203.304 20C202.708 20 202.236 19.5686 202.236 18.9524C202.236 18.3361 202.708 17.9253 203.304 17.9253C204.27 17.9253 205.256 17.4323 205.687 16.1587C205.995 15.337 206.016 14.8851 206.098 14.1045L207.597 14.1867C207.536 14.803 207.536 15.3781 207.536 15.8506C207.536 17.309 208.501 17.9253 209.898 17.9253C210.494 17.9253 210.966 18.3361 210.966 18.9318C210.966 19.5686 210.494 20 209.898 20C208.131 20 206.961 19.4454 206.488 18.1718C205.769 19.4659 204.68 20 203.304 20ZM206.919 12.1325L205.317 10.6946L206.673 9.07183L208.275 10.5303L206.919 12.1325ZM209.9 20C209.284 20 208.852 19.5686 208.852 18.9729C208.852 18.3361 209.284 17.9253 209.9 17.9253C211.215 17.9253 211.728 17.1242 212.385 15.7479C213.556 13.4267 214.481 12.5228 215.919 12.5228C217.48 12.5228 219.267 14.4948 219.267 16.8571C219.267 18.788 218.137 20 216.494 20C215.241 20 213.741 19.24 212.92 17.8637C212.118 19.4659 211.297 20 209.9 20ZM216.596 18.1512C217.357 18.1512 217.808 17.7199 217.808 16.9804C217.808 15.6452 216.535 14.3921 215.693 14.3921C214.809 14.3921 214.234 15.0084 213.721 16.3847C214.296 17.6377 215.754 18.1512 216.596 18.1512ZM37.4394 47.2465C36.6794 47.2465 36.0632 46.6302 36.0632 45.8086C36.0632 44.9458 36.6794 44.3501 37.4394 44.3501C38.22 44.3501 38.8157 44.9458 38.8157 45.8086C38.8157 46.6302 38.22 47.2465 37.4394 47.2465ZM47.7819 52.423C44.0638 52.423 42.2767 50.6564 42.2767 47.8011C42.2767 46.4659 42.5848 45.521 43.0984 44.4117L44.3103 44.6993C43.9406 45.6443 43.7968 46.3427 43.7968 47.3903C43.7968 49.3828 45.0087 50.4099 48.0078 50.4099C50.9453 50.4099 52.9378 49.1774 52.9378 48.0476C52.9378 47.3492 52.3421 47.0411 48.85 46.4659L49.4252 44.6172C50.8631 44.6172 51.4794 43.9188 51.4794 42.7273C51.4794 41.9057 51.1096 40.0775 50.7399 38.8655L52.5475 38.4958C52.7735 39.6461 53.0405 41.4332 53.0405 42.4398C53.0405 43.7544 52.8762 44.5555 51.8696 45.254C54.0265 45.747 54.4374 46.3632 54.4374 47.6779C54.4374 50.184 51.8696 52.423 47.7819 52.423ZM47.2683 56.6546L45.8304 55.3605L47.0629 53.902L48.5008 55.2167L47.2683 56.6546ZM50.1852 56.6546L48.7473 55.3605L49.9798 53.902L51.4177 55.2167L50.1852 56.6546ZM54.7044 54.8675L53.1021 53.4295L54.4579 51.8068L56.0601 53.2652L54.7044 54.8675ZM60.1855 47C58.3984 47 56.8783 45.7264 56.8372 43.282L56.6934 32.4154L58.5216 32.2922V43.0355C58.5216 44.5761 59.3844 44.9253 60.1855 44.9253C60.7812 44.9253 61.2537 45.3772 61.2537 45.9524C61.2537 46.5686 60.7812 47 60.1855 47ZM60.1945 47C59.5782 47 59.1263 46.5686 59.1263 45.9524C59.1263 45.3361 59.5782 44.9253 60.1945 44.9253C63.7071 44.9253 66.8911 42.4603 69.1096 41.7208C66.4186 40.5705 65.4942 40.4267 64.6726 40.4267C63.4811 40.4267 62.7827 40.7553 62.3924 41.7619L61.201 41.1456C61.7351 39.4612 62.8649 38.5574 64.652 38.5574C66.0078 38.5574 66.9527 39.0709 72.1908 41.0635L71.7184 42.7273C71.554 42.6863 71.3281 42.6452 71.0405 42.6452C70.8145 42.6452 70.4448 42.7068 70.075 42.83C70.1572 44.4528 71.2459 44.9253 73.2384 44.9253H73.8547C74.5326 44.9253 74.9229 45.3772 74.9229 45.9524C74.9229 46.5481 74.5326 47 73.8547 47H73.1974C70.568 46.9795 68.8425 45.6853 68.8425 43.5079C68.8425 43.4668 68.8425 43.4257 68.8425 43.3847C66.3775 44.761 63.4401 47 60.1945 47ZM66.6651 51.3959L65.0629 49.958L66.4186 48.3352L68.0209 49.7937L66.6651 51.3959ZM73.8435 47C73.1656 47 72.7342 46.5892 72.7342 45.8907C72.7342 45.3361 73.1861 44.9253 73.8435 44.9253C76.103 44.9253 77.089 44.4528 77.089 43.6517C77.089 42.2549 76.7809 40.324 76.3495 38.8655L78.1572 38.4958C78.4448 39.8926 78.6502 41.7619 78.6502 43.3641C78.6502 44.3707 78.3421 45.1307 77.7464 45.7264C76.8836 46.6508 75.5073 47 73.8435 47ZM75.343 51.5192L73.9051 50.225L75.1376 48.7666L76.5755 50.0812L75.343 51.5192ZM78.2599 51.5192L76.822 50.225L78.0545 48.7666L79.4924 50.0812L78.2599 51.5192ZM81.0054 52.2381L81.0876 51.1494C81.3136 51.0467 81.6217 50.9645 82.1352 50.8824C81.6628 50.5743 81.3957 50.1223 81.3957 49.6088C81.3957 48.6023 82.2996 47.8627 83.4294 47.8627C84.0456 47.8627 84.477 48.0271 84.9494 48.3763L84.4975 49.198C84.1894 49.0131 83.7991 48.9104 83.4294 48.9104C82.8336 48.9104 82.3201 49.239 82.3201 49.7731C82.3201 50.2661 82.7309 50.6975 83.5731 50.6975C84.0251 50.6975 84.7646 50.5948 85.3192 50.5948L85.237 51.663C83.9634 51.663 81.8271 51.9505 81.0054 52.2381ZM85.4424 47.0822C84.744 47.0822 83.3472 47.0205 82.6693 47L82.1147 45.1923C83.8607 44.309 85.3397 42.83 86.2436 40.8375C84.6208 39.2558 82.3201 37.5097 79.9784 35.7637L81.0054 34.2642C83.0391 35.8048 85.1754 37.4687 86.8598 39.0915C87.1063 38.126 87.2501 37.0578 87.2501 35.928L87.209 32.4154L89.0372 32.2922V35.9897C89.0372 37.633 88.7496 39.1736 88.2156 40.5294C89.3454 41.8235 90.0438 43.056 90.0438 44.1242C90.0438 46.1989 88.7086 47.0822 85.4424 47.0822ZM88.5031 44.3707C88.5031 43.7339 88.1129 42.9738 87.435 42.1316C86.6133 43.549 85.5246 44.6377 84.2716 45.3567C84.7029 45.3772 85.1343 45.3772 85.5657 45.3772C87.4144 45.3772 88.5031 45.1512 88.5031 44.3707ZM93.1517 47.0616L92.9462 32.4154L94.7745 32.2922V47L93.1517 47.0616ZM100.281 52.4641L99.7266 50.6359C103.342 49.8758 104.759 47.719 104.759 45.6443C104.759 44.4528 104.554 43.5079 104.164 42.3576C106.567 42.1727 108.128 41.7824 109.566 41.2483L110.963 41.1251C111.025 44.5761 112.236 44.9253 113.551 44.9253C114.147 44.9253 114.619 45.3772 114.619 45.9524C114.619 46.5686 114.147 47 113.551 47C111.641 47 110.018 46.3632 109.525 43.0355C108.56 43.3847 107.389 43.6517 106.279 43.7544C106.382 44.3501 106.403 44.8637 106.403 45.254C106.403 48.6639 104.266 51.6835 100.281 52.4641ZM108.457 51.93L107.019 50.6359L108.251 49.1774L109.689 50.4921L108.457 51.93ZM111.374 51.93L109.936 50.6359L111.168 49.1774L112.606 50.4921L111.374 51.93ZM113.563 47C112.967 47 112.495 46.5686 112.495 45.9524C112.495 45.3361 112.967 44.9253 113.563 44.9253C114.528 44.9253 115.514 44.4323 115.946 43.1587C116.254 42.337 116.274 41.8851 116.356 41.1045L117.856 41.1867C117.794 41.803 117.794 42.3781 117.794 42.8506C117.794 44.309 118.76 44.9253 120.157 44.9253C120.752 44.9253 121.225 45.3361 121.225 45.9318C121.225 46.5686 120.752 47 120.157 47C118.39 47 117.219 46.4454 116.747 45.1718C116.028 46.4659 114.939 47 113.563 47ZM115.083 51.93L113.645 50.6359L114.877 49.1774L116.315 50.4921L115.083 51.93ZM118 51.93L116.562 50.6359L117.794 49.1774L119.232 50.4921L118 51.93ZM120.158 47C119.296 47 119.029 46.4043 119.029 45.9729C119.029 45.521 119.296 44.9253 120.158 44.9253C121.617 44.9253 122.993 44.7199 123.959 44.4117C123.096 43.7133 122.315 42.8711 121.843 42.0495L122.11 40.4061C123.034 39.9337 124.328 39.5845 125.951 39.5845C128.622 39.5845 129.505 40.4267 129.505 41.803C129.505 42.6863 128.909 43.6312 127.8 44.4323C128.56 44.7404 129.567 44.9253 130.676 44.9253C131.21 44.9253 131.908 45.1718 131.908 45.9729C131.908 46.4659 131.682 47 130.676 47C128.765 47 127.143 46.507 125.807 45.747C124.246 46.4865 122.233 47 120.158 47ZM125.89 44.042C127.245 43.4874 127.985 42.789 127.985 42.1932C127.985 41.6592 127.451 41.2689 125.849 41.2689C124.945 41.2689 124.102 41.4743 123.466 41.7208C123.979 42.5835 124.78 43.4052 125.89 44.042ZM125.725 37.9L124.123 36.4621L125.479 34.8393L127.081 36.2978L125.725 37.9ZM130.678 47C130.082 47 129.61 46.5686 129.61 45.9524C129.61 45.3361 130.082 44.9253 130.678 44.9253C131.644 44.9253 132.63 44.4323 133.061 43.1587C133.369 42.337 133.39 41.8851 133.472 41.1045L134.971 41.1867C134.91 41.803 134.91 42.3781 134.91 42.8506C134.91 44.309 135.875 44.9253 137.272 44.9253C137.868 44.9253 138.34 45.3361 138.34 45.9318C138.34 46.5686 137.868 47 137.272 47C135.505 47 134.334 46.4454 133.862 45.1718C133.143 46.4659 132.054 47 130.678 47ZM132.814 39.1325L131.376 37.8384L132.609 36.38L134.047 37.6946L132.814 39.1325ZM135.731 39.1325L134.293 37.8384L135.526 36.38L136.964 37.6946L135.731 39.1325ZM137.274 47C136.658 47 136.206 46.5275 136.206 45.9524C136.206 45.3361 136.658 44.9253 137.274 44.9253C138.404 44.9253 138.999 44.268 138.999 42.6041L138.876 32.4154L140.704 32.2922V42.8095C140.704 45.6443 139.513 47 137.274 47ZM144.137 47.0616L143.931 32.4154L145.759 32.2922V47L144.137 47.0616ZM153.752 52.7927L153.711 49.8142C153.69 48.8693 153.67 48.0271 153.67 47.1849C153.67 45.295 154.594 44.4117 155.991 44.4117C156.648 40.817 158.168 39.7693 159.647 39.7693C160.941 39.7693 162.338 41.0429 162.831 42.789C163.324 44.4117 164.208 44.9253 165.358 44.9253C165.974 44.9253 166.426 45.3977 166.426 45.9729C166.426 46.5275 165.974 47 165.358 47C164.31 47 163.345 46.5275 162.687 45.521C162.297 46.5892 161.455 47.2465 160.222 47.2465C158.517 47.2465 157.347 46.24 156.443 46.24C155.724 46.24 155.436 46.774 155.436 47.6573C155.436 48.0682 155.457 51.8889 155.477 52.7106L153.752 52.7927ZM160.325 45.3977C161.106 45.3977 161.558 44.9664 161.558 44.2269C161.558 42.8917 160.264 41.6386 159.421 41.6386C158.559 41.6386 157.737 42.1932 157.408 44.6377C158.25 44.8842 159.093 45.3977 160.325 45.3977ZM171.015 52.197C168.715 52.197 166.968 49.958 166.64 47H165.366C164.729 47 164.298 46.5686 164.298 45.9729C164.298 45.3361 164.729 44.9253 165.366 44.9253H166.64C166.968 40.858 169.125 37.6741 171.221 37.6741C172.453 37.6741 173.603 39.3996 173.603 41.3716C173.603 42.9327 172.926 44.0625 171.015 44.9253H175.165C175.76 44.9253 176.233 45.3772 176.233 45.9524C176.233 46.5686 175.76 47 175.165 47H172.35C173.46 47.5752 173.932 48.5201 173.932 49.5472C173.932 51.0056 172.659 52.197 171.015 52.197ZM171.18 50.5126C172.042 50.5126 172.576 50.0196 172.576 49.3623C172.576 48.3968 171.693 47 169.084 47H167.975C168.263 49.0952 169.536 50.5126 171.18 50.5126ZM167.954 44.9253C170.871 44.2474 172.207 43.1382 172.207 41.8235C172.207 40.5499 171.652 39.5845 171.056 39.5845C169.701 39.5845 168.201 41.803 167.954 44.9253ZM175.164 47C174.547 47 174.095 46.5275 174.095 45.9524C174.095 45.3361 174.547 44.9253 175.164 44.9253C176.211 44.9253 176.827 44.268 176.848 42.6657L176.725 32.4154L178.553 32.2922V43.0355C178.553 44.5761 179.416 44.9253 180.217 44.9253C180.813 44.9253 181.285 45.3772 181.285 45.9524C181.285 46.5686 180.813 47 180.217 47C179.169 47 178.224 46.6097 177.608 45.5826C177.074 46.6097 176.191 47 175.164 47ZM180.267 47C179.589 47 179.158 46.5892 179.158 45.8907C179.158 45.3361 179.61 44.9253 180.267 44.9253C182.527 44.9253 183.513 44.4528 183.513 43.6517C183.513 42.2549 183.204 40.324 182.773 38.8655L184.581 38.4958C184.868 39.8926 185.074 41.7619 185.074 43.3641C185.074 44.3707 184.766 45.1307 184.17 45.7264C183.307 46.6508 181.931 47 180.267 47ZM182.177 36.4827L180.739 35.1885L181.972 33.7301L183.41 35.0447L182.177 36.4827ZM185.094 36.4827L183.656 35.1885L184.889 33.7301L186.327 35.0447L185.094 36.4827Z" fill="black"/>
</svg>
