<svg preserveAspectRatio="xMidYMid meet" viewBox="0 0 188 161" fill="none" xmlns="http://www.w3.org/2000/svg">
<path d="M4.21949 138.94L1.24949 129.67C16.8195 126.43 23.1195 117.88 23.1195 108.52C23.1195 103.66 21.2295 96.37 18.7995 89.71L28.6095 87.28C29.4195 90.97 30.0495 93.94 30.5895 96.64C31.5795 101.23 34.6395 104.38 39.4995 104.38C42.5595 104.38 44.8995 106.72 44.8995 109.69C44.8995 112.75 42.5595 115 39.4995 115C36.4395 115 33.2895 113.92 31.1295 111.13C29.4195 124.99 19.8795 135.97 4.21949 138.94ZM39.5107 115C36.3607 115 33.9307 112.66 33.9307 109.69C33.9307 106.45 36.3607 104.38 39.5107 104.38C52.5607 104.38 58.2307 102.49 58.2307 98.8C58.2307 96.37 56.6107 93.58 54.1807 90.7C49.1407 84.49 45.0907 80.17 40.3207 75.13L41.7607 64.15C51.8407 59.2 68.9407 52.81 80.1907 48.76L79.4707 58.39C72.1807 61.09 56.2507 66.94 47.8807 70.81C55.8007 78.91 61.1107 85.3 69.3007 97.09C73.7107 103.57 76.6807 104.38 81.0907 104.38C84.2407 104.38 86.5807 106.72 86.5807 109.69C86.5807 112.75 84.2407 115 81.0907 115C74.5207 115 69.9307 113.38 63.8107 104.02C61.2007 111.13 54.0007 115 39.5107 115ZM81.0654 115C78.0054 115 75.6654 112.84 75.6654 109.6C75.6654 106.45 78.0054 104.38 81.0654 104.38C85.2054 104.38 89.4354 102.31 91.2354 97.18C92.5854 93.31 92.7654 91.33 93.1254 87.91L100.685 88.36C100.505 91.06 100.415 93.49 100.415 95.56C100.415 101.68 104.555 104.38 110.675 104.38C113.735 104.38 116.075 106.45 116.075 109.6C116.075 112.84 113.735 115 110.675 115C102.755 115 97.5354 112.57 95.2854 107.17C91.9554 112.57 87.2754 115 81.0654 115ZM90.4254 80.08L83.4054 73.78L89.3454 66.67L96.3654 73.06L90.4254 80.08ZM103.745 80.08L96.7254 73.78L102.665 66.67L109.685 73.06L103.745 80.08ZM110.702 115C107.642 115 105.302 112.84 105.302 109.6C105.302 106.45 107.642 104.38 110.702 104.38C114.842 104.38 119.072 102.31 120.872 97.18C122.222 93.31 122.402 91.33 122.762 87.91L130.322 88.36C130.142 91.06 130.052 93.49 130.052 95.56C130.052 101.68 134.192 104.38 140.312 104.38C143.372 104.38 145.712 106.45 145.712 109.6C145.712 112.84 143.372 115 140.312 115C132.392 115 127.172 112.57 124.922 107.17C121.592 112.57 116.912 115 110.702 115ZM123.932 138.85L116.102 131.92L122.672 124L130.502 131.11L123.932 138.85ZM140.339 115C137.189 115 134.939 112.75 134.939 109.78C134.939 106.45 137.189 104.38 140.339 104.38C145.649 104.38 148.079 101.23 150.779 95.65C156.359 84.94 160.409 80.98 166.979 80.98C173.999 80.98 182.099 89.71 182.099 100.33C182.099 109.24 176.969 115 169.319 115C163.829 115 157.349 111.85 153.659 105.73C149.969 112.75 146.369 115 140.339 115ZM169.769 105.64C172.919 105.64 174.719 103.84 174.719 100.96C174.719 95.65 169.229 90.52 165.809 90.52C162.119 90.52 159.779 93.04 157.619 98.44C160.139 103.48 166.169 105.64 169.769 105.64Z" fill="#E56E53"/>
</svg>
